<svg width="32" height="32" viewBox="0 0 32 32" fill="none" xmlns="http://www.w3.org/2000/svg">
<rect width="32" height="32" rx="4" fill="#424242"/>
<path d="M12.1375 19.0591C9.955 17.8764 8.5 15.7229 8.5 13.2631C8.5 9.528 11.8563 6.5 16 6.5C20.1438 6.5 23.5 9.528 23.5 13.2631C23.5 15.7229 22.0431 17.8764 19.8625 19.0591C19.7406 19.6647 19.4481 20.2133 19.03 20.6693H12.97C12.5473 20.2118 12.2594 19.6563 12.1356 19.0591H12.1375ZM21.3569 13.9061C21.3649 12.5484 20.8051 11.2433 19.8007 10.2774C18.7962 9.31149 17.4292 8.76392 16 8.75497C15.5256 8.75497 15.2856 8.97049 15.2856 9.39798C15.2856 9.50485 15.5256 9.71859 16 9.71859C18.2875 9.71859 20.2863 11.5229 20.2863 13.9061C20.2863 14.013 20.5263 14.2285 20.9988 14.2285C21.1169 14.2285 21.3569 14.013 21.3569 13.9079V13.9061ZM12.7862 22.2777C12.7862 21.9232 13.105 21.6364 13.4988 21.6364H18.5013C18.895 21.6364 19.2137 21.9214 19.2137 22.2777C19.2137 22.6339 18.895 22.9225 18.5013 22.9225H13.4988C13.4075 22.9248 13.3166 22.9101 13.2314 22.879C13.1461 22.8479 13.0682 22.8012 13.002 22.7415C12.9358 22.6817 12.8827 22.6102 12.8456 22.5309C12.8086 22.4516 12.7884 22.3662 12.7862 22.2794V22.2777ZM18.88 23.8896C18.355 24.8426 17.2619 25.4998 16 25.4998C15.4111 25.5059 14.8317 25.3592 14.3241 25.0754C13.8166 24.7917 13.4003 24.3817 13.12 23.8896H18.88Z" fill="#177DDC"/>
</svg>
