<svg width="16" height="16" viewBox="0 0 16 16" fill="none" xmlns="http://www.w3.org/2000/svg">
<path fill-rule="evenodd" clip-rule="evenodd" d="M7.99994 1.05713L10.4713 3.52853L9.52853 4.47134L8.66661 3.60941V7.33327L12.3905 7.33327L11.5285 6.47134L12.4713 5.52853L14.9427 7.99994L12.4713 10.4713L11.5285 9.52853L12.3905 8.66661L8.6666 8.66661V12.3905L9.52854 11.5285L10.4713 12.4713L7.99994 14.9427L5.52854 12.4713L6.47134 11.5285L7.33327 12.3905V8.66661L3.60941 8.66661L4.47134 9.52853L3.52853 10.4713L1.05713 7.99994L3.52853 5.52853L4.47134 6.47134L3.60941 7.33327L7.33327 7.33327V3.60941L6.47134 4.47134L5.52853 3.52853L7.99994 1.05713Z" fill="#4E5969"/>
</svg>
