<svg width="12" height="12" viewBox="0 0 12 12" fill="none" xmlns="http://www.w3.org/2000/svg">
<g id="icon/edit" clip-path="url(#clip0_304_35067)">
<path id="Vector" d="M0.491925 11.9673C3.61361 11.5839 3.77872 11.4165 3.88912 11.3057L11.7326 3.44285C12.0707 3.11069 12.0772 2.56625 11.7461 2.22653L9.77992 0.253729C9.6168 0.0947041 9.39719 0.00697544 9.16939 0.00983332C8.94159 0.0126912 8.72425 0.105902 8.56516 0.268969L0.722085 8.13113C0.615765 8.23913 0.449325 8.40437 0.0130049 11.4774C0.00441326 11.5384 0.0089872 11.6005 0.0264185 11.6595C0.0438499 11.7186 0.0737337 11.7732 0.114057 11.8197C0.154379 11.8663 0.204205 11.9036 0.260175 11.9292C0.316146 11.9549 0.376962 11.9682 0.438525 11.9684C0.455925 11.9696 0.473325 11.9696 0.490845 11.9684L0.491925 11.9679V11.9673ZM9.17068 0.864049L11.1239 2.83421L10.1327 3.82865L8.17408 1.86545L9.17068 0.864049ZM7.56701 2.47529L9.52517 4.43849L3.78269 10.1962L1.82824 8.23925L7.56653 2.47493L7.56701 2.47541V2.47529ZM1.31176 8.94173L3.07516 10.7088C2.6296 10.801 1.783 10.9292 0.946365 11.0405C1.07176 10.2136 1.21468 9.37901 1.31284 8.94161H1.31164L1.31176 8.94173ZM11.4201 11.1294H5.47624C5.36196 11.1294 5.25235 11.1748 5.17154 11.2557C5.09073 11.3365 5.04532 11.4461 5.04532 11.5604C5.04532 11.6747 5.09073 11.7843 5.17154 11.8651C5.25235 11.9459 5.36196 11.9913 5.47624 11.9913H11.4207C11.535 11.9913 11.6446 11.9459 11.7254 11.8651C11.8062 11.7843 11.8516 11.6747 11.8516 11.5604C11.8516 11.4461 11.8062 11.3365 11.7254 11.2557C11.6446 11.1748 11.535 11.1294 11.4207 11.1294H11.4201Z" fill="#E41D1D"/>
<path id="Vector_2" d="M5.4541 7.71414C5.4541 8.14392 5.53875 8.5695 5.70322 8.96656C5.86769 9.36363 6.10876 9.72441 6.41266 10.0283C6.71657 10.3322 7.07735 10.5733 7.47442 10.7378C7.87148 10.9022 8.29706 10.9869 8.72684 10.9869C9.15662 10.9869 9.58219 10.9022 9.97926 10.7378C10.3763 10.5733 10.7371 10.3322 11.041 10.0283C11.3449 9.72441 11.586 9.36363 11.7505 8.96656C11.9149 8.5695 11.9996 8.14392 11.9996 7.71414C11.9996 6.84616 11.6548 6.01373 11.041 5.39997C10.4273 4.78621 9.59482 4.44141 8.72684 4.44141C7.85885 4.44141 7.02642 4.78621 6.41266 5.39997C5.79891 6.01373 5.4541 6.84616 5.4541 7.71414Z" fill="#00B42A"/>
<path id="Vector_3" d="M8.35529 8.46481L7.84857 7.48736L7.81259 7.45079H7.73945L6.58091 8.17517C6.54492 8.17517 6.54492 8.21116 6.54492 8.24773C6.54492 8.2843 6.58091 8.28372 6.58091 8.32029C7.30872 8.62314 7.93625 9.12532 8.39127 9.76905C8.41085 9.78869 8.43635 9.80133 8.46383 9.80503C8.49982 9.80503 8.49982 9.80503 8.53639 9.76905C8.85235 9.24215 9.21586 8.74508 9.62237 8.2843C9.94137 7.84855 10.3647 7.49989 10.8535 7.27028C10.8731 7.27058 10.8892 7.25492 10.8895 7.23532V7.1616C10.7476 6.77998 10.7099 6.36748 10.7803 5.96648C10.7803 5.85736 10.8163 5.74823 10.8163 5.60429C10.8163 5.56831 10.8163 5.56831 10.7803 5.53174H10.7078C10.3334 5.73132 10.0014 6.00179 9.73033 6.32809C9.43642 6.65557 9.17007 7.00677 8.93398 7.37809C8.71504 7.7259 8.52144 8.08903 8.3547 8.46466L8.35529 8.46481Z" fill="white"/>
</g>
<defs>
<clipPath id="clip0_304_35067">
<rect width="12" height="12" fill="white"/>
</clipPath>
</defs>
</svg>
