<svg width="18" height="18" viewBox="0 0 18 18" fill="none" xmlns="http://www.w3.org/2000/svg">
<g clip-path="url(#clip0_258_19664)">
<path d="M9.08342 0.241699C4.2229 0.241699 0.28064 4.18187 0.28064 9.04448C0.28064 13.9071 4.22081 17.8452 9.08342 17.8452C13.946 17.8452 17.8862 13.905 17.8862 9.04239C17.8862 4.17979 13.9439 0.241699 9.08342 0.241699ZM9.08342 16.5638C4.93038 16.5638 1.56203 13.1975 1.56203 9.04239C1.56203 4.88726 4.92829 1.521 9.08342 1.521C13.2386 1.521 16.6048 4.88831 16.6048 9.04239C16.6048 13.1965 13.2365 16.5638 9.08342 16.5638Z" fill="#E41D1D"/>
<path d="M10.9467 12.2078L10.3463 11.6364L10.2025 11.7687C9.49645 12.4184 9.21534 12.5912 9.11391 12.6371C9.11329 12.6343 9.11287 12.6316 9.11266 12.6287C9.2842 11.5448 9.55426 10.4787 9.91948 9.44384C10.1316 8.82636 10.3014 8.19512 10.4277 7.55452L10.4308 7.53866V7.52238C10.4341 7.43464 10.4167 7.34735 10.38 7.26759C10.3433 7.18782 10.2884 7.11782 10.2196 7.06325L10.2102 7.05636C10.0608 6.95219 9.88065 6.90152 9.69889 6.91257C9.28065 6.94232 8.87599 7.07363 8.51996 7.29511C7.97336 7.625 7.48154 8.0381 7.06222 8.51953L6.91614 8.68836L7.58083 9.19007L7.70918 9.0588C7.97423 8.78849 8.25921 8.53847 8.5617 8.31083C8.60993 8.2789 8.6633 8.25553 8.71948 8.24175C8.71283 8.29968 8.70017 8.35675 8.6817 8.41205C8.12691 9.9195 7.73471 11.4819 7.51175 13.0726L7.51009 13.0887C7.49642 13.3119 7.57142 13.5314 7.71878 13.6996L7.72734 13.709C7.79911 13.7818 7.88466 13.8396 7.979 13.879C8.07334 13.9184 8.17459 13.9386 8.27683 13.9385H8.32442C8.64187 13.9107 8.94788 13.8065 9.21638 13.6349L9.81388 13.2496H9.75962C10.1229 12.9757 10.468 12.6784 10.7927 12.3595L10.9467 12.2078ZM11.3664 4.40238C11.3578 4.20854 11.2731 4.02592 11.1307 3.89416C10.9882 3.7624 10.7996 3.69215 10.6057 3.69866H10.6017C10.4734 3.69889 10.3466 3.72613 10.2294 3.77859C10.1123 3.83104 10.0076 3.90755 9.92198 4.00314C9.83013 4.09845 9.75799 4.21093 9.70968 4.33416C9.66137 4.45739 9.63785 4.58893 9.64045 4.72127C9.63726 4.82429 9.6544 4.92693 9.69089 5.02333C9.72738 5.11972 9.7825 5.20799 9.85311 5.28308C9.92059 5.35346 10.0016 5.4095 10.0912 5.44784C10.1809 5.48617 10.2773 5.50601 10.3749 5.50617H10.3957C10.6246 5.50167 10.8435 5.41166 11.0093 5.25386H11.0118L11.0731 5.19125C11.2647 4.99606 11.3708 4.7328 11.3682 4.45935V4.40447L11.3664 4.40238Z" fill="#E41D1D"/>
</g>
<defs>
<clipPath id="clip0_258_19664">
<rect width="18" height="18" fill="white"/>
</clipPath>
</defs>
</svg>
