<svg xmlns="http://www.w3.org/2000/svg" width="44" height="50" viewBox="0 0 44 50" fill="none">
  <path d="M21.8748 34.8736C31.2478 34.8736 38.8462 30.5664 38.8462 25.2533C38.8462 19.9402 31.2478 15.6331 21.8748 15.6331C12.5017 15.6331 4.90335 19.9402 4.90335 25.2533C4.90335 30.5664 12.5017 34.8736 21.8748 34.8736Z" fill="url(#paint0_linear_4610_42105)"/>
  <path d="M38.8462 23.861V36.5192C38.3433 41.6458 30.9262 45.7597 21.8748 45.7597C12.8233 45.7597 5.46906 41.7091 4.90335 36.5192V23.861C4.90335 24.0508 4.90335 24.2407 4.90335 24.4306C4.90335 29.8103 12.5091 34.2407 21.8748 34.2407C31.2405 34.2407 38.8462 29.8736 38.8462 24.4306C38.8462 24.2407 38.8462 24.0508 38.8462 23.861Z" fill="url(#paint1_linear_4610_42105)"/>
  <path opacity="0.4" d="M5.4067 31.4558H5.72098C5.72098 36.5191 13.0124 40.6963 22.0638 40.6963C31.1153 40.6963 38.4067 36.5191 38.4067 31.4558H38.721C38.721 36.7723 31.241 41.0128 22.0638 41.0128C12.8867 41.0128 5.4067 36.7723 5.4067 31.4558Z" fill="#6174AA"/>
  <path d="M38.5319 24.9368V24.6836C38.0291 19.8735 30.7376 15.9495 21.8748 15.9495C13.0119 15.9495 5.72049 19.8102 5.21763 24.6836V24.9368V36.709V36.9621C5.72049 41.7723 13.0119 45.6963 21.8748 45.6963C30.7376 45.6963 38.0291 41.8355 38.5319 36.9621V36.709V24.9368Z" stroke="#4363BD" stroke-width="1.4"/>
  <path d="M7.6067 31.709L8.92672 32.7849V35.3166L7.6067 34.2406V31.709Z" fill="#A5ADC1"/>
  <path opacity="0.5012" d="M10.2462 33.481L11.5662 34.5569V37.0886L10.2462 36.0126V33.481Z" fill="#A5ADC1"/>
  <path d="M21.8748 23.6709C31.2478 23.6709 38.8462 19.3638 38.8462 14.0507C38.8462 8.73756 31.2478 4.43042 21.8748 4.43042C12.5017 4.43042 4.90335 8.73756 4.90335 14.0507C4.90335 19.3638 12.5017 23.6709 21.8748 23.6709Z" fill="#F0F2F9"/>
  <path d="M38.8462 12.6583V25.3166C38.3433 30.4431 30.9262 34.5571 21.8748 34.5571C12.8233 34.5571 5.46906 30.5064 4.90335 25.3166V12.6583C4.90335 12.8482 4.90335 13.0381 4.90335 13.228C4.90335 18.6077 12.5091 23.0381 21.8748 23.0381C31.2405 23.0381 38.8462 18.671 38.8462 13.228C38.8462 13.0381 38.8462 12.8482 38.8462 12.6583Z" fill="url(#paint2_linear_4610_42105)"/>
  <path opacity="0.4" d="M5.4067 20.2532H5.72098C5.72098 25.3165 13.0124 29.4937 22.0638 29.4937C31.1153 29.4937 38.4067 25.3165 38.4067 20.2532H38.721C38.721 25.5696 31.241 29.8101 22.0638 29.8101C12.8867 29.8101 5.4067 25.5696 5.4067 20.2532Z" fill="#6174AA"/>
  <path d="M5.21763 27.7848V27.5316V13.7342V13.481C5.72049 8.60759 13.0119 4.74683 21.8748 4.74683C30.7376 4.74683 38.0291 8.67088 38.5319 13.481V13.7342V28.1645V28.4177" stroke="#4363BD" stroke-width="1.4"/>
  <path d="M7.6067 20.5063L8.92672 21.5823V24.1139L7.6067 23.038V20.5063Z" fill="#869AD4"/>
  <path opacity="0.5012" d="M10.2462 22.2783L11.5662 23.3543V25.8859L10.2462 24.81V22.2783Z" fill="#A5B4DF"/>
  <defs>
    <linearGradient id="paint0_linear_4610_42105" x1="12.4152" y1="17.8512" x2="21.2068" y2="39.2388" gradientUnits="userSpaceOnUse">
      <stop stop-color="#FEFEFF"/>
      <stop offset="1" stop-color="#F1F6FF"/>
    </linearGradient>
    <linearGradient id="paint1_linear_4610_42105" x1="38.8668" y1="34.905" x2="4.9417" y2="33.8898" gradientUnits="userSpaceOnUse">
      <stop stop-color="#A4B3DF"/>
      <stop offset="0.2354" stop-color="#768DCF"/>
      <stop offset="0.4664" stop-color="#DAE2F7"/>
      <stop offset="0.6916" stop-color="#BAC5E6"/>
      <stop offset="1" stop-color="#D5DCF0"/>
    </linearGradient>
    <linearGradient id="paint2_linear_4610_42105" x1="38.8668" y1="23.7023" x2="4.9417" y2="22.6871" gradientUnits="userSpaceOnUse">
      <stop stop-color="#A4B3DF"/>
      <stop offset="0.2354" stop-color="#768DCF"/>
      <stop offset="0.4664" stop-color="#DAE2F7"/>
      <stop offset="0.6916" stop-color="#BAC5E6"/>
      <stop offset="1" stop-color="#D5DCF0"/>
    </linearGradient>
  </defs>
</svg>