<svg width="16" height="16" viewBox="0 0 16 16" fill="none" xmlns="http://www.w3.org/2000/svg">
<g id="Frame">
<path id="Vector" d="M12.1213 1.84326H3.96366C2.83166 1.84326 1.91406 2.76086 1.91406 3.89286V12.0505C1.91406 13.1825 2.83166 14.1001 3.96366 14.1001H12.1213C13.2533 14.1001 14.1709 13.1825 14.1709 12.0505V3.89286C14.1701 2.76086 13.2533 1.84326 12.1213 1.84326ZM11.3613 7.64806L10.2357 8.74566C10.1793 8.80041 10.1372 8.86808 10.1129 8.94281C10.0887 9.01754 10.083 9.09706 10.0965 9.17446L10.3621 10.7241C10.4301 11.1193 10.0149 11.4217 9.65966 11.2345L8.26766 10.5025C8.19825 10.4658 8.12095 10.4467 8.04246 10.4467C7.96397 10.4467 7.88667 10.4658 7.81726 10.5025L6.42526 11.2345C6.07006 11.4209 5.65486 11.1193 5.72286 10.7241L5.98846 9.17446C6.01566 9.01766 5.96366 8.85686 5.84926 8.74566L4.72286 7.64806C4.43566 7.36806 4.59406 6.88006 4.99086 6.82246L6.54686 6.59606C6.62458 6.5848 6.69839 6.55481 6.76194 6.50868C6.82549 6.46255 6.87687 6.40166 6.91166 6.33126L7.60766 4.92086C7.78526 4.56086 8.29886 4.56086 8.47646 4.92086L9.17246 6.33126C9.20725 6.40166 9.25863 6.46255 9.32218 6.50868C9.38573 6.55481 9.45955 6.5848 9.53726 6.59606L11.0933 6.82246C11.4901 6.88006 11.6493 7.36806 11.3613 7.64806Z" fill="#FC7032"/>
<path id="Vector_2" d="M14.1701 3.89286C14.1701 2.76086 13.2525 1.84326 12.1205 1.84326H3.96366C2.83166 1.84326 1.91406 2.76086 1.91406 3.89286V12.0505C1.91406 13.1825 2.83166 14.1001 3.96366 14.1001H7.16606C10.6853 13.0745 13.4053 10.1737 14.1709 6.55126V3.89286H14.1701ZM11.3613 7.64806L10.2357 8.74566C10.1793 8.80041 10.1372 8.86808 10.1129 8.94281C10.0887 9.01754 10.083 9.09706 10.0965 9.17446L10.3621 10.7241C10.4301 11.1193 10.0149 11.4217 9.65966 11.2345L8.26766 10.5025C8.19825 10.4658 8.12095 10.4467 8.04246 10.4467C7.96397 10.4467 7.88667 10.4658 7.81726 10.5025L6.42526 11.2345C6.07006 11.4209 5.65486 11.1193 5.72286 10.7241L5.98846 9.17446C6.01566 9.01766 5.96366 8.85686 5.84926 8.74566L4.72286 7.64806C4.43566 7.36806 4.59406 6.88006 4.99086 6.82246L6.54686 6.59606C6.62458 6.5848 6.69839 6.55481 6.76194 6.50868C6.82549 6.46255 6.87687 6.40166 6.91166 6.33126L7.60766 4.92086C7.78526 4.56086 8.29886 4.56086 8.47646 4.92086L9.17246 6.33126C9.20725 6.40166 9.25863 6.46255 9.32218 6.50868C9.38573 6.55481 9.45955 6.5848 9.53726 6.59606L11.0933 6.82246C11.4901 6.88006 11.6493 7.36806 11.3613 7.64806Z" fill="#FF7E3E"/>
<path id="Vector_3" d="M3.96366 1.84326C2.83166 1.84326 1.91406 2.76086 1.91406 3.89286V10.9313C3.31646 10.8897 4.64606 10.5601 5.84686 9.99926L5.98846 9.17446C6.01566 9.01766 5.96366 8.85686 5.84926 8.74566L4.72286 7.64806C4.43566 7.36806 4.59406 6.88006 4.99086 6.82246L6.54686 6.59606C6.62458 6.5848 6.69839 6.55481 6.76194 6.50868C6.82549 6.46255 6.87687 6.40166 6.91166 6.33126L7.60766 4.92086C7.78526 4.56086 8.29886 4.56086 8.47646 4.92086L9.17246 6.33126C9.20725 6.40166 9.25863 6.46255 9.32218 6.50868C9.38573 6.55481 9.45955 6.5848 9.53726 6.59606L9.84126 6.64006C10.8335 5.22068 11.4394 3.56763 11.5997 1.84326H3.96366Z" fill="#FF9552"/>
<path id="Vector_4" d="M1.91406 3.89279V6.98079C4.60366 6.19199 6.82366 4.30799 8.05966 1.84399H3.96366C2.83166 1.84319 1.91406 2.76079 1.91406 3.89279Z" fill="#FFA56A"/>
</g>
</svg>
