<svg width="14" height="14" viewBox="0 0 14 14" fill="none" xmlns="http://www.w3.org/2000/svg">
<path fill-rule="evenodd" clip-rule="evenodd" d="M1.66665 6.99992C1.66665 4.0544 4.05446 1.66659 6.99998 1.66659C9.9455 1.66659 12.3333 4.0544 12.3333 6.99992C12.3333 9.94544 9.9455 12.3333 6.99998 12.3333C4.05446 12.3333 1.66665 9.94544 1.66665 6.99992ZM6.99998 0.333252C3.31808 0.333252 0.333313 3.31802 0.333313 6.99992C0.333313 10.6818 3.31808 13.6666 6.99998 13.6666C10.6819 13.6666 13.6666 10.6818 13.6666 6.99992C13.6666 3.31802 10.6819 0.333252 6.99998 0.333252ZM5.86665 5.65945V5.50573C5.86746 5.32282 5.93287 5.11993 6.07881 4.96739C6.21361 4.82651 6.47633 4.66658 6.99615 4.66658C7.48429 4.66658 7.82374 4.89964 7.99685 5.16424C8.18171 5.4468 8.14529 5.68389 8.05755 5.80234C7.94812 5.95007 7.81226 6.08651 7.64806 6.23433C7.59811 6.2793 7.53654 6.33288 7.47052 6.39032L7.4705 6.39034C7.35245 6.49307 7.22018 6.60817 7.11471 6.70852C6.74021 7.06486 6.33344 7.5622 6.33344 8.33325L6.33561 8.67087L7.66891 8.6623L7.66679 8.33143C7.66728 8.10341 7.76075 7.93428 8.03381 7.67446C8.1256 7.58712 8.20811 7.51573 8.30252 7.43406L8.30256 7.43402C8.37238 7.37362 8.44872 7.30757 8.54013 7.22528C8.73026 7.05413 8.94182 6.84862 9.12897 6.59596C9.63437 5.91365 9.51618 5.05112 9.11261 4.43426C8.69727 3.79943 7.94159 3.33325 6.99615 3.33325C6.17799 3.33325 5.54369 3.59802 5.11542 4.04563C4.69855 4.48133 4.53484 5.0303 4.53332 5.50235V5.65945H5.86665ZM6.33559 9.33325V10.6692H7.66892V9.33325H6.33559Z" fill="#F53F3F"/>
</svg>
