<svg xmlns="http://www.w3.org/2000/svg" width="16" height="16" viewBox="0 0 16 16" fill="none">
  <path d="M13.795 9.61629L13.7975 7.22512L13.6113 7.22492V7.22293H8.49429L8.49554 6.05118H9.19837C9.60458 6.05118 9.93388 5.72188 9.93388 5.31567V1.87027C9.93388 1.46406 9.60458 1.13477 9.19837 1.13477H7.00006C6.59385 1.13477 6.26455 1.46406 6.26455 1.87027V5.31569C6.26455 5.7219 6.59385 6.05119 7.00006 6.05119H7.63217L7.63092 7.22294H3.07489V7.22512L2.66934 7.22468L2.66683 9.59305H2.58706C2.18086 9.59305 1.85156 9.92234 1.85156 10.3285V13.774C1.85156 14.1802 2.18086 14.5095 2.58706 14.5095H4.7854C5.1916 14.5095 5.5209 14.1802 5.5209 13.774V10.3285C5.5209 9.92233 5.1916 9.59303 4.7854 9.59303H3.08226L3.08412 7.84647H7.63025L7.62845 9.54506H6.98375C6.57754 9.54506 6.24825 9.87436 6.24825 10.2806V13.726C6.24825 14.1322 6.57754 14.4615 6.98375 14.4615H9.18208C9.58828 14.4615 9.91758 14.1322 9.91758 13.726V10.2806C9.91758 9.87436 9.58828 9.54506 9.18208 9.54506H8.49181L8.49362 7.84647H13.3814L13.3796 9.59303H11.4124C11.0062 9.59303 10.6769 9.92233 10.6769 10.3285V13.774C10.6769 14.1802 11.0062 14.5095 11.4124 14.5095H13.6108C14.017 14.5095 14.3463 14.1802 14.3463 13.774V10.3285C14.3463 9.98593 14.112 9.69806 13.795 9.61629Z" fill="#E41D1D"/>
</svg>