<svg width="16" height="16" viewBox="0 0 16 16" fill="none" xmlns="http://www.w3.org/2000/svg">
<g id="general/folder">
<path id="Vector" fill-rule="evenodd" clip-rule="evenodd" d="M1.33301 3.3335C1.33301 2.74582 1.82592 2.3335 2.35262 2.3335H6.86411C7.18753 2.3335 7.50431 2.48532 7.70063 2.76162L8.34381 3.66683H13.2938C14.0154 3.66683 14.6663 4.22839 14.6663 5.00016V12.0002C14.6663 12.337 14.5358 12.7081 14.3579 12.9921C14.2 13.2443 13.8498 13.6668 13.2938 13.6668H2.70556C1.98393 13.6668 1.33301 13.1053 1.33301 12.3335V3.3335ZM2.66634 5.00016V12.3221C2.67255 12.3269 2.68516 12.3335 2.70556 12.3335H13.1935C13.2034 12.3211 13.2151 12.3049 13.2279 12.2844C13.261 12.2316 13.2899 12.1687 13.3096 12.1075C13.3192 12.0777 13.3254 12.0518 13.3291 12.0313C13.3327 12.0111 13.333 12.0008 13.333 12.0002L13.333 5.01158C13.3268 5.00671 13.3142 5.00016 13.2938 5.00016H2.66634Z" fill="#4E5969"/>
</g>
</svg>
