<?xml version="1.0" encoding="UTF-8"?>
<svg width="16px" height="16px" viewBox="0 0 16 16" version="1.1" xmlns="http://www.w3.org/2000/svg" xmlns:xlink="http://www.w3.org/1999/xlink">
    <title>警告16</title>
    <g id="控件" stroke="none" stroke-width="1" fill="none" fill-rule="evenodd">
        <g id="警告16" fill="#FF8713" fill-rule="nonzero">
            <path d="M8,0 C12.418278,0 16,3.581722 16,8 C16,12.418278 12.418278,16 8,16 C3.581722,16 0,12.418278 0,8 C0,3.581722 3.581722,0 8,0 Z M8,11.9346585 C7.63252033,11.9346585 7.33333333,12.2485075 7.33333333,12.6339959 C7.33333333,13.0211901 7.63252033,13.3333333 8,13.3333333 C8.36910569,13.3333333 8.66666667,13.0194844 8.66666667,12.6339959 C8.66666667,12.2468018 8.36747967,11.9346585 8,11.9346585 Z M8,4.66666667 C7.63252033,4.66666667 7.33333333,4.98051565 7.33333333,5.36600407 L7.33333333,5.36600407 L7.33333333,10.0754445 C7.33333333,10.4626386 7.63252033,10.7747819 8,10.7747819 C8.36910569,10.7747819 8.66666667,10.4609329 8.66666667,10.0754445 L8.66666667,10.0754445 L8.66666667,5.36600407 C8.66666667,4.97880995 8.36747967,4.66666667 8,4.66666667 Z" id="形状结合"></path>
        </g>
    </g>
</svg>