<?xml version="1.0" encoding="UTF-8"?>
<svg width="16px" height="16px" viewBox="0 0 16 16" version="1.1" xmlns="http://www.w3.org/2000/svg" xmlns:xlink="http://www.w3.org/1999/xlink">
    <title>通过16</title>
    <g id="控件" stroke="none" stroke-width="1" fill="none" fill-rule="evenodd">
        <g id="通过16" fill-rule="nonzero">
            <path d="M0,8 C0,10.8581247 1.52479133,13.4991408 4,14.9282032 C6.4752086,16.3572656 9.5247914,16.3572656 12,14.9282032 C14.4752087,13.4991408 16,10.8581247 16,8 C16,3.58172197 12.418278,0 8,0 C3.581722,0 0,3.58172197 0,8 Z" id="路径" fill="#00B42A"></path>
            <path d="M6.81333111,11.3333333 C6.56573832,11.3333333 6.32931513,11.2432859 6.15432473,11.0852782 L3.69328964,8.83749069 C3.33027765,8.50618414 3.17813671,8.10893983 3.5411487,7.77763328 C3.90416068,7.44632674 4.25427358,7.30498554 4.61728556,7.63629208 L6.81333111,9.65301619 L11.0782565,5.76058903 C11.4412685,5.42928248 12.0313957,5.15107714 12.3944077,5.48238369 C12.7574197,5.81369023 12.7574197,6.26009566 12.3944077,6.59140221 L7.47047588,11.0852782 C7.29734709,11.2432859 7.0609239,11.3333333 6.81333111,11.3333333 Z" id="路径" fill="#FFFFFF"></path>
        </g>
    </g>
</svg>