<svg width="18.000000" height="18.000000" viewBox="0 0 18 18" xmlns="http://www.w3.org/2000/svg" xmlns:xlink="http://www.w3.org/1999/xlink">
	<desc>
			Created with Pixso.
	</desc>
	<path d="M9 4.75372C6.65527 4.75372 4.75244 6.65613 4.75244 9.00085C4.75244 11.3456 6.65527 13.248 9 13.248C11.3452 13.248 13.2476 11.3456 13.2476 9.00085C13.2476 6.65613 11.3452 4.75372 9 4.75372ZM9 10.6998C8.06201 10.6998 7.30127 9.93878 7.30127 9.00085C7.30127 8.06299 8.06201 7.302 9 7.302C9.93799 7.302 10.6992 8.06299 10.6992 9.00085C10.6992 9.93878 9.93799 10.6998 9 10.6998ZM5.53809 12.6357L4.56836 16.2529C4.54004 16.3573 4.40918 16.3927 4.33105 16.3167L3.60742 15.5928C3.49756 15.4831 3.31689 15.4831 3.20752 15.5928L0.842773 17.9589C0.788086 18.0137 0.697754 18.0137 0.643066 17.9589L0.0410156 17.3589C-0.0136719 17.3041 -0.0136719 17.2138 0.0410156 17.159L2.40723 14.793C2.51709 14.6832 2.51709 14.5027 2.40723 14.393L1.68359 13.6693C1.60547 13.5914 1.64111 13.4604 1.74707 13.4321L5.36475 12.4623C5.47119 12.434 5.56641 12.5295 5.53809 12.6357L5.53809 12.6357ZM17.959 17.3589L17.3589 17.9589C17.3042 18.0137 17.2139 18.0137 17.1592 17.9589L14.791 15.5928C14.6812 15.4831 14.501 15.4831 14.3911 15.5928L13.667 16.3167C13.5894 16.3945 13.4585 16.3591 13.4302 16.2529L12.46 12.6357C12.4316 12.5313 12.5273 12.434 12.6338 12.4623L16.251 13.4321C16.3555 13.4604 16.3911 13.5914 16.3149 13.6693L15.5908 14.393C15.4814 14.5027 15.4814 14.6832 15.5908 14.793L17.9575 17.159C18.0142 17.2138 18.0142 17.3023 17.959 17.3589L17.959 17.3589ZM1.68359 4.33075L2.40723 3.60699C2.51709 3.49725 2.51709 3.31677 2.40723 3.20703L0.0410156 0.841003C-0.0136719 0.786194 -0.0136719 0.695923 0.0410156 0.641052L0.641113 0.0411377C0.695801 -0.0137329 0.786133 -0.0137329 0.841309 0.0411377L3.20752 2.40717C3.31689 2.51691 3.49756 2.51691 3.60742 2.40717L4.33105 1.68335C4.40918 1.60553 4.54004 1.64093 4.56836 1.74707L5.53809 5.36426C5.56641 5.46869 5.47119 5.56598 5.36475 5.53766L1.74707 4.5697C1.64307 4.53961 1.60742 4.40863 1.68359 4.33075L1.68359 4.33075ZM15.5928 3.60876L16.3169 4.33252C16.3945 4.4104 16.3589 4.54138 16.2529 4.5697L12.6353 5.53766C12.5308 5.56598 12.4336 5.47046 12.4619 5.36426L13.4316 1.74707C13.46 1.6427 13.5913 1.6073 13.6689 1.68341L14.3931 2.40717C14.5024 2.51691 14.6831 2.51691 14.793 2.40717L17.1572 0.0411377C17.2124 -0.0137329 17.3022 -0.0137329 17.3574 0.0411377L17.9575 0.641052C18.0122 0.695923 18.0122 0.786194 17.9575 0.841003L15.5928 3.20703C15.4814 3.31854 15.4814 3.49725 15.5928 3.60876Z" fill-rule="evenodd"/>
	<defs/>
</svg>
