<svg width="18.000000" height="18.000000" viewBox="0 0 18 18" xmlns="http://www.w3.org/2000/svg" xmlns:xlink="http://www.w3.org/1999/xlink">
	<desc>
			Created with Pixso.
	</desc>
	<g clip-path="url(#clip459_269)">
		<path d="M15.6748 1.16248C16.3125 1.16248 16.8374 1.6875 16.8374 2.32501C16.8374 2.96252 16.3125 3.48749 15.6748 3.48749C15.0376 3.48749 14.5127 2.96252 14.5127 2.32501C14.4751 1.6875 15 1.16248 15.6748 1.16248ZM4.9126 7.72498L0.600098 7.72498C0.450195 7.72498 0.299805 7.79999 0.1875 7.91248C0.0751953 8.02502 0 8.17499 0 8.32501C0 8.66248 0.262695 8.88751 0.600098 8.88751L4.9126 8.88751C6.3374 8.88751 7.5376 7.76251 7.6123 6.33752L10.125 6.33752C10.3877 6.97498 11.0249 7.46252 11.7749 7.46252C12.75 7.46252 13.5376 6.67499 13.5376 5.73749C13.5376 4.76251 12.75 4.01251 11.7749 4.01251C10.9873 4.01251 10.3501 4.5 10.125 5.21252L7.6499 5.21252L7.6499 4.38751C7.6499 3.5625 8.3252 2.88751 9.1499 2.88751L13.4248 2.88751C13.6875 3.90002 14.5874 4.61249 15.6748 4.61249C16.9502 4.61249 18 3.5625 18 2.28748C18 1.04999 16.9502 0 15.6748 0C14.5874 0 13.6875 0.75 13.4248 1.72498L9.1123 1.72498C7.6123 1.72498 6.4126 2.92499 6.4126 4.38751L6.4126 5.21252L0.600098 5.21252C0.450195 5.21252 0.299805 5.28748 0.1875 5.40002C0.0751953 5.51251 0 5.625 0 5.77502C0 6.11249 0.262695 6.33752 0.600098 6.33752L6.4502 6.33752C6.375 7.125 5.7002 7.72498 4.9126 7.72498ZM0.600098 11.6625L7.9873 11.6625C8.25 12.3 8.8877 12.7875 9.6377 12.7875C10.6123 12.7875 11.3999 12 11.3999 11.0625C11.3999 10.125 10.6123 9.33752 9.6377 9.33752C8.8501 9.33752 8.2124 9.82501 7.9873 10.5375L0.600098 10.5375C0.450195 10.5375 0.299805 10.6125 0.1875 10.725C0.0751953 10.8375 0 10.9125 0 11.0625C0 11.4 0.262695 11.6625 0.600098 11.6625ZM15.6748 16.8375C15.0376 16.8375 14.5127 16.3125 14.5127 15.675C14.5127 15.0375 15.0376 14.5125 15.6748 14.5125C16.3125 14.5125 16.8374 15.0375 16.8374 15.675C16.8374 16.3125 16.3125 16.8375 15.6748 16.8375ZM15.6748 13.3875C14.5874 13.3875 13.6875 14.1375 13.4248 15.1125L12.1499 15.1125C11.3623 15.1125 10.5752 14.925 9.8623 14.5875L7.875 13.65C7.0127 13.2375 6.0376 13.0125 5.1001 13.0125L0.600098 13.0125C0.450195 13.0125 0.299805 13.0875 0.1875 13.2C0.0751953 13.3125 0 13.4625 0 13.6125C0 13.95 0.262695 14.175 0.600098 14.175L5.1001 14.175C5.8877 14.175 6.6748 14.3625 7.3877 14.7L9.3374 15.6375C10.2002 16.05 11.1748 16.275 12.1123 16.275L13.3877 16.275C13.6499 17.2875 14.5498 18 15.6377 18C16.9126 18 17.9624 16.95 17.9624 15.675C18 14.4 16.9502 13.3875 15.6748 13.3875Z" fill-rule="evenodd"/>
	</g>
	<defs>
		<clipPath id="clip459_269">
			<rect width="18.000000" height="18.000000" fill="white"/>
		</clipPath>
	</defs>
</svg>
