<?xml version="1.0" encoding="UTF-8"?>
<svg width="36px" height="36px" viewBox="0 0 36 36" version="1.1" xmlns="http://www.w3.org/2000/svg" xmlns:xlink="http://www.w3.org/1999/xlink">
    <title>步骤方式</title>
    <g id="控件" stroke="none" stroke-width="1" fill="none" fill-rule="evenodd">
        <g id="步骤方式">
            <path d="M12.4142973,8.52169843 C9.17370986,10.435547 7,13.9639249 7,18 C7,19.2205374 7.19878577,20.3946459 7.56574773,21.4917159 M8.50563581,23.5584153 C10.415762,26.8140818 13.9526067,29 18,29 C19.1676433,29 20.2927946,28.8180704 21.348654,28.4810111 M23.9202929,27.2725515 C26.9750343,25.318117 29,21.8955365 29,18 C29,16.7578081 28.794098,15.5637071 28.4145619,14.449965 M27.3999719,12.28374 C25.469168,9.11546055 21.9816301,7 18,7 C16.8470681,7 15.7355641,7.17737419 14.6912879,7.50632284" id="形状" stroke="#fff" stroke-linecap="round" stroke-linejoin="round"></path>
            <polyline id="路径-8" stroke="#FFF" stroke-linecap="round" stroke-linejoin="round" points="8.16115406 8.95770075 12.4142973 8.52169843 11.172777 12.3485086"></polyline>
            <polyline id="路径-8备份" stroke="#FFF" stroke-linecap="round" stroke-linejoin="round" transform="translate(25.548250, 10.290033) scale(1, -1) translate(-25.548250, -10.290033) " points="23.6037736 8.76550857 27.4927262 8.29632503 26.8018868 12.28374"></polyline>
            <polyline id="路径-8备份-2" stroke="#FFF" stroke-linecap="round" stroke-linejoin="round" transform="translate(25.548250, 25.686067) scale(-1, 1) rotate(89.000000) translate(-25.548250, -25.686067) " points="23.7132747 24.3397358 27.3832251 23.7733243 26.9101008 27.5988101"></polyline>
            <polyline id="路径-8备份-3" stroke="#FFF" stroke-linecap="round" stroke-linejoin="round" transform="translate(9.872948, 25.612243) scale(1, -1) rotate(168.000000) translate(-9.872948, -25.612243) " points="7.89398458 24.0138997 11.8519105 23.6836474 10.7876052 27.5408393"></polyline>
            <path d="M19.4023175,18.5169755 L18.3834496,17.499707 L17.779676,16.8968813 C18.1759024,15.9361278 18.3754649,14.5933246 17.583012,13.7832775 C16.7905592,12.9732304 15.60188,12.8036857 14.6396158,13.2181284 L15.9226347,14.4991331 C16.1867856,14.7628694 16.1867856,15.1773121 15.9226347,15.4410483 L15.4320686,15.8743293 C15.1679177,16.1380656 14.7528234,16.1380656 14.4886724,15.8743293 L13.2056535,14.5933246 C12.8094271,15.5540781 12.9792385,16.722053 13.7716913,17.5321001 C14.5641441,18.3233089 15.9537367,18.120208 16.9160009,17.7057653 L17.8405292,18.6288423 L18.5163221,19.4425458 C18.1200957,20.4032994 18.1113139,21.8460719 18.9037668,22.656119 C19.6962196,23.4473278 20.8848988,23.6357108 21.847163,23.2212681 L20.5641441,21.9402634 C20.2999932,21.6765271 20.2999932,21.2620844 20.5641441,20.9983482 L21.0358422,20.5273905 C21.2999932,20.2636543 21.7150875,20.2636543 21.9792385,20.5273905 L23.2622573,21.8083953 C23.6962196,20.8853183 23.5264083,19.7173435 22.7150875,18.9072964 C21.9226347,18.1160876 20.3645816,18.1025328 19.4023175,18.5169755 Z" id="路径" fill="#FFF"></path>
        </g>
    </g>
</svg>
