<?xml version="1.0" encoding="UTF-8"?>
<svg width="16px" height="16px" viewBox="0 0 16 16" version="1.1" xmlns="http://www.w3.org/2000/svg" xmlns:xlink="http://www.w3.org/1999/xlink">
    <title>错误</title>
    <g id="控件" stroke="none" stroke-width="1" fill="none" fill-rule="evenodd">
        <g id="错误" fill="#E41D1D" fill-rule="nonzero">
            <path d="M8,0 C12.418,0 16,3.582 16,8 C16,12.418 12.418,16 8,16 C3.582,16 0,12.418 0,8 C0,3.582 3.582,0 8,0 Z M11.3718592,4.62814078 C11.2199887,4.47627023 10.9842423,4.45939572 10.8137327,4.57751726 L10.8137327,4.57751726 L10.7531408,4.62814078 L8,7.382 L5.24685922,4.62814078 L5.18626732,4.57751726 C5.01575769,4.45939572 4.78001134,4.47627023 4.62814078,4.62814078 C4.45728641,4.79899516 4.45728641,5.07600484 4.62814078,5.24685922 L4.62814078,5.24685922 L7.382,8 L4.62814078,10.7531408 L4.57207919,10.8217725 C4.45995601,10.9915889 4.4786432,11.2223616 4.62814078,11.3718592 C4.78001134,11.5237298 5.01575769,11.5406043 5.18626732,11.4224827 L5.18626732,11.4224827 L5.24685922,11.3718592 L8,8.618 L10.7531408,11.3718592 L10.8137327,11.4224827 C10.9842423,11.5406043 11.2199887,11.5237298 11.3718592,11.3718592 C11.5427136,11.2010048 11.5427136,10.9239952 11.3718592,10.7531408 L11.3718592,10.7531408 L8.618,8 L11.3718592,5.24685922 L11.4279208,5.17822746 C11.540044,5.0084111 11.5213568,4.77763836 11.3718592,4.62814078 Z" id="形状结合"></path>
        </g>
    </g>
</svg>