<svg width="25" height="24" viewBox="0 0 25 24" xmlns="http://www.w3.org/2000/svg">
<path d="M20.75 22.5H4.25C4.05109 22.5 3.86032 22.421 3.71967 22.2803C3.57902 22.1397 3.5 21.9489 3.5 21.75V2.25C3.5 2.05109 3.57902 1.86032 3.71967 1.71967C3.86032 1.57902 4.05109 1.5 4.25 1.5H20.75C20.9489 1.5 21.1397 1.57902 21.2803 1.71967C21.421 1.86032 21.5 2.05109 21.5 2.25V21.75C21.5 21.9489 21.421 22.1397 21.2803 22.2803C21.1397 22.421 20.9489 22.5 20.75 22.5ZM5 21H20V3H5V21Z"/>
<path d="M16.25 4.5H17.75V7.5H16.25V4.5ZM13.25 4.5H14.75V7.5H13.25V4.5ZM10.25 4.5H11.75V7.5H10.25V4.5ZM7.25 4.5H8.75V7.5H7.25V4.5Z"/>
<path d="M17.75 19.5H7.25C7.05109 19.5 6.86032 19.421 6.71967 19.2803C6.57902 19.1397 6.5 18.9489 6.5 18.75V9.75C6.5 9.55109 6.57902 9.36032 6.71967 9.21967C6.86032 9.07902 7.05109 9 7.25 9H17.75C17.9489 9 18.1397 9.07902 18.2803 9.21967C18.421 9.36032 18.5 9.55109 18.5 9.75V18.75C18.5 18.9489 18.421 19.1397 18.2803 19.2803C18.1397 19.421 17.9489 19.5 17.75 19.5ZM8 18H17V10.5H8V18Z"/>
<path d="M11.7267 11.7891C11.8362 11.8049 11.8909 11.8829 11.8909 12.0239C11.8752 12.1649 11.8129 12.2346 11.7034 12.2346H10.9302C10.8364 12.7349 10.7194 13.1564 10.5784 13.5006H11.3284C11.5782 13.5321 11.7109 13.6491 11.7267 13.8531V16.6424C11.7267 16.8456 11.6097 16.9469 11.3749 16.9469H10.4374C10.1869 16.9469 10.0624 16.8209 10.0624 16.5719V14.6031C10.0309 14.6504 10.0227 14.6646 10.0392 14.6504C10.0128 14.7066 9.97256 14.7551 9.92217 14.7914C9.82842 14.8694 9.73467 14.8619 9.64092 14.7681C9.53142 14.6586 9.50742 14.5581 9.57042 14.4644C10.0392 13.9641 10.3204 13.2224 10.4142 12.2376H9.89817C9.75792 12.2189 9.68742 12.1409 9.68742 11.9999C9.71817 11.8589 9.80442 11.7891 9.94542 11.7891H11.7267ZM10.6722 13.9454C10.5627 13.9296 10.5079 13.9926 10.5079 14.1329V16.3364C10.4922 16.4616 10.5552 16.5156 10.6954 16.5006H11.1642C11.2579 16.5006 11.2969 16.4534 11.2812 16.3596V14.1329C11.2812 13.9919 11.2264 13.9296 11.1169 13.9454H10.6722ZM15.0312 11.7659C15.1557 11.7659 15.2262 11.8364 15.2419 11.9766C15.2262 12.1326 15.1557 12.2114 15.0312 12.2114H13.7419V12.6569H14.6562C14.9059 12.6726 15.0387 12.7979 15.0544 13.0319V14.6031C15.0387 14.8521 14.9134 14.9856 14.6794 15.0006H13.7652C13.7022 15.5009 13.5852 15.8759 13.4127 16.1256C13.7719 16.3604 14.3277 16.5239 15.0777 16.6176C15.2187 16.6491 15.2877 16.7339 15.2877 16.8756C15.2719 17.0166 15.1857 17.0864 15.0297 17.0864C14.3613 17.0351 13.7129 16.8347 13.1322 16.4999C12.8472 16.7363 12.5217 16.919 12.1714 17.0391C11.9997 17.1014 11.8744 17.0624 11.7964 16.9221C11.7334 16.7811 11.7807 16.6731 11.9374 16.5936C12.2809 16.4841 12.5472 16.3514 12.7347 16.1954C12.5779 16.0859 12.3904 15.8751 12.1722 15.5624C12.0942 15.4371 12.1017 15.3276 12.1954 15.2339C12.3364 15.1559 12.4534 15.1709 12.5472 15.2811C12.7654 15.5624 12.9297 15.7499 13.0399 15.8436C13.1809 15.5939 13.2657 15.3126 13.2979 14.9999H12.4999C12.1714 14.9999 12.0079 14.8439 12.0079 14.5311V13.0544C12.0079 12.7889 12.1557 12.6561 12.4534 12.6561H13.2972V12.2106H12.1954C12.0702 12.2106 12.0079 12.1326 12.0079 11.9759C12.0079 11.8349 12.0702 11.7651 12.1954 11.7651L15.0312 11.7659ZM12.4294 13.6409H13.2964V13.0559H12.5929C12.4677 13.0401 12.4129 13.1031 12.4287 13.2434V13.6409H12.4294ZM12.4294 14.4374C12.4137 14.5626 12.4767 14.6174 12.6169 14.6016H13.2964V14.0391H12.4294V14.4374ZM13.7419 13.6409H14.6329V13.2186C14.6487 13.0934 14.5932 13.0394 14.4687 13.0544H13.7419V13.6409ZM13.7419 14.0391V14.6016H14.4687C14.5932 14.6016 14.6479 14.5394 14.6329 14.4141V14.0391H13.7419Z"/>
</svg>
