<svg width="31" height="30" viewBox="0 0 31 30" xmlns="http://www.w3.org/2000/svg">
<path d="M27.083 16.875H4.58301C4.33437 16.875 4.09591 16.7762 3.9201 16.6004C3.74428 16.4246 3.64551 16.1861 3.64551 15.9375V2.8125C3.64551 2.56386 3.74428 2.3254 3.9201 2.14959C4.09591 1.97377 4.33437 1.875 4.58301 1.875H27.083C27.3316 1.875 27.5701 1.97377 27.7459 2.14959C27.9217 2.3254 28.0205 2.56386 28.0205 2.8125V15.9375C28.0205 16.1861 27.9217 16.4246 27.7459 16.6004C27.5701 16.7762 27.3316 16.875 27.083 16.875ZM5.52051 15H26.1455V3.75H5.52051V15ZM27.083 28.125H4.58301C4.33437 28.125 4.09591 28.0262 3.9201 27.8504C3.74428 27.6746 3.64551 27.4361 3.64551 27.1875V19.6875C3.64551 19.4389 3.74428 19.2004 3.9201 19.0246C4.09591 18.8488 4.33437 18.75 4.58301 18.75H27.083C27.3316 18.75 27.5701 18.8488 27.7459 19.0246C27.9217 19.2004 28.0205 19.4389 28.0205 19.6875V27.1875C28.0205 27.4361 27.9217 27.6746 27.7459 27.8504C27.5701 28.0262 27.3316 28.125 27.083 28.125ZM5.52051 26.25H26.1455V20.625H5.52051V26.25Z"/>
<path d="M9.27051 28.125C9.02187 28.125 8.78341 28.0262 8.6076 27.8504C8.43178 27.6746 8.33301 27.4361 8.33301 27.1875V23.9062C8.33301 23.6576 8.43178 23.4192 8.6076 23.2433C8.78341 23.0675 9.02187 22.9688 9.27051 22.9688C9.51915 22.9688 9.7576 23.0675 9.93342 23.2433C10.1092 23.4192 10.208 23.6576 10.208 23.9062V27.1875C10.208 27.4361 10.1092 27.6746 9.93342 27.8504C9.7576 28.0262 9.51915 28.125 9.27051 28.125ZM13.958 28.125C13.7094 28.125 13.4709 28.0262 13.2951 27.8504C13.1193 27.6746 13.0205 27.4361 13.0205 27.1875V23.9062C13.0205 23.6576 13.1193 23.4192 13.2951 23.2433C13.4709 23.0675 13.7094 22.9688 13.958 22.9688C14.2066 22.9688 14.4451 23.0675 14.6209 23.2433C14.7967 23.4192 14.8955 23.6576 14.8955 23.9062V27.1875C14.8955 27.4361 14.7967 27.6746 14.6209 27.8504C14.4451 28.0262 14.2066 28.125 13.958 28.125ZM18.6455 28.125C18.3969 28.125 18.1584 28.0262 17.9826 27.8504C17.8068 27.6746 17.708 27.4361 17.708 27.1875V23.9203C17.708 23.6717 17.8068 23.4332 17.9826 23.2574C18.1584 23.0816 18.3969 22.9828 18.6455 22.9828C18.8941 22.9828 19.1326 23.0816 19.3084 23.2574C19.4842 23.4332 19.583 23.6717 19.583 23.9203V27.1875C19.583 27.4361 19.4842 27.6746 19.3084 27.8504C19.1326 28.0262 18.8941 28.125 18.6455 28.125ZM23.333 28.125C23.0844 28.125 22.8459 28.0262 22.6701 27.8504C22.4943 27.6746 22.3955 27.4361 22.3955 27.1875V23.9203C22.3955 23.6717 22.4943 23.4332 22.6701 23.2574C22.8459 23.0816 23.0844 22.9828 23.333 22.9828C23.5816 22.9828 23.8201 23.0816 23.9959 23.2574C24.1717 23.4332 24.2705 23.6717 24.2705 23.9203V27.1875C24.2705 27.4361 24.1717 27.6746 23.9959 27.8504C23.8201 28.0262 23.5816 28.125 23.333 28.125Z"/>
<path d="M9.27051 7.5H14.8955V11.25H9.27051V7.5Z"/>
</svg>
