<svg width="25" height="24" viewBox="0 0 25 24" xmlns="http://www.w3.org/2000/svg">
<path d="M18.5002 22.5H6.50018C6.30127 22.5 6.1105 22.421 5.96985 22.2803C5.8292 22.1397 5.75018 21.9489 5.75018 21.75V2.25C5.75018 2.05109 5.8292 1.86032 5.96985 1.71967C6.1105 1.57902 6.30127 1.5 6.50018 1.5H18.5002C18.6991 1.5 18.8899 1.57902 19.0305 1.71967C19.1712 1.86032 19.2502 2.05109 19.2502 2.25V21.75C19.2502 21.9489 19.1712 22.1397 19.0305 22.2803C18.8899 22.421 18.6991 22.5 18.5002 22.5ZM7.25018 21H17.7502V3H7.25018V21ZM3.00293 4.536H4.50293V19.464H3.00293V4.536Z"/>
<path d="M8.88184 10.3261H16.0803V11.7331H8.88184V10.3261ZM8.88184 5.91162H16.0803V7.33212H8.88184V5.91162Z"/>
<path d="M11 17.25C11 17.6478 11.158 18.0294 11.4393 18.3107C11.7206 18.592 12.1022 18.75 12.5 18.75C12.8978 18.75 13.2794 18.592 13.5607 18.3107C13.842 18.0294 14 17.6478 14 17.25C14 16.8522 13.842 16.4706 13.5607 16.1893C13.2794 15.908 12.8978 15.75 12.5 15.75C12.1022 15.75 11.7206 15.908 11.4393 16.1893C11.158 16.4706 11 16.8522 11 17.25Z"/>
<path d="M20.4971 4.53613H21.9971V19.4641H20.4971V4.53613Z"/>
</svg>
