<svg width="25" height="24" viewBox="0 0 25 24" xmlns="http://www.w3.org/2000/svg">
<path d="M23.3008 14.7197H17.9808C17.6208 14.7197 17.3008 14.9597 17.2208 15.2797L16.3408 18.1197H8.66078L7.78078 15.2797C7.66078 14.9597 7.38078 14.7197 7.02078 14.7197H1.70078C1.46078 14.7197 1.30078 14.8797 1.30078 15.1197V21.3197C1.30078 22.1997 2.02078 22.9197 2.90078 22.9197H22.1008C22.9808 22.9197 23.7008 22.1997 23.7008 21.3197V15.1197C23.7008 14.9197 23.5408 14.7197 23.3008 14.7197Z"/>
<path d="M23.7002 14.8801L21.0202 2.00008C20.9002 1.48008 20.4202 1.08008 19.9002 1.08008H5.14016C4.58016 1.08008 4.10016 1.48008 4.02016 2.00008L1.30016 14.8801C1.26016 15.0801 1.30016 15.2801 1.42016 15.4801C1.54016 15.6401 1.70016 15.7601 1.90016 15.8001H2.06016C2.22016 15.8001 2.34016 15.7601 2.50016 15.6801C2.66016 15.5601 2.78016 15.4001 2.82016 15.2001L5.42016 2.64008H19.5402L22.1802 15.2001C22.2602 15.6001 22.7002 15.8801 23.1002 15.8001C23.3002 15.7601 23.4602 15.6401 23.5802 15.4801C23.7002 15.2801 23.7402 15.0801 23.7002 14.8801Z"/>
<path d="M15.26 9.00047L13.3 10.9605V6.24047C13.3 5.80047 12.94 5.48047 12.54 5.48047C12.1 5.48047 11.78 5.84047 11.78 6.24047V10.9605L9.82 9.00047C9.5 8.68047 9.02 8.68047 8.74 9.00047C8.42 9.32047 8.42 9.80047 8.74 10.0805L12.02 13.3605C12.1 13.4405 12.18 13.4805 12.26 13.5205C12.3 13.5205 12.34 13.5605 12.38 13.5605H12.78C12.82 13.5605 12.86 13.5205 12.9 13.5205C12.98 13.4805 13.06 13.4405 13.14 13.3605L16.42 10.0805C16.74 9.76047 16.74 9.28047 16.42 9.00047C16.02 8.68047 15.54 8.68047 15.26 9.00047Z"/>
</svg>
