<svg width="18" height="18" viewBox="0 0 18 18" fill="none" xmlns="http://www.w3.org/2000/svg">
<path d="M9 1.125C11.2268 1.1835 13.0813 1.95394 14.5637 3.43631C16.0461 4.91869 16.8165 6.77325 16.875 9C16.8165 11.2268 16.0461 13.0813 14.5637 14.5637C13.0813 16.0461 11.2268 16.8165 9 16.875C6.77325 16.8165 4.91869 16.0461 3.43631 14.5637C1.95394 13.0813 1.1835 11.2268 1.125 9C1.1835 6.77325 1.95394 4.91869 3.43631 3.43631C4.91869 1.95394 6.77325 1.1835 9 1.125ZM10.1779 5.95913C10.4827 5.95913 10.7347 5.86837 10.9339 5.68687C11.133 5.50537 11.2326 5.26219 11.2326 4.95731C11.2326 4.65244 11.133 4.40925 10.9339 4.22775C10.7347 4.04625 10.4858 3.9555 10.1869 3.9555C9.888 3.9555 9.639 4.04625 9.43987 4.22775C9.24075 4.40925 9.14119 4.65244 9.14119 4.95731C9.14119 5.26219 9.24075 5.50537 9.43987 5.68687C9.639 5.86837 9.88519 5.95913 10.1784 5.95913H10.1779ZM10.3888 12.2872C10.3888 12.2168 10.3946 12.123 10.4062 12.006C10.4179 11.889 10.4179 11.7776 10.4062 11.6719L9.47475 12.744C9.381 12.8494 9.28425 12.9315 9.1845 12.9904C9.08475 13.0492 8.99981 13.0669 8.92969 13.0433C8.82431 12.9964 8.77744 12.9143 8.78906 12.7969L10.3359 7.92788C10.3944 7.59975 10.3418 7.3185 10.1779 7.08413C10.014 6.84975 9.75037 6.70913 9.387 6.66225C8.97675 6.67387 8.52844 6.84675 8.04206 7.18087C7.55569 7.515 7.13081 7.93987 6.76744 8.4555V8.71931C6.75581 8.83669 6.75581 8.94806 6.76744 9.05344L7.69894 7.98131C7.79269 7.87594 7.88944 7.79381 7.98919 7.73494C8.08894 7.67606 8.16806 7.65844 8.22656 7.68206C8.34394 7.74056 8.385 7.83431 8.34975 7.96331L6.82031 12.8149C6.73819 13.1077 6.77925 13.3686 6.9435 13.5973C7.10775 13.8261 7.39481 13.9813 7.80469 14.0631C8.39081 14.0514 8.883 13.8816 9.28125 13.5534C9.6795 13.2253 10.0487 12.8034 10.3888 12.2878V12.2872Z" fill="#165DFF"/>
</svg>
