<?xml version="1.0" standalone="no"?><!DOCTYPE svg PUBLIC "-//W3C//DTD SVG 1.1//EN" "http://www.w3.org/Graphics/SVG/1.1/DTD/svg11.dtd"><svg t="1659077382374" class="icon" viewBox="0 0 1024 1024" version="1.1" xmlns="http://www.w3.org/2000/svg" p-id="13110" xmlns:xlink="http://www.w3.org/1999/xlink" width="200" height="200"><defs><style type="text/css">@font-face { font-family: feedback-iconfont; src: url("//at.alicdn.com/t/font_1031158_u69w8yhxdu.woff2?t=1630033759944") format("woff2"), url("//at.alicdn.com/t/font_1031158_u69w8yhxdu.woff?t=1630033759944") format("woff"), url("//at.alicdn.com/t/font_1031158_u69w8yhxdu.ttf?t=1630033759944") format("truetype"); }
</style></defs><path d="M512.260431 5.116531C231.865323 5.116531 4.636089 232.376465 4.636089 512.740874c0 280.33371 227.229235 507.624343 507.624343 507.624343 280.396131 0 507.625366-227.291656 507.624343-507.624343C1019.885797 232.376465 792.656563 5.116531 512.260431 5.116531zM691.775968 647.330198c12.393261 12.393261 12.393261 32.502251 0 44.893466-12.391215 12.393261-32.531927 12.393261-44.923142 0L512.446673 557.790906l-135.333268 135.332245c-12.516058 12.485359-32.718169 12.485359-45.235251 0-12.516058-12.485359-12.516058-32.718169 0-45.205575L467.211423 512.555655 332.745918 378.119827c-12.393261-12.362562-12.393261-32.469506 0-44.833091 12.392238-12.393261 32.531927-12.393261 44.86379 0l134.465504 134.404106 136.325875-136.324852c12.516058-12.486382 32.718169-12.486382 45.234227 0 12.516058 12.486382 12.516058 32.718169 0 45.203528l-136.324852 136.355551L691.775968 647.330198z" p-id="13111" fill="#ff8a52"></path></svg>