<svg width="18.000000" height="18.000000" viewBox="0 0 18 18" xmlns="http://www.w3.org/2000/svg" xmlns:xlink="http://www.w3.org/1999/xlink">
	<desc>
			Created with Pixso.
	</desc>
	<g clip-path="url(#clip380_241)">
		<path d="M16.8779 14.1913L18.0503 15.3572L17.3525 16.0499L16.1763 14.8801C15.832 15.103 15.4556 15.2323 15.0464 15.2679C14.6372 15.3037 14.2441 15.2416 13.8662 15.0817C13.4883 14.9218 13.1704 14.6829 12.9131 14.3649C12.6553 14.047 12.4878 13.6875 12.4111 13.2864C12.3345 12.8854 12.3569 12.4899 12.479 12.1C12.6011 11.7102 12.8081 11.3718 13.1001 11.085C13.3926 10.7981 13.7354 10.5964 14.1289 10.4801C14.5225 10.3638 14.9204 10.3463 15.3228 10.4279C15.7251 10.5094 16.0845 10.6802 16.4009 10.9404C16.7178 11.2007 16.9536 11.5195 17.1099 11.8972C17.2656 12.2749 17.3232 12.6669 17.2822 13.0731C17.2412 13.4794 17.1064 13.8521 16.8779 14.1913ZM14.8311 5.96899L2.021 5.96899L2.021 13.8073L11.875 13.8073L11.875 15.7667L0.050293 15.7667L0.050293 2.04993L16.8018 2.04993L16.8018 9.88818L14.8311 9.88818L14.8311 5.96899ZM3.9917 7.92859L12.8604 7.92859L12.8604 8.90833L3.9917 8.90833L3.9917 7.92859ZM3.9917 10.8679L9.9043 10.8679L9.9043 11.8477L3.9917 11.8477L3.9917 10.8679ZM14.8311 14.2971C15.2393 14.2971 15.5874 14.1536 15.876 13.8667C16.165 13.5797 16.3091 13.2333 16.3091 12.8274C16.3091 12.4216 16.165 12.0752 15.876 11.7882C15.5874 11.5012 15.2393 11.3578 14.8311 11.3578C14.4229 11.3578 14.0747 11.5012 13.7856 11.7882C13.4971 12.0752 13.353 12.4216 13.353 12.8274C13.353 13.2333 13.4971 13.5797 13.7856 13.8667C14.0747 14.1536 14.4229 14.2971 14.8311 14.2971ZM2.021 4.00952L2.021 4.98926L5.9624 4.98926L5.9624 4.00952L2.021 4.00952Z" fill-rule="evenodd"/>
	</g>
	<defs>
		<clipPath id="clip380_241">
			<rect width="18.000000" height="18.000000" fill="white"/>
		</clipPath>
	</defs>
</svg>
