<svg width="18.000000" height="18.000000" viewBox="0 0 18 18" xmlns="http://www.w3.org/2000/svg" xmlns:xlink="http://www.w3.org/1999/xlink">
	<desc>
			Created with Pixso.
	</desc>
	<g clip-path="url(#clip380_294)">
		<path d="M13.4268 6.01904L14.5254 6.01904L14.5254 7.85754L17.3301 4.62402L14.5264 1.45996L14.5264 3.55908L13.4277 3.55908C10.2827 3.55908 8.23145 5.96472 6.66455 8.08722C5.2583 9.99506 4.04102 11.795 2.0791 11.795L0.330078 11.795L0.330078 14.256L2.07812 14.256C5.22314 14.256 6.99805 11.6986 8.56592 9.57599C9.97217 7.66718 11.4604 6.01904 13.4268 6.01904ZM4.9043 7.42627L5.31104 6.87872C5.64551 6.42786 5.99512 5.94971 6.37549 5.47528C5.24902 4.3905 3.89258 3.5899 2.07812 3.5899L0.330078 3.5899L0.330078 6.04999C0.330078 6.04999 0.80127 6.02649 2.07812 6.04999C3.31445 6.07715 4.08984 6.59845 4.9043 7.42627ZM14.5264 11.8896L13.4277 11.8896C12.23 11.8896 11.0347 11.2006 10.1777 10.2866C10.0933 10.4042 10.0068 10.5208 9.91895 10.6363C9.54297 11.1453 9.14014 11.6937 8.69531 12.2338C9.85107 13.3962 11.5264 14.3497 13.4277 14.3497L14.5264 14.3497L14.5264 16.46L17.3301 13.2209L14.5264 10.0626L14.5264 11.8896Z" fill-rule="evenodd"/>
	</g>
	<defs>
		<clipPath id="clip380_294">
			<rect width="18.000000" height="18.000000" fill="white"/>
		</clipPath>
	</defs>
</svg>
