<?xml version="1.0" encoding="UTF-8"?>
<svg width="16px" height="16px" viewBox="0 0 16 16" version="1.1" xmlns="http://www.w3.org/2000/svg" xmlns:xlink="http://www.w3.org/1999/xlink">
    <title>集群运维</title>
    <g id="控件" stroke="none" stroke-width="1" fill="none" fill-rule="evenodd">
        <g id="集群运维" fill="#4E5969" fill-rule="nonzero">
            <g id="编组" transform="translate(1.600000, 1.000000)">
                <path d="M6.48040381,9.70206511 C6.41461909,9.70206511 6.34898665,9.68500981 6.29005451,9.6510515 L4.03129359,8.34693038 C3.91354708,8.27888781 3.84100109,8.15323815 3.84094429,8.0172454 L3.84094429,5.40915545 C3.84094429,5.27316991 3.91358158,5.14753937 4.03129359,5.07947046 L4.54295251,4.78404835 C4.72507871,4.67897554 4.95791398,4.74125783 5.06298679,4.92338404 C5.1680596,5.10551024 5.10577731,5.33834551 4.9236511,5.44341832 L4.60234149,5.62889468 L4.60234149,7.79750617 L6.48040381,8.88173577 L8.35846613,7.79750617 L8.35846613,5.62889468 L8.00883254,5.42697214 C7.82670633,5.32189933 7.76442404,5.08906406 7.86949685,4.90693786 C7.97456966,4.72481165 8.20740493,4.66252936 8.38953114,4.76760217 L8.92951403,5.07931818 C9.04730879,5.14731251 9.11986333,5.27299275 9.11986333,5.40900317 L9.11986333,8.0172454 C9.11986333,8.15323094 9.04737831,8.27886147 8.92951403,8.34693038 L6.67075311,9.6510515 C6.6128775,9.68446082 6.54723021,9.70206511 6.48040381,9.70206511 L6.48040381,9.70206511 Z" id="路径"></path>
                <path d="M6.45207983,14 C6.38629512,14 6.32066268,13.9829447 6.26173053,13.9489864 L3.74851067,12.4979156 C3.63076416,12.429873 3.55816137,12.3042234 3.55816137,12.1682306 L3.55816137,9.26608908 C3.55816137,9.13010354 3.63079867,9.004473 3.74851067,8.93640409 L4.94314287,8.24673051 C5.12526908,8.1416577 5.35810434,8.20393999 5.46317716,8.3860662 C5.56824997,8.56819241 5.50596768,8.80102767 5.32384147,8.90610048 L4.31955857,9.48598059 L4.31955857,11.9484914 L6.45207983,13.1796707 L8.5846011,11.9484914 L8.5846011,9.48598059 L7.59798261,8.91630321 C7.4158564,8.81123039 7.35357411,8.57839513 7.45864692,8.39626892 C7.56371974,8.21414271 7.796555,8.15186042 7.97868121,8.25693324 L9.15564899,8.93640409 C9.27344376,9.00439842 9.34599829,9.13007866 9.34599829,9.26608908 L9.34599829,12.1682306 C9.34599829,12.3042162 9.27351328,12.4298467 9.15564899,12.4979156 L6.64242913,13.9489864 C6.58455353,13.9823957 6.51890624,14 6.45207983,14 L6.45207983,14 Z" id="路径"></path>
                <path d="M2.94188648,12.0560008 C2.87610177,12.0560008 2.81046933,12.0389454 2.75153718,12.0049871 L0.220805187,10.5438659 C0.10305868,10.4758233 0.0304558878,10.3501736 0.0304558878,10.2141809 L0.0304558878,7.29193843 C0.0304558878,7.08164052 0.20085658,6.91123983 0.411154485,6.91123983 C0.621452391,6.91123983 0.791853083,7.08164052 0.791853083,7.29193843 L0.791853083,9.99444164 L2.94188648,11.2358236 L5.09191988,9.99444164 L5.09191988,8.77224686 C5.09191988,8.56194895 5.26232058,8.39154826 5.47261848,8.39154826 C5.68291639,8.39154826 5.85331708,8.56194895 5.85331708,8.77224686 L5.85331708,10.2141809 C5.85331708,10.3501664 5.78083207,10.4757969 5.66296778,10.5438659 L3.13223578,12.0049871 C3.07438849,12.0384647 3.00872252,12.0560632 2.94188648,12.0560008 L2.94188648,12.0560008 Z M9.92542156,12.0560008 C9.85963684,12.0560008 9.7940044,12.0389454 9.73507226,12.0049871 L7.20434026,10.5438659 C7.0865455,10.4758715 7.01399096,10.3501913 7.01399096,10.2141809 L7.01399096,8.7934137 C7.01399096,8.58311579 7.18439166,8.4127151 7.39468956,8.4127151 C7.60498747,8.4127151 7.77538816,8.58311579 7.77538816,8.7934137 L7.77538816,9.99428936 L9.92542156,11.2356713 L12.075455,9.99428936 L12.075455,7.29193843 C12.075455,7.08164052 12.2458557,6.91123983 12.4561536,6.91123983 C12.6664515,6.91123983 12.8368522,7.08164052 12.8368522,7.29193843 L12.8368522,10.2141809 C12.8368522,10.3501664 12.7643671,10.4757969 12.6465029,10.5438659 L10.1157709,12.0049871 C10.057916,12.0384466 9.99225504,12.0560008 9.92542156,12.0560008 L9.92542156,12.0560008 Z" id="形状"></path>
                <path d="M10.1955653,7.7847147 C10.1297806,7.7847147 10.0641481,7.7676594 10.005216,7.73370108 L8.54805403,6.89235718 C8.36592782,6.78728437 8.30364553,6.55444911 8.40871835,6.3723229 C8.51379116,6.19019669 8.74662642,6.1279144 8.92875263,6.23298721 L10.1955653,6.96438536 L12.075455,5.87908979 L12.075455,3.70834639 L10.1955653,2.62305083 L8.28643796,3.72524941 C8.22902861,3.86275774 8.09334763,3.95960747 7.93497701,3.95960747 C7.7246791,3.95960747 7.55427841,3.78920677 7.55427841,3.57890887 L7.55427841,3.48860716 C7.55427841,3.35262162 7.62676343,3.22699108 7.74462771,3.15892217 L10.005216,1.8537351 C10.1229877,1.78566697 10.2681429,1.78566697 10.3859146,1.8537351 L12.6465029,3.15892217 C12.7642976,3.2269165 12.8368522,3.35259674 12.8368522,3.48860716 L12.8368522,6.09882903 C12.8368522,6.23481456 12.7643671,6.3604451 12.6465029,6.42851401 L10.3859146,7.73370108 C10.328039,7.76711041 10.2623917,7.7847147 10.1955653,7.7847147 L10.1955653,7.7847147 Z M2.64128687,7.7847147 C2.57550215,7.7847147 2.50986971,7.7676594 2.45093757,7.73370108 L0.190349299,6.42851401 C0.072602792,6.36047143 5.68013816e-05,6.23482178 0,6.09882903 L0,3.48860716 C0,3.35262162 0.0726372924,3.22699108 0.190349299,3.15892217 L2.45093757,1.8537351 C2.56870927,1.78566697 2.71386447,1.78566697 2.83163617,1.8537351 L5.09222444,3.15892217 C5.2100192,3.2269165 5.28257374,3.35259674 5.28257374,3.48860716 L5.28257374,3.61545593 C5.28257374,3.82575384 5.11217305,3.99615453 4.90187514,3.99615453 C4.72644923,3.99615453 4.57889045,3.87752885 4.53472942,3.71626492 L2.64143915,2.62320311 L0.761549475,3.70849867 L0.761549475,5.87924207 L2.64143915,6.96453764 L4.00129454,6.17938485 C4.18342075,6.07431204 4.41625601,6.13659433 4.52132882,6.31872054 C4.62640164,6.50084674 4.56411935,6.73368201 4.38199314,6.83875482 L2.83178845,7.73370108 C2.77385048,7.76709359 2.70815889,7.7847147 2.64128687,7.7847147 Z M4.19149156,2.35245027 C3.98119365,2.35245027 3.81079296,2.18204957 3.81079296,1.97175167 L3.81079296,1.68592316 C3.81079296,1.54993762 3.88343025,1.42430708 4.00114226,1.35623818 L6.26173053,0.0510511033 C6.37950223,-0.0170170344 6.52465743,-0.0170170344 6.64242913,0.0510511033 L8.9030174,1.35623818 C9.02081217,1.4242325 9.0933667,1.54991274 9.0933667,1.68592316 L9.0933667,1.95987387 C9.0933667,2.17017178 8.92296601,2.34057247 8.71266811,2.34057247 C8.5023702,2.34057247 8.33196951,2.17017178 8.33196951,1.95987387 L8.33196951,1.90581467 L6.45207983,0.820519109 L4.57219016,1.90581467 L4.57219016,1.97190395 C4.57219016,2.18204957 4.40178947,2.35245027 4.19149156,2.35245027 Z" id="形状"></path>
                <path d="M6.45497314,6.38846459 C6.39467048,6.38846459 6.33436783,6.37415025 6.27939495,6.34552172 L3.23289249,4.76151099 C3.1079089,4.69658451 3.02900085,4.56794155 3.02775652,4.42710534 C3.02650105,4.28628393 3.10313138,4.15628188 3.22695359,4.08919727 L6.26279649,2.44290425 C6.37579865,2.3815936 6.51211651,2.38147905 6.62522155,2.44259969 L9.67157173,4.08889271 C9.79549273,4.15586002 9.87229348,4.28579447 9.87122139,4.42664851 C9.87014412,4.56750699 9.79156793,4.69618311 9.66669879,4.76135871 L6.63100817,6.34536944 C6.57666262,6.37371726 6.51626781,6.38846459 6.45497314,6.38846459 L6.45497314,6.38846459 Z M4.22012009,4.41675034 L6.4545163,5.57849018 L8.67901435,4.4178163 L6.44461814,3.21039263 L4.22012009,4.41675034 Z" id="形状"></path>
            </g>
        </g>
    </g>
</svg>