<?xml version="1.0" encoding="UTF-8"?>
<svg width="64px" height="64px" viewBox="0 0 64 64" version="1.1" xmlns="http://www.w3.org/2000/svg" xmlns:xlink="http://www.w3.org/1999/xlink">
    <title>实例</title>
    <g id="控件" stroke="none" stroke-width="1" fill="none" fill-rule="evenodd">
        <g id="实例" stroke="#4E5969" stroke-width="1.2">
            <path d="M28,53 L28,32 C28,30.3431458 29.3431458,29 31,29 L59,29 C60.6568542,29 62,30.3431458 62,32 L62,53 L62,53" id="路径"></path>
            <path d="M26.6,52.6 L63.4,52.6 L63.4,56 C63.4,56.6627417 63.1313708,57.2627417 62.6970563,57.6970563 C62.2627417,58.1313708 61.6627417,58.4 61,58.4 L61,58.4 L29,58.4 C28.3372583,58.4 27.7372583,58.1313708 27.3029437,57.6970563 C26.8686292,57.2627417 26.6,56.6627417 26.6,56 L26.6,56 L26.6,52.6 Z" id="矩形备份-64"></path>
            <g id="编组" transform="translate(2.000000, 2.000000)" stroke-linecap="round" stroke-linejoin="round">
                <ellipse id="椭圆形" cx="12.3860439" cy="5.99045365" rx="12" ry="5.99045365"></ellipse>
                <path d="M24.3860439,13.2126383 C24.3860439,16.5223639 19.0527106,19.203092 12.3860439,19.203092 C5.71937723,19.203092 0.386043894,16.5223639 0.386043894,13.2126383" id="路径"></path>
                <path d="M24.3860439,21.6110923 C24.3860439,24.920818 19.0527106,27.601546 12.3860439,27.601546 C5.71937723,27.601546 0.386043894,24.920818 0.386043894,21.6110923" id="路径备份-9"></path>
                <path d="M24.3860439,28.0095464 C24.3860439,31.319272 19.0527106,34 12.3860439,34 C5.71937723,34 0.386043894,31.319272 0.386043894,28.0095464" id="路径备份-10"></path>
                <line x1="0.386043894" y1="5.99045365" x2="0.386043894" y2="28.9904536" id="路径"></line>
                <line x1="24.55" y1="5.99045365" x2="24.36" y2="28.3170316" id="路径"></line>
            </g>
            <polyline id="路径" stroke-linecap="round" stroke-linejoin="round" transform="translate(14.616541, 50.171033) scale(-1, 1) translate(-14.616541, -50.171033) " points="22.9077248 41.2444353 22.9077248 55.8869687 11.9343723 55.8869687 11.9343723 59.0976303 6.32535814 53.5488152 11.711158 48 11.711158 50.7383134 17.8807365 50.7383134 17.8807365 41.2444353"></polyline>
            <path d="M37.9847836,49 L36,49 C34.3431458,49 33,47.6568542 33,46 L33,45.0245389 M52,49 L53.9847836,49 C55.6416378,49 56.9847836,47.6568542 56.9847836,46 L56.9847836,45.0245389 M52,34.0245389 L53.9847836,34.0245389 C55.6416378,34.0245389 56.9847836,35.3676846 56.9847836,37.0245389 L56.9847836,38 M37.9847836,34.0245389 L36,34.0245389 C34.3431458,34.0245389 33,35.3676846 33,37.0245389 L33,38" id="形状"></path>
            <circle id="椭圆形" cx="31.875" cy="4.875" r="3.275"></circle>
            <circle id="椭圆形备份-66" cx="36.5625" cy="23.625" r="3.275"></circle>
            <circle id="椭圆形备份-69" cx="41.5625" cy="12.625" r="3.275"></circle>
            <circle id="椭圆形备份-67" cx="44.75" cy="42.125" r="3.275"></circle>
            <circle id="椭圆形备份-68" cx="54.75" cy="10.125" r="3.275"></circle>
            <line x1="34.7558823" y1="6.87434199" x2="38.9375035" y2="10.3601127" id="直线-6" stroke-linecap="square"></line>
            <line x1="37.9847836" y1="20.5675856" x2="39.8902233" y2="16.5" id="直线-6备份" stroke-linecap="square"></line>
            <line x1="37.9847836" y1="26.6063192" x2="43.614537" y2="38" id="直线-6备份-2" stroke-linecap="square"></line>
            <line x1="53.9419524" y1="13.9809073" x2="46.1105328" y2="39" id="直线-6备份-3" stroke-linecap="square"></line>
        </g>
    </g>
</svg>