<svg width="175" height="233" viewBox="0 0 175 233" fill="none" xmlns="http://www.w3.org/2000/svg">
<g filter="url(#filter0_d_2599_28333)">
<rect x="10" y="7" width="150" height="215" fill="white"/>
</g>
<path d="M51.864 183.208C50.2 183.208 48.776 182.536 47.752 181.464L48.632 180.456C49.48 181.336 50.664 181.912 51.88 181.912C53.416 181.912 54.344 181.144 54.344 179.992C54.344 178.792 53.496 178.408 52.392 177.912L50.696 177.176C49.608 176.712 48.312 175.88 48.312 174.168C48.312 172.36 49.88 171.048 52.008 171.048C53.4 171.048 54.632 171.64 55.464 172.504L54.68 173.448C53.96 172.776 53.096 172.344 52.008 172.344C50.68 172.344 49.816 173.016 49.816 174.072C49.816 175.208 50.84 175.64 51.752 176.024L53.432 176.744C54.792 177.336 55.848 178.136 55.848 179.88C55.848 181.736 54.312 183.208 51.864 183.208ZM58.9949 177.096C58.9949 180.088 60.3709 181.992 62.4829 181.992C64.5789 181.992 65.9709 180.088 65.9709 177.096C65.9709 174.152 64.5789 172.344 62.4829 172.344C60.3709 172.344 58.9949 174.152 58.9949 177.096ZM67.4589 184.536L67.7469 185.688C67.3949 185.816 66.7709 185.944 66.0669 185.944C63.9069 185.944 62.4189 184.776 61.7629 183.16C59.2029 182.808 57.4749 180.536 57.4749 177.096C57.4749 173.336 59.5389 171.048 62.4829 171.048C65.4269 171.048 67.4909 173.336 67.4909 177.096C67.4909 180.472 65.8269 182.712 63.3469 183.144C63.8749 184.184 64.9469 184.712 66.2269 184.712C66.7549 184.712 67.1549 184.632 67.4589 184.536ZM70.0219 183V171.272H71.5099V181.736H76.6299V183H70.0219ZM82.4058 172.12L81.5898 172.984C81.1098 172.344 80.0858 171.352 79.2378 170.664L79.9898 169.912C80.8538 170.568 81.8938 171.496 82.4058 172.12ZM81.4618 181.384L83.2698 180.136C83.3338 180.472 83.5098 180.92 83.6218 181.16C80.8218 183.16 80.3898 183.464 80.1498 183.784C79.9898 183.56 79.6218 183.16 79.3978 182.984C79.7178 182.712 80.2938 182.104 80.2938 181.272V175.752H77.8938V174.616H81.4618V181.384ZM90.8378 178.568L91.8938 179.016C90.4378 181.624 87.6538 183.304 84.1338 184.232C83.9738 183.928 83.6698 183.496 83.4138 183.208C86.7898 182.456 89.5098 180.92 90.8378 178.568ZM87.6858 174.088L88.6298 174.488C87.6058 175.752 85.9898 176.936 84.5658 177.688C84.3738 177.432 84.0858 177.08 83.7978 176.872C85.1737 176.248 86.7898 175.16 87.6858 174.088ZM89.1578 176.28L90.1498 176.728C88.9338 178.472 86.8858 179.992 84.8218 180.904C84.6458 180.632 84.3258 180.264 84.0698 180.04C86.0378 179.256 88.0858 177.832 89.1578 176.28ZM87.3178 169.592L88.4058 169.928C88.3098 170.136 88.1978 170.328 88.1178 170.52C89.2058 172.056 91.0938 173.624 92.7258 174.424C92.4378 174.648 92.0538 175.096 91.8778 175.384C90.4058 174.552 88.7258 173.048 87.5258 171.48C86.4538 173.096 84.9658 174.488 83.2058 175.512C83.0298 175.288 82.6458 174.872 82.4058 174.68C84.6138 173.464 86.4218 171.576 87.3178 169.592ZM100.534 170.664L101.494 170.968C101.094 171.912 100.646 173.048 100.262 173.768L99.5578 173.512C99.8938 172.744 100.326 171.512 100.534 170.664ZM97.6858 173.464L96.8538 173.752C96.7898 172.984 96.5178 171.848 96.1658 170.968L96.9338 170.696C97.3018 171.576 97.6058 172.712 97.6858 173.464ZM98.2458 181.064V177.032C97.6698 178.248 96.9338 179.432 96.1818 180.152C96.0698 179.864 95.8458 179.448 95.6698 179.176C96.5658 178.36 97.5418 176.84 98.1018 175.432H95.9578V174.408H98.2458V169.656H99.2538V174.408H101.574V175.432H99.2538V175.624C99.7178 176.088 101.142 177.736 101.462 178.152L100.774 178.984C100.502 178.504 99.8138 177.544 99.2538 176.808V181.064H98.2458ZM101.158 181.544V182.6H94.4858V170.184H95.5418V181.544H101.158ZM108.422 174.952V176.072H106.742V184.248H105.622V176.072H103.302V176.28C103.302 179.128 103.11 181.848 101.83 184.312C101.638 184.072 101.222 183.784 100.934 183.592C102.038 181.32 102.182 178.744 102.182 176.28V171.208C104.038 170.808 106.182 170.2 107.366 169.576L108.342 170.472C107.014 171.096 105.078 171.608 103.302 171.992V174.952H108.422Z" fill="#1D2129"/>
<path d="M54.92 38.44L54.088 39.256C53.624 38.856 52.44 38.008 51.64 37.464C51.096 38.376 50.136 39.272 48.456 40.04C48.312 39.784 47.976 39.4 47.704 39.224C49.736 38.424 50.584 37.368 50.92 36.392H47.848V35.416H51.128C51.16 35.208 51.16 35.032 51.16 34.84V33.912H49.816C49.512 34.456 49.16 34.952 48.808 35.336C48.584 35.176 48.12 34.888 47.848 34.76C48.664 33.976 49.288 32.776 49.656 31.576L50.728 31.784C50.616 32.184 50.456 32.568 50.296 32.952H54.648V33.912H52.296V34.84C52.296 35.032 52.296 35.208 52.264 35.416H55.048V36.392H52.088C52.072 36.488 52.04 36.568 52.008 36.664C52.632 37 54.472 38.12 54.92 38.44ZM58.728 40.648H51.336V42.152H58.728V40.648ZM51.336 44.664H58.728V43.08H51.336V44.664ZM50.168 46.232V39.672H59.928V46.2H58.728V45.64H51.336V46.232H50.168ZM60.12 37.368V33.976H56.824V37.368H60.12ZM55.704 32.904H61.288V38.456H55.704V32.904ZM76.456 38.6H73.704C72.2 38.6 71.816 38.232 71.816 36.936V31.656H72.968V34.328C74.328 33.88 75.768 33.288 76.68 32.824L77.48 33.688C76.216 34.28 74.504 34.84 72.968 35.304V36.92C72.968 37.416 73.096 37.528 73.816 37.528H76.36C76.968 37.528 77.08 37.256 77.16 35.672C77.4 35.88 77.88 36.056 78.216 36.136C78.072 38.056 77.72 38.6 76.456 38.6ZM65.768 42.04H69.144V40.584H65.768V42.04ZM69.144 38.28H65.768V39.64H69.144V38.28ZM70.312 37.272V44.856C70.312 45.464 70.2 45.784 69.752 45.976C69.32 46.168 68.632 46.184 67.624 46.184C67.56 45.864 67.4 45.4 67.24 45.096C67.992 45.128 68.664 45.112 68.872 45.096C69.096 45.096 69.144 45.048 69.144 44.84V42.968H65.768V46.216H64.664V37.272H70.312ZM68.008 32.968L68.984 32.568C69.8 33.64 70.696 35.08 71.032 36.024L69.992 36.488C69.896 36.232 69.784 35.96 69.64 35.64C65.272 35.96 64.728 36.04 64.376 36.168C64.312 35.928 64.136 35.336 63.992 35.048C64.232 34.984 64.456 34.76 64.728 34.424C65 34.088 65.88 32.824 66.392 31.576L67.608 31.96C67.064 33.016 66.344 34.104 65.656 34.952L69.16 34.744C68.808 34.12 68.392 33.496 68.008 32.968ZM73.864 45.032H76.44C77.096 45.032 77.224 44.712 77.304 42.936C77.56 43.112 78.024 43.304 78.36 43.368C78.216 45.528 77.864 46.088 76.536 46.088H73.752C72.216 46.088 71.816 45.72 71.816 44.408V39.048H72.984V41.56C74.424 41.096 75.976 40.488 76.872 39.896L77.656 40.776C76.44 41.496 74.6 42.104 72.984 42.552V44.408C72.984 44.936 73.128 45.032 73.864 45.032ZM93.096 32.616V33.736H85.096V32.616H93.096ZM85.032 43.048V43C85.016 43.016 85.016 43.048 85.016 43.048C84.952 42.808 84.744 42.2 84.6 41.864C84.888 41.8 85.144 41.464 85.464 40.952C85.784 40.52 86.648 38.968 87.288 37.368H84.04V36.248H94.216V37.368H88.696C88.04 38.872 87.192 40.424 86.344 41.64L91.592 41.24C91.08 40.328 90.504 39.368 89.976 38.552L90.952 38.104C91.944 39.656 93.224 41.72 93.832 42.92L92.792 43.48C92.632 43.128 92.408 42.712 92.152 42.264C86.2 42.792 85.512 42.856 85.032 43.048ZM83.768 34.52L82.952 35.368C82.328 34.808 81.064 33.896 80.136 33.224L80.92 32.488C81.832 33.096 83.128 33.976 83.768 34.52ZM83.064 37.176V43.288C83.416 43.448 83.768 43.784 84.392 44.152C85.464 44.824 86.808 44.936 88.568 44.936C90.376 44.936 92.776 44.808 94.424 44.616C94.264 44.968 94.072 45.56 94.04 45.928C92.968 45.992 90.264 46.088 88.536 46.088C86.584 46.088 85.256 45.896 84.136 45.208C83.496 44.808 82.952 44.296 82.584 44.296C82.056 44.296 81.256 45.24 80.472 46.296L79.656 45.192C80.44 44.344 81.224 43.656 81.912 43.336V38.28H79.72V37.176H83.064ZM107.672 33.896L106.616 34.376C106.44 33.768 105.96 32.808 105.544 32.104L106.536 31.704C107 32.392 107.48 33.304 107.672 33.896ZM97.768 40.52L100.872 39.976C100.84 40.28 100.84 40.712 100.856 40.952C97 41.736 96.472 41.88 96.136 42.072C96.088 41.848 95.912 41.304 95.784 41.032C96.12 40.968 96.504 40.552 96.984 39.976C97.288 39.656 97.912 38.824 98.6 37.784C96.616 38.056 96.248 38.136 96.024 38.248C95.976 38.024 95.784 37.464 95.672 37.16C95.928 37.096 96.2 36.712 96.536 36.168C96.888 35.64 98.008 33.544 98.6 31.64L99.688 32.12C99 33.816 98.088 35.608 97.16 37L99.224 36.776C99.608 36.168 99.96 35.544 100.28 34.92L101.24 35.48C100.216 37.272 98.984 39.08 97.768 40.52ZM95.992 45.24L95.768 44.104C97.128 43.832 99.144 43.352 101.144 42.904L101.256 43.88C99.4 44.376 97.448 44.856 95.992 45.24ZM103.56 41.8V43.976H106.12V41.8H103.56ZM106.12 37.592V35.576H103.56V37.592H106.12ZM106.12 40.728V38.68H103.56V40.728H106.12ZM110.248 43.976V45.08H103.56V46.248H102.44V36.968C102.088 37.464 101.752 37.944 101.368 38.36C101.272 38.088 100.984 37.576 100.776 37.32C102.056 35.848 103.176 33.528 103.736 31.704L104.872 32.024C104.6 32.824 104.248 33.656 103.848 34.488H110.024V35.576H107.24V37.592H109.624V38.68H107.24V40.728H109.656V41.8H107.24V43.976H110.248Z" fill="#1D2129"/>
<path d="M51.08 135.832H59.016V131.368H51.08V135.832ZM59.016 125.88H51.08V130.2H59.016V125.88ZM49.88 124.712H60.264V137.976H59.016V137H51.08V138.04H49.88V124.712ZM64.904 137.432L63.832 136.872C64.568 135.88 65.128 134.28 65.432 133.032L66.488 133.4C66.152 134.68 65.624 136.376 64.904 137.432ZM69.72 136.92H73.208C74.072 136.92 74.216 136.648 74.296 134.952C74.568 135.144 75.048 135.32 75.384 135.4C75.208 137.48 74.84 137.992 73.288 137.992H69.672C67.848 137.992 67.352 137.656 67.352 136.36V132.872H68.52V136.344C68.52 136.824 68.712 136.92 69.72 136.92ZM73.48 133.88L72.6 134.68C71.896 133.864 70.376 132.712 69.064 131.944L69.896 131.224C71.16 131.96 72.728 133.048 73.48 133.88ZM74.888 133.272L75.96 132.872C76.744 134.2 77.688 135.96 78.104 137.048L76.936 137.512C76.568 136.424 75.688 134.616 74.888 133.272ZM71.576 125.912H78.104V127.048H71.576V129.752H77.144V130.872H64.968V129.752H70.36V127.048H63.944V125.912H70.36V123.608H71.576V125.912ZM88.952 123.496L89.992 123.88C89.896 124.072 89.784 124.264 89.672 124.472C90.792 126.008 92.76 127.768 94.392 128.744C94.168 129.016 93.912 129.496 93.784 129.816C92.168 128.728 90.344 127.016 89.112 125.416C87.928 127.24 86.344 128.84 84.712 129.96C84.568 129.736 84.232 129.224 84.008 129.016C85.992 127.768 87.896 125.752 88.952 123.496ZM91.88 128.552V129.576H86.504V128.552H91.88ZM90.056 134.52L89.08 134.696C89 133.672 88.728 132.088 88.44 130.872L89.384 130.744C89.672 131.96 89.976 133.512 90.056 134.52ZM85.352 131.32L86.296 131.08C86.776 132.28 87.224 133.848 87.368 134.888L86.392 135.16C86.248 134.104 85.832 132.536 85.352 131.32ZM84.792 131.288L84.072 132.136C83.88 131.64 83.416 130.728 83 129.96V138.216H81.896V130.568C81.432 132.216 80.808 133.768 80.184 134.76C80.056 134.424 79.784 133.896 79.576 133.624C80.472 132.312 81.368 129.848 81.784 127.736H79.848V126.632H81.896V123.608H83V126.632H84.664V127.736H83V128.424C83.416 129.016 84.536 130.824 84.792 131.288ZM92.424 130.744L93.48 131.032C92.792 132.744 91.848 134.904 91.016 136.408H93.96V137.464H84.504V136.408H90.024C90.856 134.888 91.88 132.456 92.424 130.744ZM99.656 134.792L100.76 135.208C99.72 136.216 98.216 137.272 96.952 137.912C96.76 137.704 96.312 137.32 96.04 137.128C97.352 136.552 98.776 135.656 99.656 134.792ZM107.736 133.704L103.816 133.96V136.84C103.816 137.464 103.672 137.768 103.16 137.96C102.648 138.136 101.864 138.152 100.696 138.152C100.632 137.8 100.44 137.368 100.264 137.048C101.24 137.08 102.088 137.08 102.328 137.064C102.6 137.048 102.664 137 102.664 136.808V134.024C98.04 134.328 97.432 134.392 97 134.52C96.952 134.312 96.808 133.768 96.68 133.496C97.208 133.432 97.912 133.208 98.84 132.824C99.336 132.648 100.472 132.168 101.784 131.528C98.84 131.72 98.408 131.784 98.152 131.88C98.104 131.672 97.944 131.128 97.832 130.856C98.152 130.808 98.52 130.664 98.984 130.424C99.416 130.216 100.84 129.448 101.976 128.568H97.24V130.52H96.12V127.544H102.392V126.056H96.28V125.016H102.392V123.608H103.608V125.016H109.72V126.056H103.608V127.544H109.928V130.52H108.76V128.568H102.68L103.16 128.936C102.168 129.656 101.064 130.312 99.96 130.84L103.528 130.632C104.296 130.232 105.064 129.784 105.768 129.336L106.6 130.056C104.44 131.352 102.184 132.44 99.96 133.272L106.92 132.904C106.488 132.488 106.04 132.072 105.624 131.736L106.472 131.208C107.592 132.12 109.016 133.464 109.688 134.328L108.792 134.952C108.536 134.6 108.168 134.168 107.736 133.704ZM105.112 135.304L106.008 134.712C107.336 135.4 109.048 136.456 109.944 137.192L109 137.864C108.184 137.144 106.472 136.04 105.112 135.304Z" fill="#1D2129"/>
<g filter="url(#filter1_d_2599_28333)">
<rect x="4" y="65" width="163" height="39" rx="4" fill="#E41D1D"/>
</g>
<path d="M49.896 80.632V82.648H48.424V79.24H54.456C54.248 78.792 53.976 78.296 53.736 77.896L55.24 77.432C55.576 77.992 55.992 78.696 56.2 79.24H61.624V82.648H60.072V80.632H49.896ZM54.072 82.936L53.128 84.008C52.68 83.464 51.672 82.696 50.824 82.2L51.704 81.224C52.552 81.688 53.592 82.392 54.072 82.936ZM49.24 84.632L50.104 83.64C50.968 84.056 52.024 84.76 52.568 85.304L51.656 86.408C51.144 85.864 50.104 85.112 49.24 84.632ZM55.544 89.512L56.248 88.424C58.344 89.112 60.584 90.136 61.88 91L60.968 92.184C59.72 91.272 57.624 90.232 55.544 89.512ZM55.896 86.76H61.912V88.024H55.416C54.488 90.008 52.712 91.4 49.16 92.232C49.016 91.832 48.648 91.256 48.328 90.936C51.176 90.328 52.776 89.368 53.656 88.024H48.184V86.76H54.28C54.776 85.336 54.84 83.56 54.904 81.368H56.472C56.408 83.464 56.296 85.256 55.896 86.76ZM66.216 77.592L67.56 77.992C67.272 78.968 66.936 79.976 66.536 80.952V92.248H65.144V83.768C64.84 84.28 64.536 84.728 64.216 85.144C64.104 84.792 63.768 83.944 63.528 83.576C64.68 82.088 65.64 79.848 66.216 77.592ZM67.784 79.784V78.392H73.256V79.784H70.664C70.52 80.504 70.36 81.224 70.184 81.912H71.928L72.168 81.864L73.032 82.088C72.536 87.112 70.984 90.472 68.52 92.264C68.312 91.912 67.896 91.4 67.592 91.112C68.648 90.424 69.544 89.304 70.232 87.832C69.784 87.4 69.208 86.904 68.712 86.504L69.512 85.48C69.912 85.768 70.376 86.136 70.792 86.488C71.112 85.512 71.384 84.44 71.56 83.272H69.768C69.32 84.696 68.728 85.96 68.024 86.952C67.8 86.712 67.24 86.216 66.92 86.008C68.04 84.52 68.792 82.248 69.256 79.784H67.784ZM75.16 79.352V88.312H73.848V79.352H75.16ZM76.408 77.688H77.784V90.36C77.784 91.224 77.592 91.64 77.08 91.864C76.568 92.104 75.704 92.152 74.44 92.136C74.376 91.752 74.168 91.096 73.976 90.696C74.888 90.728 75.768 90.728 76.056 90.728C76.312 90.712 76.408 90.632 76.408 90.36V77.688ZM94.072 81.112H89.032C88.488 82.376 87.816 83.496 87.08 84.36C86.824 84.104 86.216 83.672 85.88 83.464C87.176 82.088 88.152 79.912 88.696 77.624L90.136 77.896C89.976 78.552 89.784 79.16 89.576 79.768H94.072V81.112ZM89.112 82.696L90.264 81.928C91.32 82.664 92.632 83.752 93.288 84.504L92.088 85.384C91.496 84.648 90.184 83.496 89.112 82.696ZM85.496 77.624V85.24H84.024V77.624H85.496ZM82.36 78.152V84.76H80.92V78.152H82.36ZM82.92 87.32V90.52H84.744V87.32H82.92ZM87.944 87.32H86.104V90.52H87.944V87.32ZM91.176 87.32H89.304V90.52H91.176V87.32ZM92.632 90.52H94.248V91.864H79.8V90.52H81.528V86.072H92.632V90.52ZM102.2 80.728V82.264H100.84V79.448H104.872C104.696 78.936 104.44 78.344 104.232 77.88L105.656 77.544C105.928 78.152 106.28 78.904 106.472 79.448H110.2V82.152H108.792V80.728H102.2ZM105.928 82.36L106.824 81.544C107.816 82.328 109.192 83.512 109.896 84.2L108.952 85.176C108.296 84.456 106.936 83.24 105.928 82.36ZM103.816 81.576L105.08 82.04C104.248 83.256 102.904 84.536 101.752 85.336C101.592 85.08 101.128 84.456 100.872 84.184C101.96 83.544 103.096 82.536 103.816 81.576ZM100.312 84.552L100.552 85.88C100.008 86.088 99.432 86.296 98.888 86.488V90.44C98.888 91.176 98.744 91.576 98.328 91.8C97.896 92.04 97.256 92.088 96.248 92.088C96.216 91.736 96.024 91.096 95.848 90.712C96.472 90.728 97.08 90.728 97.256 90.728C97.448 90.728 97.528 90.664 97.528 90.44V86.984L95.864 87.576L95.56 86.12C96.104 85.96 96.792 85.752 97.528 85.496V81.928H95.736V80.552H97.528V77.576H98.888V80.552H100.408V81.928H98.888V85.048L100.312 84.552ZM106.12 90.424H110.392V91.736H100.296V90.424H104.632V86.792H101.56V85.496H109.256V86.792H106.12V90.424Z" fill="white"/>
<path d="M142 40.8536C141.805 41.0488 141.488 41.0488 141.293 40.8536L139.113 38.6735L136.995 40.7911C136.8 40.9863 136.483 40.9863 136.288 40.7911L135.935 40.4375C135.739 40.2423 135.739 39.9257 135.935 39.7304L138.763 36.902C138.958 36.7067 139.275 36.7067 139.47 36.902L139.824 37.2555C139.841 37.2731 139.857 37.2916 139.872 37.3109L142.354 39.7929C142.549 39.9882 142.549 40.3047 142.354 40.5L142 40.8536Z" fill="#87909D"/>
<path d="M30.9902 31.4199C32.0137 31.4199 33.0059 31.6191 33.9375 32.0156C34.8398 32.3965 35.6504 32.9434 36.3457 33.6387C37.041 34.334 37.5879 35.1445 37.9688 36.0469C38.3633 36.9805 38.5645 37.9727 38.5645 38.9941C38.5645 40.0156 38.3652 41.0098 37.9688 41.9414C37.5879 42.8437 37.041 43.6543 36.3457 44.3496C35.6504 45.0449 34.8398 45.5918 33.9375 45.9727C33.0039 46.3672 32.0117 46.5684 30.9902 46.5684C29.9688 46.5684 28.9746 46.3691 28.043 45.9727C27.1406 45.5918 26.3301 45.0449 25.6348 44.3496C24.9395 43.6543 24.3926 42.8437 24.0117 41.9414C23.6172 41.0078 23.416 40.0156 23.416 38.9941C23.416 37.9727 23.6152 36.9785 24.0117 36.0469C24.3926 35.1445 24.9395 34.334 25.6348 33.6387C26.3301 32.9434 27.1406 32.3965 28.043 32.0156C28.9746 31.6191 29.9668 31.4199 30.9902 31.4199ZM30.9902 30.248C26.1602 30.248 22.2441 34.1641 22.2441 38.9941C22.2441 43.8242 26.1602 47.7402 30.9902 47.7402C35.8203 47.7402 39.7363 43.8242 39.7363 38.9941C39.7363 34.1641 35.8203 30.248 30.9902 30.248Z" fill="#4E5969"/>
<path d="M33.8516 36.1328L32.4648 39.9883C32.3848 40.2129 32.209 40.3867 31.9844 40.4668L28.1289 41.8555L29.5156 38C29.5957 37.7754 29.7715 37.6016 29.9961 37.5215L33.8516 36.1328ZM34.3438 34.7656C34.2461 34.7656 34.1445 34.7832 34.0469 34.8184L29.5977 36.4199C29.3249 36.518 29.0773 36.6752 28.8723 36.8801C28.6674 37.0851 28.5102 37.3327 28.4121 37.6055L26.8105 42.0547C26.7422 42.2461 26.7422 42.4551 26.8105 42.6484C26.9395 43.0059 27.2754 43.2266 27.6328 43.2266C27.7305 43.2266 27.832 43.209 27.9297 43.1738L32.3789 41.5723C32.9316 41.373 33.3652 40.9395 33.5645 40.3867L35.166 35.9375C35.2344 35.7461 35.2344 35.5371 35.166 35.3437C35.0391 34.9863 34.7031 34.7656 34.3438 34.7656Z" fill="#4E5969"/>
<defs>
<filter id="filter0_d_2599_28333" x="1" y="0" width="168" height="233" filterUnits="userSpaceOnUse" color-interpolation-filters="sRGB">
<feFlood flood-opacity="0" result="BackgroundImageFix"/>
<feColorMatrix in="SourceAlpha" type="matrix" values="0 0 0 0 0 0 0 0 0 0 0 0 0 0 0 0 0 0 127 0" result="hardAlpha"/>
<feOffset dy="2"/>
<feGaussianBlur stdDeviation="4.5"/>
<feComposite in2="hardAlpha" operator="out"/>
<feColorMatrix type="matrix" values="0 0 0 0 0 0 0 0 0 0 0 0 0 0 0 0 0 0 0.08 0"/>
<feBlend mode="normal" in2="BackgroundImageFix" result="effect1_dropShadow_2599_28333"/>
<feBlend mode="normal" in="SourceGraphic" in2="effect1_dropShadow_2599_28333" result="shape"/>
</filter>
<filter id="filter1_d_2599_28333" x="0" y="63" width="175" height="51" filterUnits="userSpaceOnUse" color-interpolation-filters="sRGB">
<feFlood flood-opacity="0" result="BackgroundImageFix"/>
<feColorMatrix in="SourceAlpha" type="matrix" values="0 0 0 0 0 0 0 0 0 0 0 0 0 0 0 0 0 0 127 0" result="hardAlpha"/>
<feOffset dx="2" dy="4"/>
<feGaussianBlur stdDeviation="3"/>
<feComposite in2="hardAlpha" operator="out"/>
<feColorMatrix type="matrix" values="0 0 0 0 0.605915 0 0 0 0 0 0 0 0 0 0 0 0 0 0.25 0"/>
<feBlend mode="normal" in2="BackgroundImageFix" result="effect1_dropShadow_2599_28333"/>
<feBlend mode="normal" in="SourceGraphic" in2="effect1_dropShadow_2599_28333" result="shape"/>
</filter>
</defs>
</svg>
