<?xml version="1.0" encoding="UTF-8"?>
<svg width="16px" height="16px" viewBox="0 0 16 16" version="1.1" xmlns="http://www.w3.org/2000/svg" xmlns:xlink="http://www.w3.org/1999/xlink">
    <title>首页-未</title>
    <g id="控件" stroke="none" stroke-width="1" fill="none" fill-rule="evenodd" stroke-linecap="round" stroke-linejoin="round">
        <g id="首页-未" stroke="currentColor">
            <path d="M6.3,14.2648004 C5.92812551,14.2648004 5.03101664,14.2648004 4.16295095,14.2648004 C3.83928669,14.2648004 3.56315537,14.2648004 3.39572322,14.2648004 C2.47922352,14.2648004 1.73625371,13.5218306 1.73625371,12.6053309 L1.73625371,5.53652509 C1.73625371,4.95845389 2.03707457,4.42203901 2.53031583,4.12057695 C2.72513816,4.00150432 2.8712549,3.91219984 2.96866606,3.85266352 C3.71424675,3.3969752 5.12058659,2.71344271 7.1876856,1.80206607 C7.70703483,1.48464719 8.35847962,1.47702126 8.88511705,1.78219561 L13.4786627,4.12641072 C13.9908139,4.4231906 14.3061082,4.97030271 14.3061082,5.56222931 L14.3061082,12.6053309 C14.3061082,13.5218306 13.0149897,14.2648004 12.09849,14.2648004" id="路径备份"></path>
            <path d="M6.3,14.2648004 L6.3,10.3384715 C6.3,9.38085509 7.07630148,8.6045536 8.0339179,8.6045536 C8.99153431,8.6045536 9.76783579,9.38085509 9.76783579,10.3384715 L9.76783579,14.2648004" id="路径备份-2"></path>
        </g>
    </g>
</svg>
