<?xml version="1.0" encoding="UTF-8"?>
<svg width="40px" height="40px" viewBox="0 0 40 40" version="1.1" xmlns="http://www.w3.org/2000/svg" xmlns:xlink="http://www.w3.org/1999/xlink">
    <title>数据流</title>
    <g id="控件" stroke="none" stroke-width="1" fill="none" fill-rule="evenodd" stroke-linecap="round" stroke-linejoin="round">
        <g id="数据流" stroke="#722ED1">
            <path d="M19.9462708,36 C18.5877668,36 17.4864816,34.8987149 17.4864816,33.5402108 C17.4864816,32.1817067 18.5877668,31.0804216 19.9462708,31.0804216 C21.3047749,31.0804216 22.4060601,32.1817067 22.4060601,33.5402108" id="路径"></path>
            <circle id="椭圆形" cx="29.7854277" cy="33.5402108" r="2.45978922"></circle>
            <path d="M10.107114,31.0804216 C11.465618,31.0804216 12.5669032,32.1817067 12.5669032,33.5402108 C12.5669032,34.8987149 11.465618,36 10.107114,36 C8.74860988,36 7.64732474,34.8987149 7.64732474,33.5402108" id="路径"></path>
            <line x1="19.9462708" y1="31.0804216" x2="19.9462708" y2="24.9309485" id="路径"></line>
            <polyline id="路径" points="13.7967978 23.7010539 13.7967978 27.3907377 10.107114 27.3907377 10.107114 31.0804216"></polyline>
            <polyline id="路径" points="26.0957439 23.7010539 26.0957439 27.3907377 29.7854277 27.3907377 29.7854277 31.0804216"></polyline>
            <path d="M30.4495708,23.7010539 C31.8363468,23.7190555 33.169893,23.1678564 34.1392546,22.1759846 C35.3605853,20.955034 36.0122392,19.2768019 35.9349008,17.5515809 C35.7258187,14.2431644 32.3928043,11.2914173 28.1742658,11.4021078 C27.0493131,6.81512197 22.7888102,3.70147796 18.076831,4.02274015 C12.9883663,4.43880528 9.11168934,8.75822247 9.24618773,13.861897 C6.95369129,13.9085388 4.93451269,15.3823918 4.19132089,17.5515809 C4.13208005,17.7415593 4.08281697,17.9345063 4.04373353,18.1296313 C3.8514527,19.5625897 4.2992424,21.0075854 5.26813274,22.0807085 C6.23702308,23.1538315 7.62891328,23.7464274 9.07400249,23.7010539 L13.5508189,23.7010539 L26.0957439,23.7010539" id="路径"></path>
        </g>
    </g>
</svg>