<?xml version="1.0" encoding="UTF-8"?>
<svg width="16px" height="16px" viewBox="0 0 16 16" version="1.1" xmlns="http://www.w3.org/2000/svg" xmlns:xlink="http://www.w3.org/1999/xlink">
    <title>一键自检</title>
    <g id="控件" stroke="none" stroke-width="1" fill="none" fill-rule="evenodd">
        <g id="一键自检" fill-rule="nonzero">
            <path d="M10.3058824,10.8823529 L9.64705883,10.2235294 L10.2235294,9.64705883 L10.8823529,10.3058824 C11.2941176,9.8117647 11.5411765,9.15294118 11.6235294,8.41176471 L10.8,8.41176471 L10.8,7.58823529 L11.6235294,7.58823529 C11.5411765,6.84705882 11.2941176,6.27058822 10.8823529,5.69411765 L10.2235294,6.35294117 L9.64705883,5.77647058 L10.3058824,5.11764705 C9.72941176,4.70588235 9.07058823,4.37647058 8.41176471,4.29411764 L8.41176471,5.11764705 L7.58823529,5.11764705 L7.58823529,4.29411764 C6.84705882,4.37647058 6.27058822,4.70588234 5.69411765,5.11764705 L6.43529412,5.85882353 L5.85882353,6.43529412 L5.11764705,5.69411765 C4.70588235,6.27058824 4.37647058,6.92941177 4.29411764,7.58823529 L5.11764705,7.58823529 L5.11764705,8.41176471 L4.29411764,8.41176471 C4.37647058,9.15294118 4.70588234,9.8117647 5.11764705,10.3058824 L5.85882353,9.56470588 L6.43529412,10.1411765 L5.69411765,10.8823529 C6.1882353,11.2941176 6.84705882,11.5411765 7.58823529,11.6235294 L7.58823529,10.8 L8.41176471,10.8 L8.41176471,11.6235294 C9.15294118,11.6235294 9.8117647,11.2941176 10.3058824,10.8823529 Z M12.5294118,8.41176471 C12.3647059,10.5529412 10.6352941,12.2823529 8.41176471,12.5294118 L7.58823529,12.5294118 C5.44705883,12.3647059 3.71764706,10.6352941 3.47058824,8.41176471 L3.47058824,7.58823529 C3.63529411,5.44705883 5.36470588,3.71764706 7.58823529,3.47058824 L8.41176471,3.47058824 C10.5529412,3.63529411 12.2823529,5.36470588 12.5294118,7.58823529 L12.5294118,8.41176471 Z M13.6,12.2 C13.3997511,12.2883993 13.2279598,12.262807 13.084626,12.1232231 C12.9412923,11.9836392 12.9209267,11.8170746 13.0235294,11.6235294 C13.7647059,10.6352941 14.1764706,9.31764706 14.1764706,8 C14.1764706,4.62352941 11.3764706,1.8235294 8,1.8235294 C4.62352939,1.8235294 1.8235294,4.62352941 1.8235294,8 C1.8235294,11.3764706 4.62352941,14.1764706 8,14.1764706 C9.39999998,14.1764706 10.7176471,13.6823529 11.7058823,12.9411765 C11.9456297,12.7966101 12.1377866,12.7966101 12.2823529,12.9411765 C12.4269193,13.0857428 12.4269193,13.2778997 12.2823529,13.5176471 C11.1294118,14.4235294 9.56470588,15 8,15 C4.12941176,15 1,11.8705882 1,8 C1,4.12941174 4.12941176,1 8,1 C11.8705882,1 15,4.12941176 15,8 C15,9.56470588 14.5058824,11.0470588 13.6,12.2 Z M7.99999999,8.41176471 C7.75294117,8.41176471 7.58823529,8.24705883 7.58823529,7.99999999 C7.58823529,7.83529411 7.75294117,7.17647057 7.99999999,5.94117647 C8.24705881,7.17647059 8.41176471,7.83529411 8.41176471,7.99999999 C8.41176471,8.24705881 8.24705883,8.41176471 7.99999999,8.41176471 Z" id="形状" fill="#4E5969"></path>
            <path d="M12.5294118,8.41176471 C12.3647059,10.5529412 10.6352941,12.2823529 8.41176471,12.5294118 L7.58823529,12.5294118 C5.44705883,12.3647059 3.71764706,10.6352941 3.47058824,8.41176471 L3.47058824,7.58823529 C3.63529411,5.44705883 5.36470588,3.71764706 7.58823529,3.47058824 L8.41176471,3.47058824 C10.5529412,3.63529411 12.2823529,5.36470588 12.5294118,7.58823529 L12.5294118,8.41176471 Z" id="路径备份"></path>
        </g>
    </g>
</svg>