<?xml version="1.0" encoding="UTF-8"?>
<svg width="40px" height="40px" viewBox="0 0 40 40" version="1.1" xmlns="http://www.w3.org/2000/svg" xmlns:xlink="http://www.w3.org/1999/xlink">
    <title>业务流</title>
    <g id="控件" stroke="none" stroke-width="1" fill="none" fill-rule="evenodd" stroke-linecap="round" stroke-linejoin="round">
        <g id="编组" transform="translate(5.000000, 4.000000)">
            <g id="server-2" transform="translate(0.800000, 17.600000)" stroke="#0CB467">
                <rect id="矩形" x="0" y="0" width="24.8" height="7.2" rx="1.92"></rect>
                <path d="M2.356,14.3997184 C1.05081571,14.3865616 0,13.3589499 0,12.0958986 L0,9.50410138 C0,8.2410501 1.05081571,7.21343841 2.356,7.20028162 L22.382,7.20028162 C23.019848,7.19063632 23.6350146,7.42909477 24.0895794,7.86219462 C24.5441442,8.29529447 24.8,8.88680203 24.8,9.50410138 L24.8,12.0958986 C24.8,12.713198 24.5441442,13.3047055 24.0895794,13.7378054 C23.6350146,14.1709052 23.019848,14.4093637 22.382,14.3997184 L7.43999999,14.3997184" id="路径"></path>
                <line x1="17.6" y1="4" x2="20" y2="4" id="路径"></line>
                <line x1="17.6" y1="11.2" x2="20" y2="11.2" id="路径"></line>
            </g>
            <path d="M0.0764267748,13.2021981 C-0.218660939,11.4536447 0.350908687,9.67129478 1.6093833,8.40512881 C2.97519849,7.32232431 4.7538477,6.88400862 6.47591194,7.2058615 C6.923196,2.95725681 10.6645137,-0.203816017 14.9923371,0.0102576171 C18.8591977,0.377280415 21.9197929,3.3941921 22.29213,7.2058615 C25.9425077,7.01323548 29.1258698,9.62817406 29.591923,13.2021981 C29.6591923,14.4775858 29.3048504,15.7400598 28.5821183,16.8" id="路径" stroke="#00B42A"></path>
        </g>
    </g>
</svg>