<?xml version="1.0" encoding="UTF-8"?>
<svg width="40px" height="40px" viewBox="0 0 40 40" version="1.1" xmlns="http://www.w3.org/2000/svg" xmlns:xlink="http://www.w3.org/1999/xlink">
    <title>数据模型</title>
    <g id="控件" stroke="none" stroke-width="1" fill="none" fill-rule="evenodd" stroke-linecap="round" stroke-linejoin="round">
        <g id="数据模型" stroke="#206CCF">
            <g id="share-database" transform="translate(5.000000, 4.000000)">
                <ellipse id="椭圆形" cx="11.6910779" cy="4.92255913" rx="11.075758" ry="4.92255913"></ellipse>
                <path d="M22.766836,12.3063978 C22.766836,15.0261117 17.8442769,17.228957 11.6910779,17.228957 C5.53787902,17.228957 0.615319891,15.0261117 0.615319891,12.3063978" id="路径"></path>
                <path d="M15.3829973,24.3297485 C14.1617032,24.5209307 12.9272422,24.6155727 11.6910779,24.6127957 C5.53787902,24.6127957 0.615319891,22.4099504 0.615319891,19.6902365" id="路径"></path>
                <path d="M0.615319891,27.0740752 C0.615319891,29.7937891 5.53787902,31.9966344 11.6910779,31.9966344 C14.2069615,32.0421844 16.7097998,31.6250446 19.0749166,30.7659946" id="路径"></path>
                <line x1="0.615319891" y1="4.92255913" x2="0.615319891" y2="27.0740752" id="路径"></line>
                <line x1="22.766836" y1="4.92255913" x2="22.766836" y2="12.3063978" id="路径"></line>
            </g>
            <g id="编组-18" transform="translate(22.074917, 19.998317)">
                <circle id="椭圆形" cx="11.075758" cy="2.46127957" r="2.46127957"></circle>
                <circle id="椭圆形" cx="11.075758" cy="13.5370376" r="2.46127957"></circle>
                <circle id="椭圆形" cx="2.46127957" cy="7.3838387" r="2.46127957"></circle>
                <line x1="2.46127957" y1="9.84511826" x2="8.61447848" y2="13.5370376" id="路径"></line>
                <line x1="2.46127957" y1="4.92255913" x2="8.61447848" y2="2.46127957" id="路径"></line>
            </g>
        </g>
    </g>
</svg>