<?xml version="1.0" encoding="UTF-8"?>
<svg width="16px" height="16px" viewBox="0 0 16 16" version="1.1" xmlns="http://www.w3.org/2000/svg" xmlns:xlink="http://www.w3.org/1999/xlink">
    <title>安全-未</title>
    <g id="控件" stroke="none" stroke-width="1" fill="none" fill-rule="evenodd" stroke-linecap="round" stroke-linejoin="round">
        <g id="安全-未" stroke="currentColor">
            <path d="M12.8119967,11.6874778 C12.3851971,12.2473582 11.8715156,12.8020051 11.318915,13.2905734 C10.242096,14.2426164 9.68246762,14.9437459 8,14.9437459 C6.2465164,14.9437459 2,11.3731778 2,9.49445285 C2,8.24196951 2,6.10436278 2,3.08163265 C2.88321251,3.44525252 4.00411377,3.30501252 5.36270378,2.66091266 C6.72129379,2.01681279 7.60039253,1.46317524 8,1 C9.14572529,1.82679511 10.2528313,2.38043266 11.321318,2.66091266 C12.3898047,2.94139265 13.2826987,2.88868089 14,2.88868089 C14,4.30807834 14,6.31977947 14,6.90666441" id="路径"></path>
            <polyline id="路径-17" points="5.6956644 8.91702005 7.72745741 10.9704702 11.1450086 6.86356995"></polyline>
        </g>
    </g>
</svg>
