<svg width="18.000000" height="18.000000" viewBox="0 0 18 18" xmlns="http://www.w3.org/2000/svg" xmlns:xlink="http://www.w3.org/1999/xlink">
	<desc>
			Created with Pixso.
	</desc>
	<g clip-path="url(#clip459_278)">
		<path d="M2.46143 5.0769C8.31592 5.59344 13.0029 10.0684 13.7046 15.7444L2.46143 15.7444L2.46143 5.0769ZM3.59473 4.35181C2.79053 4.35181 2.13477 3.71106 2.13477 2.91663C2.13477 2.12152 2.78955 1.48077 3.59473 1.48077C4.39941 1.48077 5.05518 2.12152 5.05518 2.91663C5.05518 3.71106 4.39941 4.35181 3.59473 4.35181ZM3.59473 3.69794C4.04199 3.69794 4.40137 3.34686 4.40137 2.91663C4.40137 2.48639 4.04199 2.13464 3.59473 2.13464C3.14795 2.13464 2.78857 2.48639 2.78857 2.91663C2.78857 3.34686 3.14795 3.69794 3.59473 3.69794L3.59473 3.69794ZM1.15381 0.5L1.15381 16.8461L17.5 16.8461L17.5 17.5L0.5 17.5L0.5 0.5L1.15381 0.5Z" fill-rule="evenodd"/>
	</g>
	<defs>
		<clipPath id="clip459_278">
			<rect width="18.000000" height="18.000000" fill="white"/>
		</clipPath>
	</defs>
</svg>
