<svg width="18.000000" height="18.000000" viewBox="0 0 18 18" xmlns="http://www.w3.org/2000/svg" xmlns:xlink="http://www.w3.org/1999/xlink">
	<desc>
			Created with Pixso.
	</desc>
	<g clip-path="url(#clip459_388)">
		<path d="M4.15332 10.5992L5.23096 10.5992L5.23096 11.6667L4.15332 11.6667L4.15332 10.5992L4.15332 10.5992ZM4.15332 7.39886L5.23096 7.39886L5.23096 8.46631L4.15332 8.46631L4.15332 7.39886L4.15332 7.39886ZM4.15332 4.20038L5.23096 4.20038L5.23096 5.26782L4.15332 5.26782L4.15332 4.20038L4.15332 4.20038ZM6.30859 10.5992L13.8467 10.5992L13.8467 11.6667L6.30859 11.6667L6.30859 10.5992ZM6.30859 7.39886L13.8467 7.39886L13.8467 8.46631L6.30859 8.46631L6.30859 7.39886ZM6.30859 4.20038L13.8467 4.20038L13.8467 5.26782L6.30859 5.26782L6.30859 4.20038ZM2 2.09833L2 15.5002C2 16.3997 2.76025 17 3.62842 17L16 17L16 16.1005L3.62842 16.1005C3.30225 16.1005 3.08447 15.8997 3.08447 15.6005C3.08447 15.3014 3.30029 15.1006 3.62842 15.1006L16 15.1006L16 1L3.19434 1C2.65186 1.09845 2.10791 1.60034 2 2.09833Z" fill-rule="evenodd"/>
	</g>
	<defs>
		<clipPath id="clip459_388">
			<rect width="18.000000" height="18.000000" fill="white"/>
		</clipPath>
	</defs>
</svg>
