<svg width="18.000000" height="18.000000" viewBox="0 0 18 18" xmlns="http://www.w3.org/2000/svg" xmlns:xlink="http://www.w3.org/1999/xlink">
	<desc>
			Created with Pixso.
	</desc>
	<g clip-path="url(#clip380_256)">
		<path d="M2.85059 5.75977L4.56152 5.75977L4.56152 17.9927L2.85059 17.9927L2.85059 5.75977ZM6.59033 6.93298L8.30127 6.93298L8.30127 15.0775L6.59033 15.0775L6.59033 6.93298ZM1.04639 4.34998L1.04639 2.63904L16.9536 2.63904L16.9536 4.34998L1.04639 4.34998Z" fill-rule="evenodd"/>
		<path d="M2.85107 18L2.85107 16.2891L15.7817 16.2891L15.7817 18L2.85107 18ZM10.3301 6.93298L12.041 6.93298L12.041 15.0775L10.3301 15.0775L10.3301 6.93298Z" fill-rule="evenodd"/>
		<path d="M14.0693 5.75977L15.7803 5.75977L15.7803 17.9927L14.0693 17.9927L14.0693 5.75977ZM9.2832 1.07764C9.73828 1.07764 10.127 1.2384 10.4487 1.56006C10.7705 1.88184 10.9316 2.27014 10.9321 2.72522L12.0098 2.72522C11.9951 1.98291 11.7227 1.35181 11.1929 0.831909C10.6626 0.312012 10.0264 0.052124 9.28369 0.052124C8.5415 0.052124 7.90527 0.312012 7.375 0.831909C6.84473 1.35181 6.57275 1.98291 6.55811 2.72522L7.63574 2.72522C7.63623 2.27039 7.79688 1.88208 8.11865 1.56042C8.44043 1.23889 8.82861 1.07788 9.2832 1.07764Z" fill-rule="evenodd"/>
	</g>
	<defs>
		<clipPath id="clip380_256">
			<rect width="18.000000" height="18.000000" fill="white"/>
		</clipPath>
	</defs>
</svg>
