<?xml version="1.0" encoding="UTF-8"?>
<svg width="16px" height="16px" viewBox="0 0 16 16" version="1.1" xmlns="http://www.w3.org/2000/svg" xmlns:xlink="http://www.w3.org/1999/xlink">
    <title>运维-未</title>
    <g id="控件" stroke="none" stroke-width="1" fill="none" fill-rule="evenodd">
        <g id="运维-未" stroke="currentColor">
            <path d="M5.60355815,4.04814264 C4.26806369,4.6956475 3.23403521,5.86750074 2.76900507,7.29616998 M4.49734726,13.2406457 C5.44867223,14.0273043 6.66913411,14.5 8,14.5 C8.55863064,14.5 9.09780921,14.4167158 9.60579652,14.2618866 M13.5,9 C13.5,7.46953795 12.8748874,6.08507876 11.8660593,5.08801939" id="形状" stroke-linecap="round" stroke-linejoin="round"></path>
            <path d="M7.98417154,1 C6.68933194,1 5.63965706,2.03036464 5.63965706,3.30138383 C5.63965706,4.57240302 6.68933194,5.60276766 7.98417154,5.60276766 C9.27901113,5.60276766 10.328686,4.57240302 10.328686,3.30138383 C10.328686,2.03036464 9.27901113,1 7.98417154,1 Z" id="路径" fill-rule="nonzero"></path>
            <path d="M2.84451448,9.27960939 C1.54967489,9.27960939 0.5,10.309974 0.5,11.5809932 C0.5,12.8520124 1.54967489,13.882377 2.84451448,13.882377 C4.13935407,13.882377 5.18902896,12.8520124 5.18902896,11.5809932 C5.18902896,10.309974 4.13935407,9.27960939 2.84451448,9.27960939 Z" id="路径" fill-rule="nonzero"></path>
            <path d="M13.1554855,9.27960939 C11.8606459,9.27960939 10.810971,10.309974 10.810971,11.5809932 C10.810971,12.8520124 11.8606459,13.882377 13.1554855,13.882377 C14.4503251,13.882377 15.5,12.8520124 15.5,11.5809932 C15.5,10.309974 14.4503251,9.27960939 13.1554855,9.27960939 Z" id="路径" fill-rule="nonzero"></path>
        </g>
    </g>
</svg>
