<svg width="18" height="18" viewBox="0 0 18 18" fill="none" xmlns="http://www.w3.org/2000/svg">
<path d="M15.7502 1.6875H3.1502C2.22207 1.6875 1.43457 2.475 1.43457 3.43125V4.725H17.4377V3.43125C17.4658 2.475 16.7064 1.6875 15.7502 1.6875ZM1.4627 15.525C1.4627 16.4812 2.22207 17.2688 3.17832 17.2688H15.7502C16.6783 17.2688 17.4658 16.4812 17.4658 15.525V6.10313H1.4627V15.525ZM12.5721 10.2656C12.3471 10.0406 12.3471 9.70312 12.5721 9.47813C12.7971 9.25313 13.1346 9.25313 13.3314 9.47813L15.3002 11.5312C15.5252 11.7563 15.5252 12.0938 15.3002 12.3187L13.3314 14.3719C13.1064 14.5969 12.7689 14.5969 12.5721 14.3719C12.3471 14.1469 12.3471 13.8094 12.5721 13.5844L14.1752 11.925L12.5721 10.2656ZM8.35332 14.3719L9.73144 9.08437C9.81582 8.775 10.0971 8.60625 10.4064 8.69062C10.6877 8.775 10.8564 9.08438 10.8002 9.39375L9.42207 14.6813C9.3377 14.9906 9.05645 15.1594 8.74707 15.075C8.4377 14.9625 8.26895 14.6531 8.35332 14.3719ZM4.07832 11.5031L6.04707 9.45C6.27207 9.225 6.60957 9.225 6.80645 9.45C7.03145 9.675 7.03145 10.0125 6.80645 10.2375L5.20332 11.8969L6.80645 13.5563C7.03145 13.7812 7.03145 14.1187 6.80645 14.3438C6.58145 14.5688 6.24395 14.5688 6.04707 14.3438L4.07832 12.2906C3.85332 12.0656 3.85332 11.7281 4.07832 11.5031Z" fill="#E41D1D"/>
</svg>
