<svg width="40" height="40" viewBox="0 0 40 40" xmlns="http://www.w3.org/2000/svg">
<path d="M33.75 32.5H6.25C5.91848 32.5 5.60054 32.3683 5.36612 32.1339C5.1317 31.8995 5 31.5815 5 31.25V8.75C5 8.41848 5.1317 8.10054 5.36612 7.86612C5.60054 7.6317 5.91848 7.5 6.25 7.5H33.75C34.0815 7.5 34.3995 7.6317 34.6339 7.86612C34.8683 8.10054 35 8.41848 35 8.75V31.25C35 31.5815 34.8683 31.8995 34.6339 32.1339C34.3995 32.3683 34.0815 32.5 33.75 32.5ZM7.5 30H32.5V10H7.5V30Z"/>
<path d="M11.875 5H13.125V8.75H11.875V5ZM16.875 5H18.125V8.75H16.875V5ZM21.875 5H23.125V8.75H21.875V5ZM26.875 5H28.125V8.75H26.875V5ZM11.875 31.25H13.125V35H11.875V31.25ZM16.875 31.25H18.125V35H16.875V31.25ZM21.875 31.25H23.125V35H21.875V31.25ZM26.875 31.25H28.125V35H26.875V31.25ZM33.75 26.875H37.5V28.125H33.75V26.875ZM33.75 21.875H37.5V23.125H33.75V21.875ZM33.75 16.875H37.5V18.125H33.75V16.875ZM33.75 11.875H37.5V13.125H33.75V11.875Z"/>
<path d="M2.5 26.875H6.25V28.125H2.5V26.875ZM2.5 21.875H6.25V23.125H2.5V21.875ZM2.5 16.875H6.25V18.125H2.5V16.875ZM2.5 11.875H6.25V13.125H2.5V11.875Z"/>
<path d="M13.8323 20.2387L15.7711 20.8249C15.6411 21.3699 15.4348 21.8224 15.1561 22.1874C14.8773 22.5524 14.5286 22.8274 14.1136 23.0124C13.6986 23.1974 13.1698 23.2912 12.5286 23.2912C11.7511 23.2912 11.1148 23.1787 10.6223 22.9524C10.1286 22.7274 9.70359 22.3299 9.34609 21.7612C8.98859 21.1924 8.80859 20.4624 8.80859 19.5749C8.80859 18.3912 9.12359 17.4812 9.75359 16.8449C10.3836 16.2087 11.2748 15.8887 12.4261 15.8887C13.3286 15.8887 14.0361 16.0712 14.5523 16.4362C15.0686 16.8012 15.4523 17.3612 15.7023 18.1162L13.7498 18.5487C13.7035 18.3789 13.6309 18.2174 13.5348 18.0699C13.4166 17.9055 13.2611 17.7714 13.0811 17.6787C12.8948 17.586 12.6891 17.5393 12.4811 17.5424C11.9798 17.5424 11.5961 17.7437 11.3286 18.1474C11.1273 18.4462 11.0261 18.9162 11.0261 19.5562C11.0261 20.3499 11.1473 20.8937 11.3873 21.1874C11.6273 21.4812 11.9673 21.6287 12.4036 21.6287C12.8273 21.6287 13.1473 21.5099 13.3636 21.2724C13.5798 21.0349 13.7348 20.6912 13.8323 20.2387ZM16.8361 16.0099H20.5123C21.3136 16.0099 21.9111 16.1999 22.3111 16.5812C22.7086 16.9624 22.9098 17.5037 22.9098 18.2074C22.9098 18.9299 22.6923 19.4949 22.2586 19.9012C21.8248 20.3074 21.1623 20.5112 20.2686 20.5112H19.0573V23.1674H16.8361V16.0099ZM19.0573 19.0624H19.5998C20.0261 19.0624 20.3261 18.9887 20.4986 18.8399C20.5819 18.7708 20.6484 18.6838 20.6933 18.5852C20.7381 18.4867 20.76 18.3794 20.7573 18.2712C20.7573 18.0462 20.6823 17.8562 20.5323 17.6999C20.3823 17.5437 20.1011 17.4649 19.6873 17.4649H19.0573V19.0624ZM28.7248 16.0099H30.9323V20.2749C30.9323 20.6974 30.8661 21.0974 30.7348 21.4724C30.6058 21.844 30.3937 22.1813 30.1148 22.4587C29.8664 22.719 29.5638 22.9216 29.2286 23.0524C28.7986 23.2112 28.2823 23.2899 27.6811 23.2899C27.3 23.2869 26.9194 23.2623 26.5411 23.2162C26.1311 23.1674 25.7861 23.0712 25.5098 22.9262C25.2336 22.7812 24.9786 22.5762 24.7511 22.3099C24.538 22.0709 24.3775 21.7899 24.2798 21.4849C24.1544 21.0929 24.0854 20.6851 24.0748 20.2737V16.0087H26.2836V20.3749C26.2836 20.7649 26.3911 21.0699 26.6086 21.2899C26.8248 21.5087 27.1248 21.6187 27.5098 21.6187C27.8911 21.6187 28.1898 21.5112 28.4061 21.2949C28.6236 21.0787 28.7311 20.7724 28.7311 20.3749V16.0099H28.7248Z"/>
</svg>
