<svg width="20" height="20" viewBox="0 0 20 20" fill="none" xmlns="http://www.w3.org/2000/svg">
<g clip-path="url(#clip0_342_22289)">
<path d="M6.20578 0.537109H1.25042C0.855329 0.537109 0.536133 0.856306 0.536133 1.2514V6.2514C0.536133 6.44782 0.696847 6.60854 0.893276 6.60854H1.9647C2.16113 6.60854 2.32185 6.44782 2.32185 6.2514V2.32282H6.20578C6.4022 2.32282 6.56292 2.16211 6.56292 1.96568V0.894252C6.56292 0.697824 6.4022 0.537109 6.20578 0.537109ZM19.1076 13.3943H18.0361C17.8397 13.3943 17.679 13.555 17.679 13.7514V17.68H13.7951C13.5986 17.68 13.4379 17.8407 13.4379 18.0371V19.1085C13.4379 19.305 13.5986 19.4657 13.7951 19.4657H18.7504C19.1455 19.4657 19.4647 19.1465 19.4647 18.7514V13.7514C19.4647 13.555 19.304 13.3943 19.1076 13.3943ZM6.20578 17.68H2.32185V13.7514C2.32185 13.555 2.16113 13.3943 1.9647 13.3943H0.893276C0.696847 13.3943 0.536133 13.555 0.536133 13.7514V18.7514C0.536133 19.1465 0.855329 19.4657 1.25042 19.4657H6.20578C6.4022 19.4657 6.56292 19.305 6.56292 19.1085V18.0371C6.56292 17.8407 6.4022 17.68 6.20578 17.68ZM18.7504 0.537109H13.7951C13.5986 0.537109 13.4379 0.697824 13.4379 0.894252V1.96568C13.4379 2.16211 13.5986 2.32282 13.7951 2.32282H17.679V6.2514C17.679 6.44782 17.8397 6.60854 18.0361 6.60854H19.1076C19.304 6.60854 19.4647 6.44782 19.4647 6.2514V1.2514C19.4647 0.856306 19.1455 0.537109 18.7504 0.537109Z" fill="#4E5969"/>
<mask id="path-2-inside-1_342_22289" fill="white">
<rect x="5" y="5" width="10" height="10" rx="1.11111"/>
</mask>
<rect x="5" y="5" width="10" height="10" rx="1.11111" stroke="#4E5969" stroke-width="3.33333" mask="url(#path-2-inside-1_342_22289)"/>
</g>
<defs>
<clipPath id="clip0_342_22289">
<rect width="20" height="20" fill="white"/>
</clipPath>
</defs>
</svg>
