<svg width="18" height="19" viewBox="0 0 18 19" fill="none" xmlns="http://www.w3.org/2000/svg">
<path d="M9 0.75C11.4742 0.815 13.5348 1.67104 15.1819 3.31813C16.829 4.96521 17.685 7.02583 17.75 9.5C17.685 11.9742 16.829 14.0348 15.1819 15.6819C13.5348 17.329 11.4742 18.185 9 18.25C6.52583 18.185 4.46521 17.329 2.81813 15.6819C1.17104 14.0348 0.315 11.9742 0.25 9.5C0.315 7.02583 1.17104 4.96521 2.81813 3.31813C4.46521 1.67104 6.52583 0.815 9 0.75ZM10.3088 6.12125C10.6475 6.12125 10.9275 6.02042 11.1488 5.81875C11.37 5.61708 11.4806 5.34687 11.4806 5.00812C11.4806 4.66937 11.37 4.39917 11.1488 4.1975C10.9275 3.99583 10.6508 3.895 10.3188 3.895C9.98667 3.895 9.71 3.99583 9.48875 4.1975C9.2675 4.39917 9.15687 4.66937 9.15687 5.00812C9.15687 5.34687 9.2675 5.61708 9.48875 5.81875C9.71 6.02042 9.98354 6.12125 10.3094 6.12125H10.3088ZM10.5431 13.1525C10.5431 13.0742 10.5496 12.97 10.5625 12.84C10.5754 12.71 10.5754 12.5863 10.5625 12.4688L9.5275 13.66C9.42333 13.7771 9.31583 13.8683 9.205 13.9338C9.09417 13.9992 8.99979 14.0188 8.92188 13.9925C8.80479 13.9404 8.75271 13.8492 8.76562 13.7188L10.4844 8.30875C10.5494 7.94417 10.4908 7.63167 10.3088 7.37125C10.1267 7.11083 9.83375 6.95458 9.43 6.9025C8.97417 6.91542 8.47604 7.1075 7.93563 7.47875C7.39521 7.85 6.92313 8.32208 6.51937 8.895V9.18813C6.50646 9.31854 6.50646 9.44229 6.51937 9.55937L7.55438 8.36812C7.65854 8.25104 7.76604 8.15979 7.87687 8.09438C7.98771 8.02896 8.07562 8.00937 8.14062 8.03562C8.27104 8.10062 8.31667 8.20479 8.2775 8.34812L6.57812 13.7387C6.48688 14.0642 6.5325 14.354 6.715 14.6081C6.8975 14.8623 7.21646 15.0348 7.67188 15.1256C8.32312 15.1127 8.87 14.924 9.3125 14.5594C9.755 14.1948 10.1652 13.726 10.5431 13.1531V13.1525Z" fill="#0093FF"/>
</svg>
