<svg width="18" height="18" viewBox="0 0 18 18" fill="none" xmlns="http://www.w3.org/2000/svg">
<path d="M11.8261 1.8089C11.8261 1.3049 12.2491 0.899902 12.7441 0.899902C13.2481 0.899902 13.6621 1.3049 13.6621 1.8089V3.2759C13.6801 3.5099 13.5811 3.7349 13.4101 3.9059C13.2391 4.1039 13.0051 4.1849 12.7531 4.1849C12.2491 4.1849 11.8351 3.7799 11.8351 3.2759V1.8089H11.8261ZM8.04611 1.8089C8.04611 1.3049 8.46911 0.899902 8.96411 0.899902C9.46811 0.899902 9.88211 1.3049 9.88211 1.8089V3.2759C9.88211 3.7799 9.45911 4.1849 8.96411 4.1849C8.46011 4.1849 8.04611 3.7799 8.04611 3.2759V1.8089ZM4.26611 1.8089C4.26611 1.3049 4.68011 0.899902 5.18411 0.899902C5.68811 0.899902 6.10211 1.3049 6.10211 1.8089V3.2759C6.10211 3.7799 5.67911 4.1849 5.18411 4.1849C4.68911 4.1849 4.26611 3.7799 4.26611 3.2759V1.8089Z" fill="#E41D1D"/>
<path d="M15.5699 2.36621H14.1479V3.27521C14.1479 4.00421 13.5359 4.58921 12.7979 4.58921C12.0599 4.58921 11.4479 4.00421 11.4479 3.27521V2.36621H10.3499V3.27521C10.3499 4.00421 9.73793 4.58921 8.99993 4.58921C8.26193 4.58921 7.64993 4.00421 7.64993 3.27521V2.36621H6.55193V3.27521C6.55193 4.00421 5.93993 4.58921 5.20193 4.58921C4.46393 4.58921 3.85193 4.00421 3.85193 3.27521V2.36621H2.42093C1.91693 2.36621 1.50293 2.77121 1.50293 3.27521V16.1002C1.50293 16.6042 1.92593 17.0092 2.42093 17.0092H15.5159C16.0199 17.0092 16.4339 16.6042 16.4339 16.1002H16.4879V3.27521C16.4879 2.77121 16.0829 2.36621 15.5699 2.36621ZM13.4999 14.6062H4.42793C3.92393 14.6062 3.50993 14.2012 3.50993 13.6972C3.50993 13.1932 3.93293 12.7882 4.42793 12.7882H13.5179C13.7699 12.7882 13.9949 12.8872 14.1749 13.0852C14.3279 13.2652 14.4269 13.4902 14.4269 13.7242C14.4269 14.2012 14.0039 14.6062 13.4999 14.6062ZM13.4999 11.3122H4.42793C3.92393 11.3122 3.50993 10.9072 3.50993 10.4032C3.50993 9.89921 3.93293 9.49421 4.42793 9.49421H13.5179C13.7699 9.49421 13.9949 9.59321 14.1749 9.79121C14.3279 9.97121 14.4269 10.1962 14.4269 10.4302C14.4269 10.9072 14.0039 11.3122 13.4999 11.3122ZM13.4999 8.01821H4.42793C3.92393 8.01821 3.50993 7.61321 3.50993 7.10921C3.50993 6.60521 3.93293 6.20021 4.42793 6.20021H13.5179C13.7699 6.20021 13.9949 6.28121 14.1749 6.49721C14.3279 6.67721 14.4269 6.90221 14.4269 7.13621C14.4269 7.61321 14.0039 8.01821 13.4999 8.01821Z" fill="#E41D1D"/>
</svg>
