<svg width="14" height="15" viewBox="0 0 14 15" fill="none" xmlns="http://www.w3.org/2000/svg">
<path d="M9.93062 4.68125C10.2062 4.68125 10.4425 4.445 10.4425 4.16937C10.4425 3.89375 10.2062 3.6575 9.93062 3.6575C9.655 3.6575 9.41875 3.89375 9.41875 4.16937C9.41875 4.445 9.655 4.68125 9.93062 4.68125ZM12.6981 0.96875H1.30187C1.23761 0.96875 1.17397 0.981408 1.1146 1.006C1.05523 1.03059 1.00128 1.06664 0.955835 1.11208C0.910392 1.15753 0.874345 1.21148 0.849751 1.27085C0.825158 1.33022 0.8125 1.39386 0.8125 1.45812V13.985C0.8125 14.255 1.03187 14.4744 1.30187 14.4744H12.7037C12.9738 14.4744 13.1931 14.255 13.1931 13.985V1.45812C13.1908 1.3281 13.1377 1.20413 13.0452 1.1127C12.9527 1.02127 12.8282 0.96961 12.6981 0.96875ZM8.04063 3.69688C8.2375 3.69688 8.43438 3.57875 8.5525 3.38188C8.67063 3.185 8.67063 2.94875 8.5525 2.75188C8.78875 2.51562 9.10375 2.31875 9.41875 2.24C9.4975 2.43688 9.73375 2.51562 9.93062 2.51562C10.1275 2.51562 10.3244 2.3975 10.4425 2.20063C10.7969 2.31875 11.0725 2.47625 11.3088 2.7125C11.1906 2.90937 11.1906 3.14562 11.3088 3.3425C11.4269 3.53937 11.6237 3.6575 11.8206 3.6575C11.86 3.815 11.8994 3.9725 11.8994 4.16937C11.8994 4.32687 11.86 4.48437 11.8206 4.64187C11.6237 4.64187 11.4269 4.76 11.3088 4.95688C11.1906 5.15375 11.1906 5.39 11.3088 5.58687C11.0725 5.82312 10.7575 6.02 10.4425 6.09875C10.3638 5.90188 10.1669 5.78375 9.93062 5.78375C9.69437 5.78375 9.4975 5.90187 9.41875 6.13812C9.06437 6.02 8.78875 5.8625 8.5525 5.62625C8.67063 5.42937 8.67063 5.19312 8.5525 4.99625C8.43438 4.79937 8.2375 4.68125 8.04063 4.68125C8.00125 4.52375 7.96187 4.32687 7.96187 4.16937C7.96187 3.9725 8.00125 3.815 8.04063 3.69688ZM1.9375 4.2875C1.9375 4.00625 2.1625 3.78125 2.44375 3.78125H6.48812C6.76937 3.78125 6.99437 4.00625 6.99437 4.2875V4.4C6.99437 4.68125 6.76937 4.90625 6.48812 4.90625H2.44375C2.1625 4.90625 1.9375 4.68125 1.9375 4.4V4.2875ZM2.3875 6.03125H7.66938C7.91688 6.03125 8.11937 6.23375 8.11937 6.48125V6.70062C8.11937 6.94812 7.91688 7.15062 7.66938 7.15062H2.3875C2.14 7.15062 1.9375 6.94812 1.9375 6.70062V6.48125C1.9375 6.23375 2.14 6.03125 2.3875 6.03125ZM1.9375 8.765C1.9375 8.50063 2.15125 8.28125 2.42125 8.28125H9.32875C9.59312 8.28125 9.8125 8.495 9.8125 8.765V8.9225C9.8125 9.18687 9.59875 9.40625 9.32875 9.40625H2.42125C2.15125 9.40625 1.9375 9.1925 1.9375 8.9225V8.765ZM12.0625 11.1106C12.0625 11.4144 11.815 11.6562 11.5169 11.6562H2.48312C2.185 11.6562 1.9375 11.4088 1.9375 11.1106V11.0825C1.9375 10.7787 2.185 10.5369 2.48312 10.5369H11.5113C11.815 10.5369 12.0569 10.7844 12.0569 11.0825V11.1106H12.0625Z" fill="#F53F3F"/>
</svg>
