<?xml version="1.0" encoding="UTF-8"?>
<svg width="143px" height="140px" viewBox="0 0 143 140" version="1.1" xmlns="http://www.w3.org/2000/svg" xmlns:xlink="http://www.w3.org/1999/xlink">
    <title>编组 2</title>
    <defs>
        <linearGradient x1="120.941313%" y1="49.4954%" x2="-25.0486869%" y2="49.4954%" id="linearGradient-1">
            <stop stop-color="#C8CACD" stop-opacity="0" offset="0%"></stop>
            <stop stop-color="#B2B5B8" offset="100%"></stop>
        </linearGradient>
        <linearGradient x1="51.6935863%" y1="9.74361973%" x2="47.7180444%" y2="100.079736%" id="linearGradient-2">
            <stop stop-color="#F4F5F5" offset="0%"></stop>
            <stop stop-color="#B3B6B9" offset="100%"></stop>
        </linearGradient>
        <linearGradient x1="49.2690373%" y1="7.4888973%" x2="51.713845%" y2="99.8533457%" id="linearGradient-3">
            <stop stop-color="#F3F4F4" offset="0%"></stop>
            <stop stop-color="#B3B6B9" offset="100%"></stop>
        </linearGradient>
        <linearGradient x1="49.998268%" y1="100%" x2="49.998268%" y2="1.20252631e-13%" id="linearGradient-4">
            <stop stop-color="#EBEBEB" stop-opacity="0" offset="0%"></stop>
            <stop stop-color="#EBEBEB" stop-opacity="0.02" offset="1%"></stop>
            <stop stop-color="#EAEAEA" stop-opacity="0.25" offset="12%"></stop>
            <stop stop-color="#E9E9E9" stop-opacity="0.45" offset="23%"></stop>
            <stop stop-color="#E8E8E8" stop-opacity="0.62" offset="34%"></stop>
            <stop stop-color="#E7E7E7" stop-opacity="0.76" offset="46%"></stop>
            <stop stop-color="#E7E7E7" stop-opacity="0.86" offset="58%"></stop>
            <stop stop-color="#E6E6E6" stop-opacity="0.94" offset="71%"></stop>
            <stop stop-color="#E6E6E6" stop-opacity="0.99" offset="84%"></stop>
            <stop stop-color="#E6E6E6" offset="100%"></stop>
        </linearGradient>
        <linearGradient x1="50.001732%" y1="100%" x2="50.001732%" y2="6.01263157e-14%" id="linearGradient-5">
            <stop stop-color="#EBEBEB" stop-opacity="0" offset="0%"></stop>
            <stop stop-color="#EBEBEB" stop-opacity="0.02" offset="1%"></stop>
            <stop stop-color="#EAEAEA" stop-opacity="0.25" offset="12%"></stop>
            <stop stop-color="#E9E9E9" stop-opacity="0.45" offset="23%"></stop>
            <stop stop-color="#E8E8E8" stop-opacity="0.62" offset="34%"></stop>
            <stop stop-color="#E7E7E7" stop-opacity="0.76" offset="46%"></stop>
            <stop stop-color="#E7E7E7" stop-opacity="0.86" offset="58%"></stop>
            <stop stop-color="#E6E6E6" stop-opacity="0.94" offset="71%"></stop>
            <stop stop-color="#E6E6E6" stop-opacity="0.99" offset="84%"></stop>
            <stop stop-color="#E6E6E6" offset="100%"></stop>
        </linearGradient>
        <linearGradient x1="49.9933238%" y1="100%" x2="49.9933238%" y2="-3.31158863e-14%" id="linearGradient-6">
            <stop stop-color="#EBEBEB" stop-opacity="0" offset="0%"></stop>
            <stop stop-color="#EBEBEB" stop-opacity="0.02" offset="1%"></stop>
            <stop stop-color="#EAEAEA" stop-opacity="0.25" offset="12%"></stop>
            <stop stop-color="#E9E9E9" stop-opacity="0.45" offset="23%"></stop>
            <stop stop-color="#E8E8E8" stop-opacity="0.62" offset="34%"></stop>
            <stop stop-color="#E7E7E7" stop-opacity="0.76" offset="46%"></stop>
            <stop stop-color="#E7E7E7" stop-opacity="0.86" offset="58%"></stop>
            <stop stop-color="#E6E6E6" stop-opacity="0.94" offset="71%"></stop>
            <stop stop-color="#E6E6E6" stop-opacity="0.99" offset="84%"></stop>
            <stop stop-color="#E6E6E6" offset="100%"></stop>
        </linearGradient>
        <linearGradient x1="49.936589%" y1="100.010607%" x2="49.936589%" y2="-43.7690237%" id="linearGradient-7">
            <stop stop-color="#F8F8F9" offset="0%"></stop>
            <stop stop-color="#E2E3E4" offset="100%"></stop>
        </linearGradient>
        <linearGradient x1="63.9834654%" y1="67.7357921%" x2="66.3071245%" y2="31.6506392%" id="linearGradient-8">
            <stop stop-color="#E2E2E2" offset="0%"></stop>
            <stop stop-color="#F5F5F5" offset="100%"></stop>
        </linearGradient>
        <linearGradient x1="50.0130366%" y1="99.9993289%" x2="50.0130366%" y2="-0.0724832215%" id="linearGradient-9">
            <stop stop-color="#FFFFFF" offset="0%"></stop>
            <stop stop-color="#EAEAEA" offset="98.1324949%"></stop>
            <stop stop-color="#FCFAF9" offset="100%"></stop>
        </linearGradient>
        <linearGradient x1="0%" y1="49.9538319%" x2="100%" y2="49.9538319%" id="linearGradient-10">
            <stop stop-color="#EEEEEE" offset="0%"></stop>
            <stop stop-color="#DDDDDD" offset="3%"></stop>
            <stop stop-color="#D8D8D8" offset="100%"></stop>
        </linearGradient>
        <linearGradient x1="50.033314%" y1="-0.00416424419%" x2="50.033314%" y2="100.06851%" id="linearGradient-11">
            <stop stop-color="#EFF0F1" offset="0%"></stop>
            <stop stop-color="#BCBEC1" offset="100%"></stop>
        </linearGradient>
        <linearGradient x1="50.033314%" y1="-0.00416424419%" x2="50.033314%" y2="100.06851%" id="linearGradient-12">
            <stop stop-color="#EFF0F1" offset="0%"></stop>
            <stop stop-color="#BCBEC1" offset="100%"></stop>
        </linearGradient>
        <linearGradient x1="50.033314%" y1="-0.00416424419%" x2="50.033314%" y2="100.06851%" id="linearGradient-13">
            <stop stop-color="#EFF0F1" offset="0%"></stop>
            <stop stop-color="#BCBEC1" offset="100%"></stop>
        </linearGradient>
        <linearGradient x1="50.033314%" y1="-0.00416424419%" x2="50.033314%" y2="100.06851%" id="linearGradient-14">
            <stop stop-color="#EFF0F1" offset="0%"></stop>
            <stop stop-color="#BCBEC1" offset="100%"></stop>
        </linearGradient>
        <linearGradient x1="0%" y1="50%" x2="100%" y2="50%" id="linearGradient-15">
            <stop stop-color="#EEEEEE" offset="0%"></stop>
            <stop stop-color="#DDDDDD" offset="3%"></stop>
            <stop stop-color="#D8D8D8" offset="100%"></stop>
        </linearGradient>
        <linearGradient x1="50.033314%" y1="-0.00416424419%" x2="50.033314%" y2="100.06851%" id="linearGradient-16">
            <stop stop-color="#EFF0F1" offset="0%"></stop>
            <stop stop-color="#BCBEC1" offset="100%"></stop>
        </linearGradient>
        <linearGradient x1="50.033314%" y1="-0.00416424419%" x2="50.033314%" y2="100.06851%" id="linearGradient-17">
            <stop stop-color="#EFF0F1" offset="0%"></stop>
            <stop stop-color="#BCBEC1" offset="100%"></stop>
        </linearGradient>
        <linearGradient x1="50.033314%" y1="-0.00416424419%" x2="50.033314%" y2="100.06851%" id="linearGradient-18">
            <stop stop-color="#EFF0F1" offset="0%"></stop>
            <stop stop-color="#BCBEC1" offset="100%"></stop>
        </linearGradient>
        <linearGradient x1="50.033314%" y1="-0.00416424419%" x2="50.033314%" y2="100.06851%" id="linearGradient-19">
            <stop stop-color="#EFF0F1" offset="0%"></stop>
            <stop stop-color="#BCBEC1" offset="100%"></stop>
        </linearGradient>
        <linearGradient x1="50.033314%" y1="-0.00416424419%" x2="50.033314%" y2="100.06851%" id="linearGradient-20">
            <stop stop-color="#EFF0F1" offset="0%"></stop>
            <stop stop-color="#BCBEC1" offset="100%"></stop>
        </linearGradient>
        <linearGradient x1="50.033314%" y1="-0.00416424419%" x2="50.033314%" y2="100.06851%" id="linearGradient-21">
            <stop stop-color="#EFF0F1" offset="0%"></stop>
            <stop stop-color="#BCBEC1" offset="100%"></stop>
        </linearGradient>
        <linearGradient x1="50.033314%" y1="-0.00416424419%" x2="50.033314%" y2="100.06851%" id="linearGradient-22">
            <stop stop-color="#EFF0F1" offset="0%"></stop>
            <stop stop-color="#BCBEC1" offset="100%"></stop>
        </linearGradient>
        <linearGradient x1="50.033314%" y1="-0.00416424419%" x2="50.033314%" y2="100.06851%" id="linearGradient-23">
            <stop stop-color="#EFF0F1" offset="0%"></stop>
            <stop stop-color="#BCBEC1" offset="100%"></stop>
        </linearGradient>
        <linearGradient x1="50.033314%" y1="-0.00416424419%" x2="50.033314%" y2="100.06851%" id="linearGradient-24">
            <stop stop-color="#EFF0F1" offset="0%"></stop>
            <stop stop-color="#BCBEC1" offset="100%"></stop>
        </linearGradient>
        <linearGradient x1="50.033314%" y1="-0.00416424419%" x2="50.033314%" y2="100.06851%" id="linearGradient-25">
            <stop stop-color="#EFF0F1" offset="0%"></stop>
            <stop stop-color="#BCBEC1" offset="100%"></stop>
        </linearGradient>
        <linearGradient x1="50.033314%" y1="-0.00416424419%" x2="50.033314%" y2="100.06851%" id="linearGradient-26">
            <stop stop-color="#EFF0F1" offset="0%"></stop>
            <stop stop-color="#BCBEC1" offset="100%"></stop>
        </linearGradient>
        <linearGradient x1="50.033314%" y1="-0.00416424419%" x2="50.033314%" y2="100.06851%" id="linearGradient-27">
            <stop stop-color="#EFF0F1" offset="0%"></stop>
            <stop stop-color="#BCBEC1" offset="100%"></stop>
        </linearGradient>
        <linearGradient x1="50.033314%" y1="-0.00416424419%" x2="50.033314%" y2="100.06851%" id="linearGradient-28">
            <stop stop-color="#EFF0F1" offset="0%"></stop>
            <stop stop-color="#BCBEC1" offset="100%"></stop>
        </linearGradient>
        <linearGradient x1="0%" y1="49.8089172%" x2="100%" y2="49.8089172%" id="linearGradient-29">
            <stop stop-color="#EEEEEE" offset="0%"></stop>
            <stop stop-color="#D8D8D8" offset="100%"></stop>
        </linearGradient>
        <linearGradient x1="0%" y1="50.3242542%" x2="100%" y2="50.3242542%" id="linearGradient-30">
            <stop stop-color="#EEEEEE" offset="0%"></stop>
            <stop stop-color="#D8D8D8" offset="100%"></stop>
        </linearGradient>
        <linearGradient x1="83.2106876%" y1="12.0149381%" x2="29.2655922%" y2="100%" id="linearGradient-31">
            <stop stop-color="#BCBEC1" offset="0%"></stop>
            <stop stop-color="#EFF0F1" offset="100%"></stop>
        </linearGradient>
    </defs>
    <g id="页面-2" stroke="none" stroke-width="1" fill="none" fill-rule="evenodd">
        <g id="监控-慢SQL查询-正在开发中" transform="translate(-725.000000, -418.000000)">
            <rect fill="none" x="0" y="0" width="1440" height="1024"></rect>
            <rect id="矩形备份-19" fill="none" fill-rule="nonzero" x="225" y="113" width="1200" height="835" rx="3"></rect>
            <g id="编组-2" transform="translate(725.000000, 418.000000)" fill-rule="nonzero">
                <g id="基础组件" opacity="0.9">
                    <g id="3">
                        <rect id="矩形" fill-opacity="0" fill="#FFFFFF" x="0" y="0" width="140" height="140"></rect>
                        <ellipse id="椭圆形" fill="url(#linearGradient-1)" opacity="0.331" cx="70" cy="114.294444" rx="19.25" ry="1.94444444"></ellipse>
                        <g id="编组备份-2" opacity="0.7794" transform="translate(16.684563, 71.954305)">
                            <ellipse id="椭圆形_1_" fill="#9DA1A6" opacity="0.5988" cx="6.15988148" cy="10.6512508" rx="2.25555556" ry="1"></ellipse>
                            <path d="M4.17654815,10.6512508 C4.79877037,10.923473 7.8321037,6.17902854 8.25988148,4.9345841 C8.68765926,3.69013965 8.22099259,2.29013965 7.20988148,1.86236187 C6.19877037,1.4345841 5.0321037,2.09569521 4.60432592,3.37902854 C4.17654815,4.66236187 3.51543704,10.3790285 4.17654815,10.6512508 Z" id="椭圆形_2_" fill="url(#linearGradient-2)" opacity="0.5765"></path>
                            <path d="M4.29321481,10.6512508 C5.07099259,10.4179174 4.95432592,3.69013965 4.56543704,2.17347299 C4.17654815,0.656806313 2.89321481,-0.27652702 1.64877037,0.07347298 C0.404325927,0.42347298 -0.256785184,1.94013965 0.0932148158,3.45680632 C0.443214816,4.97347299 3.51543704,10.8845841 4.29321481,10.6512508 Z" id="椭圆形_3_" fill="url(#linearGradient-3)"></path>
                        </g>
                        <path d="M58.2687784,83.8038204 C57.1918059,83.8063214 56.1190084,83.935323 55.0732714,84.1880734 C53.1745628,80.5408726 48.9677162,78 44.0692438,78 C38.3829052,78 33.629609,81.4246543 32.3377042,86.0324875 C32.2186271,86.0324875 32.1011812,86.0132748 31.9821041,86.0132748 C27.9041218,86.0132748 24.4345744,88.9944372 23.1818182,93.1363636 L70.2727273,93.1363636 C69.5892574,87.8849068 64.4787299,83.8038204 58.2687784,83.8038204 Z" id="路径" fill="url(#linearGradient-4)" opacity="0.546178182"></path>
                        <path d="M37.0869602,94.6690578 C36.0106347,94.671727 34.9384616,94.8001819 33.8930844,95.0517097 C31.9927447,91.4045089 27.7858981,88.8636364 22.8890568,88.8636364 C17.201087,88.8636364 12.449422,92.2898917 11.155886,96.8977249 C11.0368089,96.8977249 10.9209942,96.8769112 10.8002859,96.8769112 C6.72230357,96.8769112 3.25275618,99.8596746 2,104 L49.0909091,104 C48.4074392,98.7501442 43.2969118,94.6690578 37.0869602,94.6690578 Z" id="路径" fill="url(#linearGradient-5)" opacity="0.538358416"></path>
                        <path d="M78.4314332,86.890868 C80.391731,86.8957058 82.3443985,87.1323433 84.2477812,87.5957326 C87.7065041,80.9092193 95.3732852,76.25 104.286777,76.25 C114.643313,76.25 123.306481,82.5291145 125.652653,90.9777891 C125.870255,90.9777891 126.082948,90.9406059 126.307095,90.9406059 C133.748093,90.9406059 140.050364,96.4081561 142.340909,104 L56.5681818,104 C57.8132566,94.3743956 67.1210496,86.890868 78.4314332,86.890868 Z" id="路径" fill="url(#linearGradient-6)" opacity="0.538358416"></path>
                        <path d="M22.2444444,26.6 C22.0888889,26.6 21.9333333,26.6 21.7777778,26.5611111 C21.5833333,26.6 21.3888889,26.6 21.1944444,26.6 C18.2,26.6 15.75,24.1888889 15.75,21.1555556 C15.75,18.1222222 18.1611111,15.7111111 21.1944444,15.7111111 C21.5444444,15.7111111 21.8944444,15.75 22.2055556,15.7888889 C23.45,13.4555556 25.9,11.8611111 28.7388889,11.8611111 C32.7833333,11.8611111 36.0888889,15.1666667 36.0888889,19.2111111 L36.0888889,19.2111111 L40.4444444,19.2111111 C42.4666667,19.2111111 44.1388889,20.8444444 44.1388889,22.9055556 C44.1388889,24.9666667 42.5055556,26.6 40.4444444,26.6 L22.2444444,26.6 Z" id="形状结合" fill="url(#linearGradient-7)" opacity="0.716520764"></path>
                    </g>
                </g>
                <g id="编组-6" transform="translate(36.000000, 46.000000)">
                    <g id="组_13">
                        <path d="M5.25415129,0 L54.7458487,0 C55.9912362,0 57,1.0152439 57,2.26863144 L57,35 L3,35 L3,2.26863144 C3,1.0152439 4.00876384,0 5.25415129,0 Z" id="圆角矩形_13" fill="#EDEDED"></path>
                        <path d="M5.25415129,2 L54.7458487,2 C55.9912362,2 57,3.00070597 57,4.23614543 L57,35 L3,35 L3,4.23614543 C3,3.00070597 4.00876384,2 5.25415129,2 Z" id="圆角矩形_13_拷贝" fill="url(#linearGradient-8)"></path>
                        <path d="M8.85957959,5 L50.5197308,5 C51.718584,5 52.6896552,5.94343325 52.6896552,7.10816565 L52.6896552,29.8918343 C52.6896552,31.0565668 51.718584,32 50.5197308,32 L8.85957959,32 C7.66072632,32 6.68965517,31.0565668 6.68965517,29.8918343 L6.68965517,7.10816565 C6.68965517,5.94343325 7.66072632,5 8.85957959,5 Z" id="圆角矩形_14" fill="#FFFFFF"></path>
                        <path d="M2.98780244,36 L56.7434513,36 L62,46.6305419 C62,47.9369458 60.9710058,49 59.7188562,49 C59.7188562,49 59.7188562,49 59.7188562,49 L2.29354129,49 C1.0289942,49 0,48.1802956 0,46.8738916 L2.98780244,36 Z" id="圆角矩形_15" fill="#A0A0A0"></path>
                        <path d="M2.98780244,35 L56.7434513,35 L62,45.6305419 C62,46.9369458 60.9710058,48 59.7064587,48 L2.29354129,48 C1.0289942,48 0,47.1802956 0,45.8738916 L2.98780244,35 Z" id="圆角矩形_15-2" fill="#D5D7DA"></path>
                        <path d="M23.7674549,39 L37.8244583,39 C38.0224443,39 39,42.2747731 39,42.2747731 C39,42.6774091 38.7277693,42.9995179 38.4060421,42.9995179 L23.5942171,42.9995179 C23.2724899,43.0129391 23.0126334,42.7445151 23.0002592,42.3955639 C23.0002592,42.3821427 23.0002592,42.3687215 23.0002592,42.3418791 C22.9878851,42.3553003 23.4209794,39 23.7674549,39 Z" id="圆角矩形_15_拷贝" fill="#EBCBC9"></path>
                        <path d="M23.8139905,39 L37.7917329,39 C37.9952305,39 39,42.2751678 39,42.2751678 C39,42.6778523 38.7201908,43 38.3895072,43 L23.8521463,43 C23.508744,43 23,42.7449664 23,42.3422819 C23.0127186,42.3422819 23.4578696,39 23.8139905,39 Z" id="圆角矩形_15_拷贝_2" fill="url(#linearGradient-9)"></path>
                    </g>
                    <g id="开发备份" transform="translate(43.000000, 10.000000)">
                        <path d="M19.1366907,27.8082191 L15.8936016,26.1113345 C15.8203544,26.0720894 15.7526238,26.0240144 15.6920536,25.9682768 C15.4550234,25.756048 15.1910802,25.5733999 14.9064749,25.4246575 L18.1495639,27.1193412 C18.4348653,27.2689673 18.6995472,27.4523337 18.9374331,27.6651612 C18.9972291,27.7208208 19.0641923,27.7688972 19.1366907,27.8082191 L19.1366907,27.8082191 Z" id="路径" fill="url(#linearGradient-10)"></path>
                        <path d="M19.1366907,27.8082191 L15.8936016,26.1113345 C15.8203544,26.0720894 15.7526238,26.0240144 15.6920536,25.9682768 C15.4550234,25.756048 15.1910802,25.5733999 14.9064749,25.4246575 L18.1495639,27.1193412 C18.4348653,27.2689673 18.6995472,27.4523337 18.9374331,27.6651612 C18.9972291,27.7208208 19.0641923,27.7688972 19.1366907,27.8082191" id="路径" fill="url(#linearGradient-10)"></path>
                        <path d="M25.9372,10.4374023 L22.76259,8.73972599 L22.9350987,8.82571221 C23.2868376,8.99327506 23.7125085,9.01532281 24.0776895,9.15863314 C24.1276851,9.17743811 24.1763365,9.19953588 24.2233139,9.22477638 L27.3956835,10.9246575 C27.3492513,10.899856 27.3013734,10.87777 27.2522995,10.8585142 C26.8848783,10.7129991 26.4614476,10.6909514 26.1074683,10.5255934 L25.9372,10.4374023 Z" id="路径" fill="url(#linearGradient-11)"></path>
                        <g id="路径" transform="translate(22.806331, 8.662441)">
                            <path d="M0,0 L0.142733813,0.0693399745 L3.40489208,1.73783312 C3.35654676,1.71616438 3.30820144,1.69449563 3.26215828,1.66849315 L0,0 Z" fill="url(#linearGradient-12)"></path>
                            <path d="M3.83539569,1.88518057 L0.57323741,0.214520547 C0.729784174,0.253524284 0.89323741,0.275193024 1.04978418,0.312029886 L4.31333061,2.06413887 C4.15448169,2.02513514 4.20403533,2.04978448 4.10428103,2.00587355" fill="url(#linearGradient-13)"></path>
                            <path d="M4.26359264,2.04844617 L1.04978418,0.312029886 C1.15221096,0.336478599 1.25293122,0.366872986 1.35136691,0.403038604 C1.38443345,0.414951023 1.41672034,0.428698693 1.44805755,0.444209214 L4.77233352,2.26221668 L4.62557226,2.1782479 C4.52713658,2.14208227 4.32966628,2.08340121 4.28865727,2.04844617 L4.26359264,2.04844617 Z" fill="url(#linearGradient-14)"></path>
                            <polyline fill="url(#linearGradient-15)" points="4.71021583 2.12136986 1.44805755 0.452876711 1.5010072 0.476712327 4.76086332 2.14737235 4.71021583 2.12136986"></polyline>
                        </g>
                        <path d="M20.3432723,17.3935625 C20.402765,17.261544 20.4599694,17.1250504 20.5125978,16.9907943 L20.5263269,16.9527551 C20.527238,16.9453231 20.527238,16.9378111 20.5263269,16.9303791 C20.5446322,16.8789143 20.5629378,16.8274494 20.5789549,16.7759846 C20.5949721,16.7245198 20.6109896,16.6887182 20.6247187,16.6439661 C20.6384477,16.5992141 20.656753,16.5387989 20.6727705,16.487334 L20.7139576,16.3508404 L20.7551449,16.1897331 C20.7665858,16.1449811 20.7780266,16.100229 20.7871795,16.0554771 C20.7963323,16.010725 20.8123494,15.9458346 20.8237904,15.8898945 L20.8512485,15.7556385 L20.8787067,15.5833432 L20.8993003,15.4513247 C20.8993003,15.3909095 20.9130294,15.3282566 20.919894,15.2678414 C20.9267585,15.2074261 20.9313349,15.1850502 20.9359112,15.1447733 L20.9496403,14.9433893 L20.9496403,14.8337467 C20.9496403,14.7308171 20.9496403,14.6256498 20.9496403,14.5227202 C20.9496403,12.5088791 19.9497051,10.8754303 18.432641,10.0676562 L15.1925764,8.34246573 C16.7119287,9.15023975 17.7095757,10.781451 17.7095757,12.7975297 C17.7095757,12.902697 17.7095757,13.0056266 17.7095757,13.1107939 C17.7095757,13.1465955 17.7095757,13.1823971 17.7095757,13.2181987 L17.6958466,13.4195828 L17.6821175,13.5426509 C17.6821175,13.6053037 17.6683884,13.665719 17.6592357,13.7283718 C17.650083,13.7910246 17.6455066,13.8156382 17.6386421,13.8581527 L17.6111839,14.0304479 L17.5837257,14.164704 L17.549403,14.3325241 L17.5150803,14.4667802 L17.4738931,14.6278874 L17.4327058,14.7621436 C17.4189767,14.8136084 17.4029594,14.8673108 17.3869422,14.9187757 C17.3709249,14.9702405 17.3549076,15.0082797 17.3411785,15.0530317 L17.2862622,15.2051886 L17.2633804,15.2656038 C17.2107522,15.4020975 17.1558359,15.5363536 17.094055,15.668372 C17.0889311,15.6829274 17.0828156,15.6971307 17.0757495,15.7108864 C17.0139686,15.8473801 16.9453232,15.9793986 16.8743896,16.111417 L16.8309141,16.1919707 C16.7691332,16.3016132 16.7073524,16.4157308 16.6387069,16.5164229 C16.639364,16.520875 16.639364,16.5253963 16.6387069,16.5298485 C16.5746379,16.6327781 16.5059924,16.7312326 16.437347,16.8296871 L16.375566,16.9169535 L16.2131052,17.1407136 L16.1581889,17.2100792 C16.0849671,17.2995833 16.0094571,17.3890873 15.9293708,17.4763538 L15.881319,17.5278187 C15.8172498,17.5971842 15.7508926,17.6643123 15.6845353,17.7314403 L15.6067372,17.8075188 C15.5426681,17.8701716 15.4785991,17.9305868 15.4099536,17.9910021 L15.3481727,18.046942 C15.2566454,18.1274957 15.16283,18.2058118 15.0667265,18.2707022 L15.0003692,18.322167 C14.9202828,18.3825822 14.8401965,18.4407599 14.757822,18.4967 L14.6846001,18.5459272 C14.5633265,18.6287184 14.4397648,18.7047968 14.3116266,18.7696872 L14.2429812,18.8077264 C14.1125549,18.8793297 13.9821285,18.9464578 13.8471258,19.0091106 L13.7807686,19.0381994 C13.6892413,19.0807138 13.5954259,19.118753 13.4993223,19.1567922 L13.4123714,19.1903563 C13.2956742,19.2328707 13.1835533,19.2731475 13.0622797,19.3067116 L13.0142278,19.3201372 C12.9089716,19.3514635 12.8037152,19.3783148 12.6984588,19.4006908 L12.6023552,19.4230668 C12.4787935,19.4476804 12.3575199,19.472294 12.2339581,19.4879573 C12.1103963,19.5036205 11.9204772,19.5237589 11.7763218,19.5304716 L11.6344547,19.5304716 C11.5291983,19.5304716 11.4239419,19.5304716 11.3186857,19.5304716 L11.1608011,19.5304716 C11.0601211,19.5304716 10.9594412,19.5125709 10.8610494,19.4991453 L10.7191821,19.4812444 C10.5933322,19.461106 10.4674822,19.4364924 10.3439204,19.405166 L10.2981568,19.405166 C10.1585778,19.3693644 10.0235751,19.3268499 9.89086058,19.2798604 L9.7718751,19.2351083 C9.67805963,19.1993067 9.58653237,19.1612675 9.49500522,19.118753 C9.40347793,19.0762387 9.33712067,19.0471498 9.26618706,19.006873 L12.5085399,20.7298258 C12.5634562,20.7611524 12.6206607,20.7880036 12.675577,20.8148548 L12.7419343,20.8439436 C12.8311734,20.8842205 12.9249888,20.9222597 13.0188043,20.9602988 L13.1355014,21.0050509 C13.2705041,21.0520405 13.4055069,21.0945548 13.5450859,21.1303566 L13.5450859,21.1303566 L13.5862732,21.1303566 C13.709835,21.1594453 13.8356849,21.1840589 13.9615349,21.2064351 L14.1034021,21.2243358 C14.2017939,21.2377614 14.3024739,21.2467118 14.4031539,21.2534246 L14.5610384,21.2534246 C14.6632438,21.2534246 14.7685002,21.2534246 14.8768074,21.2534246 L15.0186747,21.2534246 C15.1719827,21.2534246 15.3275791,21.2332863 15.4763108,21.2109102 C15.6250427,21.1885341 15.7234344,21.1706333 15.8447081,21.1460197 L15.9430998,21.1236436 L16.2588688,21.0430901 L16.3069207,21.0296645 C16.4236178,20.9938629 16.5357388,20.9558236 16.6547242,20.9133092 L16.7439633,20.8775075 C16.8377787,20.841706 16.9338823,20.8014292 17.0254095,20.7611524 L17.0757495,20.7410139 L17.0917668,20.7410139 C17.2267695,20.6783612 17.3571958,20.6112331 17.4876221,20.5396297 L17.5562676,20.499353 C17.6844057,20.4277497 17.8079675,20.3494336 17.9292411,20.2755929 L17.9544111,20.2599297 L18.002463,20.2263656 C18.0848374,20.168188 18.1649238,20.1122479 18.231281,20.0518328 L18.2999265,20.000368 C18.3960301,19.926527 18.4898455,19.8482111 18.5813727,19.7766078 L18.5973901,19.7631821 L18.6431536,19.7206678 C18.7095109,19.6602525 18.7758681,19.5998373 18.8399373,19.5371845 L18.9177354,19.461106 C18.9840927,19.393978 19.0481617,19.3268499 19.1122308,19.2552467 L19.1511299,19.2172075 L19.1511299,19.2037819 C19.2289281,19.118753 19.304438,19.029249 19.379948,18.9375073 L19.4325762,18.8681417 C19.4905435,18.7980303 19.5454597,18.7234435 19.5973252,18.6443816 L19.6316479,18.5996296 L19.6591061,18.5593528 C19.7277516,18.4608983 19.796397,18.3602062 19.8604661,18.2595142 L19.8604661,18.2460886 C19.9268233,18.1386837 19.9908924,18.0223284 20.0526733,17.9193988 L20.0755551,17.8813596 L20.0961487,17.8410827 C20.1670824,17.7090643 20.2334396,17.5770459 20.2975086,17.4405521 C20.3318314,17.4204138 20.3364077,17.4069882 20.3432723,17.3935625 Z" id="路径" fill="url(#linearGradient-16)"></path>
                        <path d="M8.99962717,28.0569148 L5.82259864,26.4464691 C5.29921027,26.164433 4.80424045,25.8328542 4.34452619,25.4563127 C4.21883002,25.3294874 4.11245021,25.1849806 4.02877699,25.0273972 L7.27092655,26.784126 C7.35389782,26.9415628 7.45950104,27.0860618 7.58438774,27.2130415 C8.04522983,27.5898249 8.4757864,27.7735639 8.99962717,28.0569148 Z" id="路径" fill="url(#linearGradient-17)"></path>
                        <path d="M5.82259864,26.4464691 C5.29921027,26.164433 4.80424045,25.8328542 4.34452619,25.4563127 C4.21883002,25.3294874 4.08885325,25.2526797 4.00518003,25.0950963 L7.245825,26.6869074 C7.32879627,26.8443443 7.51853082,27.0492775 7.64341753,27.1762572 C8.13915323,27.5232053 8.56065617,27.8179718 9.08449695,28.1013226 L5.82259864,26.4464691 Z" id="路径" fill="url(#linearGradient-18)"></path>
                        <path d="M2.01438849,19.068493 L5.22001533,20.7884652 C5.98334122,21.2236177 6.58697227,21.8869026 6.94385983,22.6826682 C7.54335955,23.9045183 7.58860483,25.2425226 7.21080687,26.8150684 L4.00518003,25.0950963 C4.38297797,23.5314854 4.33773271,22.1912475 3.74049525,20.9604624 C3.38408679,20.1642553 2.77929851,19.5013525 2.01438849,19.068493 Z" id="路径" fill="url(#linearGradient-19)"></path>
                        <path d="M4.00518003,25.0950963 C4.38297797,23.5314854 4.33773271,22.1912475 3.74049525,20.9604624 C3.38408679,20.1642553 2.77929851,19.5013525 2.01438849,19.068493 L5.30327091,20.6659165 C6.0665968,21.1010691 6.64127945,21.7952089 6.998167,22.5909744 C7.59766673,23.8128246 7.64851979,25.2084505 7.21080687,26.8150684 L4.00518003,25.0950963 Z" id="路径" fill="url(#linearGradient-20)"></path>
                        <path d="M19.9322208,1.74229261 C20.0935536,1.79104381 20.2526141,1.84422693 20.4094025,1.89962601 L20.5548293,1.95280913 C20.6661718,1.99491243 20.7820586,2.03479977 20.8843119,2.07911904 L21.0433724,2.14559792 C21.1524425,2.1899172 21.2592403,2.23866838 21.3660381,2.28741959 L21.5023758,2.34946656 C21.6523472,2.42037737 21.8023187,2.49350417 21.9568345,2.57106288 L18.7392664,0.862555196 C18.6074734,0.793860334 18.4779527,0.727381435 18.3438874,0.665334464 L18.2916246,0.64095887 L18.155287,0.578911898 C18.0484892,0.530160706 17.9416914,0.481409513 17.8326212,0.437090247 L17.6735606,0.370611348 L17.3463503,0.246517405 L17.2009236,0.193334287 C17.041863,0.137935206 16.8828024,0.084752087 16.7214695,0.0337849316 L16.6601176,0.0182731887 L16.5874042,0.00497740904 L16.5351415,0.00497740904 C16.4876659,-0.00165913635 16.4394624,-0.00165913635 16.391987,0.00497740904 C16.3479397,0.0102780106 16.3050085,0.0222399871 16.2647384,0.0404328214 L16.2647384,0.0404328214 C16.2372764,0.0535185837 16.210711,0.0683225632 16.1852082,0.084752087 L16.1693021,0.0980478668 L16.1465792,0.115775572 C16.1346752,0.123957066 16.1232927,0.132837327 16.1124948,0.142367132 C16.0947116,0.158277088 16.0780126,0.17530235 16.0625043,0.193334287 L16.037509,0.217709883 C16.037509,0.217709883 16.037509,0.217709883 16.037509,0.217709883 C16.0012345,0.258082079 15.9671054,0.30024067 15.9352559,0.344019791 C15.8693594,0.430442358 15.8034628,0.514648963 15.735294,0.596639604 C15.7148434,0.623231162 15.6921204,0.647606759 15.6693975,0.674198318 C15.6466745,0.700789878 15.5785057,0.782780519 15.5307875,0.835963636 L15.4717079,0.898010609 C15.4126283,0.962273544 15.3535487,1.02432051 15.2921967,1.08415153 L15.2103942,1.16614217 C15.1558591,1.21932529 15.0990517,1.27029244 15.0422444,1.32125959 L14.9627141,1.39438638 C14.8786393,1.4652972 14.7968366,1.53399207 14.7104895,1.60047097 L14.699128,1.60047097 C14.6105086,1.66916583 14.5196168,1.73342876 14.4287251,1.79547573 L14.3605562,1.84201096 C14.2560307,1.91070583 14.1515053,1.97496876 14.0447074,2.03701573 L14.0219845,2.05031152 C13.910642,2.11235849 13.7947551,2.16997353 13.6834126,2.22315663 L13.6061547,2.25861205 C13.5213224,2.29702208 13.4372475,2.3324775 13.3539301,2.3649783 L13.3130287,2.38049003 C13.2153201,2.41816142 13.1176115,2.4491849 13.0199029,2.48020839 L12.9381003,2.50236802 L12.7108709,2.55998305 L12.6245237,2.57992673 C12.5245429,2.59987041 12.4268342,2.61759811 12.3268533,2.63089389 C12.2268723,2.64418966 12.0859902,2.65748544 11.9655585,2.66413334 L11.5997192,2.66413334 L11.474743,2.66413334 C11.3906681,2.66413334 11.3088656,2.64862159 11.227063,2.63754179 L11.1134483,2.62424601 C10.9998336,2.60651831 10.8862189,2.58435867 10.7748766,2.55555114 L10.7612428,2.55555114 C10.6453558,2.52452766 10.5340134,2.48907224 10.4158541,2.4491849 L10.3136009,2.40929757 C10.234828,2.37827408 10.1552978,2.34503462 10.07501,2.30957922 C10.0068412,2.27855574 9.93867243,2.24753225 9.87050363,2.21207683 L13.090344,3.91836855 L13.2357708,3.99371131 L13.2948504,4.0180869 C13.3721085,4.0535423 13.4516387,4.08678177 13.5220798,4.11558929 L13.6266053,4.15769258 C13.74022,4.19757991 13.8538347,4.23303534 13.971994,4.26184287 L13.9856278,4.26184287 C14.0969702,4.28843442 14.2128572,4.31059405 14.3241996,4.32832175 L14.4355419,4.34383349 C14.5196168,4.34383349 14.6014194,4.36377717 14.6854943,4.3682091 C14.7271222,4.3704143 14.7688424,4.3704143 14.8104705,4.3682091 C14.8945452,4.3682091 14.9786201,4.3682091 15.062695,4.3682091 L15.1763097,4.3682091 C15.2974988,4.3682091 15.4179303,4.35712928 15.5376044,4.33496964 C15.6375853,4.32167388 15.735294,4.30394616 15.8352749,4.28178652 L15.9216221,4.26405882 L16.1488515,4.20644376 L16.2283817,4.18206818 C16.3260904,4.15326066 16.423799,4.12002121 16.5215076,4.08456581 L16.5646813,4.06683808 C16.6487562,4.0358146 16.7328311,4.0003592 16.8146336,3.96268782 L16.8555348,3.94717608 C16.8679272,3.93967237 16.8808339,3.93300877 16.8941639,3.9272324 C17.0077785,3.87404928 17.1213932,3.81643425 17.2327356,3.75438726 L17.2554586,3.73887552 C17.3622564,3.67904453 17.466782,3.61256562 17.5713075,3.54387076 L17.6122087,3.51949516 L17.6394763,3.49955149 C17.730368,3.43750452 17.8212598,3.3732416 17.9098792,3.30454673 L17.9098792,3.30454673 C17.9939541,3.24028378 18.078029,3.17158892 18.1598315,3.09846214 L18.1916437,3.07408655 L18.2416341,3.02755133 L18.4097839,2.87021793 L18.4915864,2.79044326 C18.550666,2.73061224 18.612018,2.66856528 18.6710976,2.60430232 C18.6847315,2.58657462 18.7006375,2.57327884 18.7165435,2.55555114 L18.7301773,2.5400394 L18.8687872,2.38049003 C18.8892379,2.35389848 18.9119609,2.32952288 18.9346838,2.30293133 C19.0028526,2.22020203 19.0687491,2.13599543 19.1323733,2.05031152 C19.1675636,2.00246644 19.2054955,1.95659689 19.245988,1.91292179 L19.2709832,1.88854619 C19.2972903,1.86097782 19.3253721,1.83507241 19.3550581,1.81098748 L19.377781,1.79547573 C19.4086666,1.77188931 19.4422104,1.75181588 19.477762,1.73564473 C19.5191079,1.71774295 19.5626362,1.70508269 19.6072827,1.69797335 C19.6548311,1.69242213 19.7028888,1.69242213 19.7504372,1.69797335 L19.8027,1.69797335 C19.8467501,1.71018728 19.8900026,1.72498738 19.9322208,1.74229261 L19.9322208,1.74229261 Z" id="路径" fill="url(#linearGradient-21)"></path>
                        <path d="M0.320695353,18.5238363 C0.121243362,18.4104496 0.00714730866,18.1908814 0.0292846634,17.9630413 C0.00895368515,16.3121869 -0.0158952884,14.6635847 0.0134716804,13.0082259 C0.0134716804,12.8370596 0.350062322,12.5375184 0.569185088,12.4384221 C2.59098794,11.5375466 3.79051565,9.91146627 4.18358125,7.70882562 C4.34171107,6.82146322 4.18358125,5.88230049 4.0299694,5.00619905 C3.9441275,4.53774376 3.96897647,4.24495923 4.33719308,3.94992248 C5.51187182,3.02202069 6.68655056,2.09486963 7.86122932,1.1684693 C7.96045852,1.08117421 8.08138758,1.02205868 8.21137394,0.997302943 C8.30499416,0.984170518 8.40033861,1.00238979 8.48245366,1.04910329 L11.6834532,2.78554086 C11.6019258,2.73721548 11.5062726,2.71814252 11.4123736,2.73148834 C11.2826085,2.75821443 11.1619855,2.81795613 11.0622289,2.90490686 C9.88303216,3.82830429 8.70760041,4.75695681 7.53593366,5.69086444 C7.16545807,5.98364899 7.14286809,6.27868572 7.22645099,6.74714099 C7.38458083,7.61198151 7.54045166,8.54889206 7.38232184,9.44976756 C6.99151524,11.650156 5.80102351,13.2784886 3.76792568,14.1793641 C3.54202592,14.2762083 3.21447127,14.5757494 3.21221227,14.7491679 C3.18284531,16.4045267 3.21221227,18.055381 3.22802525,19.7039832 C3.20932132,19.9305231 3.32380541,20.1473871 3.52169494,20.2602739 L0.320695353,18.5238363 Z" id="路径" fill="url(#linearGradient-22)"></path>
                        <g id="路径" transform="translate(0.001034, 1.040774)">
                            <path d="M0.718916221,11.3222194 L0.574926182,11.3849496 L0.561212846,11.3849496 C0.510591912,11.4101336 0.461726622,11.4385738 0.414937251,11.4700834 C0.359325609,11.5072674 0.306612414,11.5484543 0.257233874,11.5933033 C0.217863138,11.6262933 0.181182584,11.6622485 0.147527178,11.7008408 C0.124675569,11.7257509 0.103308251,11.7519319 0.0835316054,11.7792535 L0.0469627067,11.8352626 C0.0382948942,11.8501233 0.0313931914,11.8659089 0.026392701,11.8823102 C0.0176984467,11.9021456 0.013040132,11.9234545 0.0126793641,11.9450404 C-0.0170328662,13.5939477 0.0126793641,15.2338934 0.0286782572,16.8738393 C0.00628063801,17.1004831 0.121718096,17.3188983 0.323515004,17.4316898 L3.56214809,19.1590098 C3.36121987,19.0454024 3.24609473,18.8275781 3.26731135,18.6011593 C3.24674135,16.9589731 3.22160022,15.316787 3.25131246,13.6723604 C3.25178124,13.6509961 3.25563659,13.6298331 3.26274024,13.6096302 C3.2694212,13.5935263 3.27705264,13.5778172 3.2855958,13.5625826 C3.29614531,13.5429314 3.30837893,13.5241943 3.3221647,13.5065735 C3.34128484,13.4793698 3.36188464,13.4531943 3.38387471,13.4281607 C3.41888305,13.3893603 3.45628387,13.3526991 3.49586697,13.3183829 C3.54552606,13.2754752 3.59740031,13.2350955 3.65128478,13.1974034 C3.69808491,13.1646923 3.74780792,13.1361982 3.79984593,13.1122695 L3.81355928,13.1122695 L3.95526376,13.0495394 L0.718916221,11.3222194 Z" fill="url(#linearGradient-23)"></path>
                            <path d="M7.31274577,5.72803259 C7.25107189,5.50807454 7.25107189,5.27588167 7.31274577,5.05592362 L4.08096936,3.33532471 C4.0181439,3.55512903 4.0181439,3.78762935 4.08096936,4.00743367 C4.23867273,4.86997348 4.38124331,5.81477618 4.22125437,6.71092144 C4.14579332,7.14520268 4.0454127,7.55682283 3.89126819,7.97063611 C3.785435,8.25124953 3.66020067,8.52446099 3.51643699,8.78836867 C3.30250586,9.17867987 3.04411091,9.54395231 2.74620454,9.87718513 C2.60189864,10.0385058 2.44933192,10.1925422 2.28909332,10.3386999 C2.09872553,10.5053477 1.87211392,10.6420352 1.66213482,10.7842588 C1.36000433,10.9881279 1.05108927,11.1697312 0.718916221,11.3222194 L3.97126266,13.0652219 C4.30397147,12.9123706 4.62347464,12.7333004 4.92662513,12.5297752 C5.13590699,12.3867808 5.33589943,12.2311477 5.52544085,12.0637796 C5.68674027,11.9186876 5.83936434,11.7645932 5.98255209,11.6022648 C6.12475537,11.443528 6.2582671,11.2775078 6.38252442,11.1049041 C6.51769426,10.9158307 6.64133043,10.7190815 6.75278451,10.5156887 C6.89696876,10.2512122 7.02221463,9.9772269 7.12761572,9.69571576 C7.28070413,9.28234357 7.39619376,8.85650902 7.47273472,8.42318947 C7.62815252,7.52480383 7.47044915,6.58833205 7.31274577,5.72803259 Z" fill="url(#linearGradient-24)"></path>
                            <path d="M4.32095275,3.00375097 C4.28895475,3.03135283 4.25915574,3.06131157 4.23181606,3.0933655 C4.20989296,3.11689385 4.1892925,3.14157434 4.17010605,3.16729748 C4.15246821,3.19166018 4.13643665,3.21710282 4.12210935,3.24346983 C4.10608082,3.27304079 4.09232918,3.3037446 4.08096936,3.33532471 L7.31274577,5.06264471 C7.32410562,5.03106461 7.33785725,5.00036079 7.35388579,4.97078984 C7.36768726,4.94413016 7.38374225,4.91865032 7.40188246,4.89461748 C7.4210305,4.86815033 7.44163085,4.84272211 7.46359249,4.81844513 C7.49097498,4.78712292 7.52077514,4.75791204 7.55272918,4.73107096 L4.32095275,3.00375097 Z" fill="url(#linearGradient-25)"></path>
                            <path d="M7.55958584,4.73107096 L4.32095275,3.00375097 L4.38494831,2.94998225 C5.57496123,2.02247191 6.7642123,1.0979487 7.95270151,0.176412656 L8.01898263,0.129365029 L11.2576157,1.85444467 L11.1913346,1.90373265 C9.99827431,2.82228156 8.80902322,3.74605796 7.62358142,4.6750619 L7.55958584,4.7288306" fill="url(#linearGradient-26)"></path>
                            <path d="M11.2576157,1.85668503 L8.01898263,0.131605392 C8.06043165,0.103098999 8.10397616,0.0776386774 8.14925934,0.0554330445 L11.3878925,1.78275305 C11.3425507,1.80399987 11.2989899,1.82872058 11.2576157,1.85668503" fill="url(#linearGradient-27)"></path>
                            <path d="M11.3878925,1.78275305 L8.14925934,0.0554330445 C8.19918354,0.0322408352 8.25232232,0.0163879472 8.3069627,0.00838541793 C8.36122313,-0.00279513931 8.41726234,-0.00279513931 8.47152276,0.00838541793 L11.7078703,1.74466687 C11.6542698,1.73456388 11.5991963,1.73456388 11.5455958,1.74466687 C11.4908661,1.75350594 11.437741,1.77010945 11.3878925,1.79395486" fill="url(#linearGradient-28)"></path>
                            <path d="M11.7078703,1.74466687 L8.47152276,0.0195872338 C8.50226272,0.0269888428 8.53213524,0.0375002718 8.56065945,0.0509523181 L11.7992926,1.77827232 C11.7697571,1.76475536 11.7391902,1.7535194 11.7078703,1.74466687" fill="url(#linearGradient-29)"></path>
                            <polyline fill="url(#linearGradient-30)" points="11.7992926 1.77603196 8.56065945 0.0487119549 8.58122945 0.0487119549 11.8198625 1.77603196 11.7992926 1.77603196"></polyline>
                        </g>
                        <path d="M27.8193652,11.2254095 C28.0466468,12.8801592 28.1057401,14.5662575 27.7216341,16.2904216 C27.6373658,16.5714466 27.4492211,16.811136 27.1943406,16.9621738 C24.6578766,18.1578929 23.1464533,21.1449513 23.7851149,23.8274821 C23.8989865,24.1934104 23.7831517,24.5910757 23.4896486,24.841828 C22.4046256,25.9814693 21.1491711,26.9510311 19.7667743,27.7169276 C19.6458312,27.7917091 19.5116665,27.8433651 19.3713041,27.8691914 C19.1681437,27.8896159 18.9674902,27.8120441 18.8326464,27.6609484 C17.952874,26.8621265 16.7507112,26.5033519 15.5688811,26.6869074 C14.2824855,26.8887316 13.1195914,27.5582439 12.3096615,28.5633354 C12.1608965,28.7823064 11.93213,28.936303 11.6709999,28.993257 C11.5356879,29.0094242 11.3984261,28.9964359 11.2687113,28.955191 C9.91504603,28.5992676 8.65118023,27.9702076 7.55720094,27.1078723 C7.43314502,26.9832464 7.32824431,26.8414258 7.245825,26.6869074 C7.62538545,25.1194855 7.57992912,23.7759811 6.97763258,22.5444351 C6.33215253,21.2300398 5.33438584,20.4149805 3.90251108,20.2246505 C3.50249529,20.1709104 3.25703103,20.0007332 3.2524854,19.5640942 C3.23203006,17.9227796 3.20702906,16.2814649 3.23657568,14.6379109 C3.23657568,14.4654945 3.57522543,14.1676844 3.79568869,14.0713999 C5.82985996,13.1757302 7.03672583,11.5568073 7.432196,9.36913409 C7.59129319,8.48689941 7.432196,7.55092459 7.27537163,6.682125 C7.19127739,6.21637676 7.21400555,5.92304493 7.58674756,5.63195227 C8.76558201,4.70493415 9.94820448,3.78164798 11.134615,2.86209377 C11.2349819,2.77564548 11.3563427,2.716249 11.4869017,2.68967735 C11.6848417,2.67784459 11.8751817,2.76653768 11.9914671,2.92479064 C12.8840328,3.95138551 14.2467946,4.45802316 15.6052462,4.26829519 C16.9075704,4.08692208 18.2098946,3.30097192 19.2099341,1.94851069 C19.3118794,1.77056105 19.4836771,1.64179792 19.6849529,1.59248199 C19.7964767,1.58193774 19.9089894,1.59569809 20.0145114,1.63278713 C21.3906031,2.05061387 22.6695838,2.73161856 23.7782964,3.63684806 C24.1010365,3.90107061 23.9737587,4.19216326 23.8805731,4.5190827 C23.198728,6.96202177 24.1669481,9.50796289 26.1670272,10.4551336 C26.5261322,10.6230716 26.9556947,10.6454634 27.3284367,10.7932489 C27.5261718,10.8783375 27.7920914,11.039558 27.8193652,11.2254095 Z M15.546153,21.140473 C18.6008191,20.7105515 20.9496403,17.7419587 20.9496403,14.4279808 C20.8574546,11.2500615 18.5636779,9.3683857 15.5143335,9.47661445 L15.3688732,9.49452784 C12.3869372,9.90653589 9.99366082,13.0033138 10.0209346,16.0553083 C10.0482084,19.30435 12.4778499,21.5636769 15.5393345,21.140473" id="形状" fill="url(#linearGradient-31)"></path>
                    </g>
                    <g id="编组-5" transform="translate(16.499004, 13.052280)" fill="#B7B7B7">
                        <path d="M2.86441137,4.51656886 L6.56651702,8.16171902 C7.21201236,8.80721436 7.21201236,9.851398 6.58550217,10.4968933 C6.58550217,10.4968933 6.56651702,10.5158785 6.56651702,10.5158785 C5.90203649,11.1613738 4.85785286,11.1613738 4.19337236,10.5158785 L0.491266731,6.85174318 C-0.154228609,6.20624784 -0.173213766,5.1620642 0.491266731,4.51656886 C1.15574723,3.87107352 2.19993087,3.87107352 2.86441137,4.51656886 Z" id="矩形_3_" opacity="0.499"></path>
                        <path d="M22.8644114,4.51656886 L26.566517,8.16171902 C27.2120124,8.80721436 27.2120124,9.851398 26.5855022,10.4968933 C26.5855022,10.4968933 26.566517,10.5158785 26.566517,10.5158785 C25.9020365,11.1613738 24.8578529,11.1613738 24.1933724,10.5158785 L20.4912667,6.85174318 C19.8457714,6.20624784 19.8267862,5.1620642 20.4912667,4.51656886 C21.1557472,3.87107352 22.1999309,3.87107352 22.8644114,4.51656886 Z" id="矩形_3_备份-2" opacity="0.499" transform="translate(23.526519, 7.516224) scale(-1, 1) translate(-23.526519, -7.516224) "></path>
                        <path d="M2.86441137,0.484121505 L6.56651702,4.12927166 C7.21201236,4.774767 7.21201236,5.81895064 6.58550217,6.46444598 C6.58550217,6.46444598 6.56651702,6.48343114 6.56651702,6.48343114 C5.90203649,7.12892648 4.85785286,7.12892648 4.19337236,6.48343114 L0.491266731,2.81929582 C-0.154228609,2.17380048 -0.173213766,1.12961685 0.491266731,0.484121505 C1.15574723,-0.161373835 2.19993087,-0.161373835 2.86441137,0.484121505 Z" id="矩形_3_备份" opacity="0.499" transform="translate(3.526519, 3.483776) scale(-1, 1) translate(-3.526519, -3.483776) "></path>
                        <path d="M22.8644114,0.484121505 L26.566517,4.12927166 C27.2120124,4.774767 27.2120124,5.81895064 26.5855022,6.46444598 C26.5855022,6.46444598 26.566517,6.48343114 26.566517,6.48343114 C25.9020365,7.12892648 24.8578529,7.12892648 24.1933724,6.48343114 L20.4912667,2.81929582 C19.8457714,2.17380048 19.8267862,1.12961685 20.4912667,0.484121505 C21.1557472,-0.161373835 22.1999309,-0.161373835 22.8644114,0.484121505 Z" id="矩形_3_备份-3" opacity="0.499"></path>
                        <path d="M18.8470124,0.914178101 C19.4873137,1.55447942 19.4873137,2.59026096 18.8658448,3.23056228 C18.8658448,3.23056228 18.8470124,3.24939467 18.8470124,3.24939467 L12.0296866,9.95372612 C11.3705529,10.5940274 10.3347713,10.5940274 9.67563764,9.95372612 C9.03533632,9.3134248 9.03533632,8.27764326 9.65680525,7.63734194 C9.65680525,7.63734194 9.67563764,7.61850955 9.67563764,7.61850955 L16.4929635,0.914178101 C17.1332648,0.273876782 18.1878787,0.273876782 18.8470124,0.914178101 Z" id="矩形_4_" opacity="0.8544"></path>
                    </g>
                </g>
            </g>
        </g>
    </g>
</svg>
