<svg width="18.000000" height="18.000000" viewBox="0 0 18 18" xmlns="http://www.w3.org/2000/svg" xmlns:xlink="http://www.w3.org/1999/xlink">
	<desc>
			Created with Pixso.
	</desc>
	<path d="M4.3877 7.13635L11.4614 7.13635C11.8608 7.13635 12.0605 6.92334 12.0605 6.49731C12.0605 6.07129 11.8608 5.85828 11.4614 5.85828L4.3877 5.85828C3.32324 5.85828 2.49707 5.11621 2.49707 4.2605C2.49707 3.40479 3.32324 2.6626 4.3877 2.6626L7.23096 2.6626C7.46924 3.52246 8.20703 4.15381 9.09082 4.15381C9.97412 4.15381 10.7119 3.52246 10.9502 2.6626L14.564 2.6626C14.9634 2.66296 15.1636 2.44995 15.1636 2.02356C15.1636 1.59729 14.9634 1.38428 14.564 1.38464L10.9199 1.38464C10.6509 0.579468 9.9375 0 9.09082 0C8.24365 0 7.53027 0.579468 7.26221 1.38464L4.3877 1.38464C2.70264 1.38464 1.29883 2.64526 1.29883 4.2605C1.29883 5.87561 2.70264 7.13635 4.3877 7.13635L4.3877 7.13635ZM16.8813 6.90576C16.877 6.33325 16.6831 5.84607 16.3008 5.44421C15.9185 5.04224 15.459 4.8429 14.9219 4.84619C14.3853 4.84949 13.9277 5.05444 13.5498 5.46106C13.1719 5.86768 12.9834 6.3573 12.9854 6.92969C12.9868 7.5022 13.1782 7.99048 13.5586 8.39453C13.939 8.79858 14.3975 9.00037 14.9346 9C15.5566 9 16.104 8.68359 16.4604 8.19971C16.6748 8.46069 16.8018 8.77429 16.8018 9.10657C16.8018 9.96228 15.9761 10.7045 14.9116 10.7045L4.91064 10.7045C4.53564 10.0311 3.98096 9.69373 3.24658 9.69226C2.74023 9.69324 2.30078 9.87744 1.92969 10.2448C1.55811 10.6122 1.35303 11.0652 1.31445 11.6038C0.525391 12.1202 0 12.9683 0 13.9528C0 15.5679 1.40381 16.8286 3.08887 16.8286L7.99365 16.8286C8.34668 17.6075 8.92871 17.9979 9.73975 18C10.2778 18 10.7368 17.7972 11.1172 17.3917C11.4976 16.9861 11.688 16.4966 11.688 15.9231C11.688 15.3496 11.4976 14.86 11.1172 14.4545C10.7368 14.049 10.2778 13.8462 9.73975 13.8462C8.6582 13.8472 8.02051 14.4152 7.82715 15.5499L3.08887 15.5499C2.02441 15.5499 1.19873 14.8077 1.19873 13.952C1.19873 13.5734 1.36768 13.2209 1.64014 12.9413C2.02588 13.5446 2.56152 13.8462 3.24658 13.8462C3.74463 13.8451 4.17773 13.6663 4.54688 13.3097C4.91553 12.9531 5.125 12.5106 5.17432 11.9824L14.9111 11.9824C16.5967 11.9824 18 10.7218 18 9.10657C18.0005 8.20801 17.5571 7.42847 16.8813 6.90576L16.8813 6.90576Z" fill-rule="evenodd"/>
	<defs/>
</svg>
