<svg width="18.000000" height="18.000000" viewBox="0 0 18 18" xmlns="http://www.w3.org/2000/svg" xmlns:xlink="http://www.w3.org/1999/xlink">
	<desc>
			Created with Pixso.
	</desc>
	<path d="M17.2959 10.7095L15.1021 10.7095L15.1021 8.69861L9.55176 8.69861L9.55176 7.29047L11.9727 7.29047C12.4409 7.29047 12.6768 7.04553 12.6768 6.56042L12.6768 0.730103C12.6768 0.244934 12.4409 0 11.9727 0L6.34961 0C5.88184 0 5.64551 0.244934 5.64551 0.730103L5.64551 6.56042C5.64551 7.04553 5.88184 7.29047 6.34961 7.29047L8.75684 7.29047L8.75684 8.69861L3.22021 8.69861L3.22021 10.7095L0.704102 10.7095C0.236328 10.7095 0 10.9545 0 11.4396L0 17.2699C0 17.7551 0.236328 18 0.704102 18L6.32715 18C6.79492 18 7.03125 17.7551 7.03125 17.2699L7.03125 11.4396C7.03125 10.9545 6.79492 10.7095 6.32715 10.7095L4.00586 10.7095L4.00586 9.41907L14.3208 9.41907L14.3208 10.7095L11.6729 10.7095C11.2051 10.7095 10.9688 10.9545 10.9688 11.4396L10.9688 17.2699C10.9688 17.7551 11.2051 18 11.6729 18L17.2959 18C17.7637 18 18 17.7551 18 17.2699L18 11.4396C18 10.9545 17.7637 10.7095 17.2959 10.7095L17.2959 10.7095Z" fill-rule="evenodd"/>
	<defs/>
</svg>
