<svg width="18.000000" height="18.000000" viewBox="0 0 18 18" xmlns="http://www.w3.org/2000/svg" xmlns:xlink="http://www.w3.org/1999/xlink">
	<desc>
			Created with Pixso.
	</desc>
	<g clip-path="url(#clip459_376)">
		<path d="M13.5386 17L13.5386 7.85718L12.4307 7.85718L12.4307 9L2 9L2 10.1428L12.4307 10.1428L12.4307 12.4286L2 12.4286L2 13.5714L12.4307 13.5714L12.4307 15.8572L2.04639 15.8572L2.04639 17L13.5386 17ZM8.92285 1.57141L17 1.57141L17 5L8.92285 5L8.92285 1.57141ZM7.76904 2.52002L7.76904 4.05139L5.46143 4.05139L5.46143 5.57141L2 3.28577L5.46143 1L5.46143 2.52002L7.76904 2.52002Z" fill-rule="evenodd"/>
	</g>
	<defs>
		<clipPath id="clip459_376">
			<rect width="18.000000" height="18.000000" fill="white"/>
		</clipPath>
	</defs>
</svg>
