<svg width="18.000000" height="18.000000" viewBox="0 0 18 18" xmlns="http://www.w3.org/2000/svg" xmlns:xlink="http://www.w3.org/1999/xlink">
	<desc>
			Created with Pixso.
	</desc>
	<g clip-path="url(#clip459_275)">
		<path d="M16.8906 11.4023C16.5791 11.4023 16.2192 11.6572 16.2192 11.9689L16.2192 14.2554C16.2192 15.3406 15.3438 16.2189 14.2671 16.2189L3.43799 16.2189C2.3584 16.2189 1.48584 15.3406 1.48584 14.2554L1.48584 3.4491C1.48584 2.36395 2.3584 1.4856 3.43799 1.4856L8.23486 1.4856C8.54639 1.4856 8.79883 1.51392 8.79883 1.20227C8.79883 0.890625 8.54639 0.352295 8.23486 0.352295L2.60498 0.352295C1.36133 0.352295 0.352539 1.36664 0.352539 2.61896L0.352539 15.0856C0.352539 16.338 1.36133 17.3523 2.60498 17.3523L15.1001 17.3523C16.3438 17.3523 17.3525 16.338 17.3525 15.0856L17.3525 11.9689C17.3525 11.6573 17.2021 11.4023 16.8906 11.4023ZM3.85156 13.2751C3.76123 13.8928 4.18311 14.3064 4.79541 14.1931L8.3877 13.5443L4.40723 9.5379L3.85156 13.2751ZM11.3091 4.46625C11.751 4.02142 12.4624 4.02142 12.9043 4.46625L13.7002 5.26526C14.1396 5.71008 14.1396 6.42688 13.7002 6.8689L10.1162 10.4758C9.67725 10.9177 8.96289 10.9177 8.52393 10.4758L7.72754 9.67389C7.28857 9.23187 7.28857 8.51508 7.72754 8.07025L11.3091 4.46625ZM9.31982 12.8812L16.0889 6.06708L12.1079 2.06073L5.33936 8.87207L9.31982 12.8812ZM16.9443 4.93378C17.6045 4.27075 17.4092 3.38959 16.749 2.72662L15.1567 1.12292C14.4966 0.4599 13.4282 0.4599 12.7681 1.12292L16.749 5.12927L16.9443 4.93378Z" fill-rule="evenodd"/>
	</g>
	<defs>
		<clipPath id="clip459_275">
			<rect width="18.000000" height="18.000000" fill="white"/>
		</clipPath>
	</defs>
</svg>
