<svg width="40" height="44" xmlns="http://www.w3.org/2000/svg">
    <defs>
        <linearGradient x1="49.699%" y1="3.454%" x2="49.699%" y2="323.454%" id="a">
            <stop stop-color="#27A8E0" offset="0%"/>
            <stop stop-color="#016699" offset="100%"/>
        </linearGradient>
        <linearGradient x1="50%" y1="17.084%" x2="50%" y2="160.926%" id="b">
            <stop stop-color="#27A8E0" offset="0%"/>
            <stop stop-color="#016699" offset="100%"/>
        </linearGradient>
        <linearGradient x1="50%" y1="-88.914%" x2="50%" y2="154.045%" id="c">
            <stop stop-color="#27A8E0" offset="0%"/>
            <stop stop-color="#016699" offset="100%"/>
        </linearGradient>
        <linearGradient x1="50%" y1="-136.259%" x2="50%" y2="106.738%" id="d">
            <stop stop-color="#27A8E0" offset="0%"/>
            <stop stop-color="#016699" offset="100%"/>
        </linearGradient>
    </defs>
    <g fill-rule="nonzero" fill="none">
        <path d="m41.15 16.332-13-7.07-7 4s-2.39 1.34-2.54 3.49a1.71 1.71 0 0 1-.68-.86v-5.02a1.16 1.16 0 0 1 .68-1l9.6-5.57 13 7"
              fill="url(#a)" transform="translate(.58 .268)"/>
        <path d="M.04 11.262a1.23 1.23 0 0 1 .67-.87L16.83.912a7.58 7.58 0 0 1 3.76-.91v5a7.58 7.58 0 0 0-3.76.91l-13.55 8 13.55 8a8.22 8.22 0 0 0 7.51 0l16.13-9.58a1.19 1.19 0 0 0 .68-1v5a1.19 1.19 0 0 1-.68 1l-16.13 9.45a8.16 8.16 0 0 1-7.51 0L.71 17.302a1.19 1.19 0 0 1-.68-1v-5.04h.01Z"
              fill="url(#b)" transform="translate(.58 .268)"/>
        <path d="M41.12 24.342a1.19 1.19 0 0 1-.68 1l-16.12 9.46a8.22 8.22 0 0 1-7.51 0L.68 25.312a1.19 1.19 0 0 1-.68-1v-5c.028.432.288.815.68 1l16.13 9.52a8.16 8.16 0 0 0 7.51 0l16.1-9.48a1.19 1.19 0 0 0 .68-1l.02 4.99Z"
              fill="url(#c)" transform="translate(.58 .268)"/>
        <path d="M41.12 32.102a1.19 1.19 0 0 1-.68 1l-16.12 9.45a8.16 8.16 0 0 1-7.51 0L.68 33.072a1.19 1.19 0 0 1-.68-1v-5c.026.433.287.817.68 1l16.13 9.49a8.22 8.22 0 0 0 7.51 0l16.1-9.46a1.17 1.17 0 0 0 .68-1l.02 5Z"
              fill="url(#d)" transform="translate(.58 .268)"/>
    </g>
</svg>