<?xml version="1.0" encoding="UTF-8"?>
<svg width="40px" height="40px" viewBox="0 0 40 40" version="1.1" xmlns="http://www.w3.org/2000/svg" xmlns:xlink="http://www.w3.org/1999/xlink">
    <title>安装插件图标</title>
    <g id="控件" stroke="none" stroke-width="1" fill="none" fill-rule="evenodd">
        <g id="安装插件图标">
            <polygon id="路径-4" points="5 10.4 12.9232 10.4 16.52 15.4106187 34.5404988 15.4106187 35.72 17.1968 35.72 34.3232 34.5404988 36 7.56 36 5 34.3232"></polygon>
            <path d="M11.4,36 L6.6768,36 C5.75072893,36 5,35.2492711 5,34.3232 L5,12.0768 C5,11.1507289 5.75072893,10.3999987 6.6768,10.3999987 L12.9232,10.3999987 C13.5600823,10.3992041 14.1415519,10.7620014 14.4208,11.3344 L16.0592,14.5856 C16.3384481,15.1579986 16.9199177,15.5207959 17.5568,15.52 L34.0432,15.52 C34.9692711,15.52 35.72,16.2707289 35.72,17.1968 L35.72,34.3232 C35.72,35.2492711 34.9692711,36 34.0432,36 L17.8,36" id="路径" stroke="#FF7D00" stroke-linecap="round" stroke-linejoin="round"></path>
            <path d="M33.16,10.4 L33.16,4.9728 C33.16,4.7147974 33.0575089,4.46736191 32.8750735,4.28492652 C32.6926381,4.10249113 32.4452026,4 32.1872,4 L8.5328,4 C7.9955374,4 7.56,4.4355374 7.56,4.9728 L7.56,10.4" id="路径" stroke="#FF7D00" stroke-linecap="round" stroke-linejoin="round"></path>
            <line x1="20.36" y1="27.04" x2="20.36" y2="21.92" id="路径" stroke="#FF7D00" stroke-linecap="round" stroke-linejoin="round"></line>
            <polyline id="路径" stroke="#FF7D00" stroke-linecap="round" stroke-linejoin="round" points="17.8 23.2 20.36 20.64 22.92 23.2"></polyline>
            <path d="M16.52,28.32 L16.52,29.9072 C16.52,30.4444626 16.9555374,30.88 17.4928,30.88 L23.2272,30.88 C23.4852026,30.88 23.7326381,30.7775089 23.9150735,30.5950735 C24.0975089,30.4126381 24.2,30.1652026 24.2,29.9072 L24.2,28.32" id="路径" stroke="#FF7D00" stroke-linecap="round" stroke-linejoin="round"></path>
        </g>
    </g>
</svg>