<?xml version="1.0" standalone="no"?><!DOCTYPE svg PUBLIC "-//W3C//DTD SVG 1.1//EN" "http://www.w3.org/Graphics/SVG/1.1/DTD/svg11.dtd"><svg t="1676887072789" class="icon" viewBox="0 0 1024 1024" version="1.1" xmlns="http://www.w3.org/2000/svg" p-id="2044" xmlns:xlink="http://www.w3.org/1999/xlink" width="16" height="16"><path d="M191.498858 817.684326c9.248013 0.109976 18.156099-3.519244 24.694694-10.05784a34.356619 34.356619 0 0 0 10.057839-24.694694c0.099979-9.228017-3.529242-18.10611-10.057839-24.634707a34.358618 34.358618 0 0 0-24.634707-10.05784 34.34962 34.34962 0 0 0-34.752534 34.692547c0 19.485814 15.26672 34.752534 34.752534 34.752534h-0.059987z m-10.067837-34.752534c0.239948-5.478823 4.639003-9.857882 10.117826-10.057839 5.458827 0.239948 9.827889 4.599012 10.067837 10.057839-0.209955 5.478823-4.589014 9.877878-10.067837 10.117826-5.488821-0.199957-9.897874-4.60901-10.117826-10.117826z m10.127824-556.580422a34.34962 34.34962 0 0 0-34.752534 34.692546c0 19.425826 15.26672 34.692547 34.752534 34.692547 9.228017 0.089981 18.10611-3.529242 24.634707-10.057839a34.317627 34.317627 0 0 0 10.057839-24.634708c0.099979-9.228017-3.529242-18.10611-10.057839-24.634707a34.358618 34.358618 0 0 0-24.634707-10.057839z m10.057839 34.692546c-0.239948 5.458827-4.60901 9.817891-10.067837 10.057839-5.478823-0.209955-9.877878-4.589014-10.117826-10.057839 0.239948-5.478823 4.639003-9.847884 10.117826-10.067837 5.458827 0.239948 9.827889 4.60901 10.067837 10.067837z m-10.057839 222.132277c-9.238015-0.109976-18.136104 3.499248-24.674699 10.037843a34.324626 34.324626 0 0 0-10.077835 24.654703c0 19.425826 15.26672 34.692547 34.752534 34.692547 9.228017 0.099979 18.10611-3.529242 24.634707-10.057839a34.317627 34.317627 0 0 0 10.057839-24.634708c0.099979-9.228017-3.529242-18.10611-10.057839-24.634707a34.317627 34.317627 0 0 0-24.634707-10.057839z m10.057839 34.682548c-0.239948 5.458827-4.60901 9.827889-10.067837 10.067837-5.478823-0.209955-9.877878-4.589014-10.117826-10.067837 0.209955-5.498819 4.619008-9.907871 10.117826-10.117826 5.488821 0.239948 9.857882 4.649001 10.067837 10.117826z m0 0" fill="#666666" p-id="2045"></path><path d="M811.495655 107.946808H121.173967c-35.102458 0-63.7663 28.603855-63.766301 63.766301v690.201714c0 35.162446 28.663842 63.7663 63.766301 63.7663h690.201714c35.162446 0 63.7663-28.603855 63.7663-63.7663V171.713109c0.009998-35.172443-28.473883-63.706313-63.646326-63.766301zM102.927887 658.678487h726.823846v191.708813c0 17.906153-14.496885 32.433032-32.403038 32.473023H135.330925c-17.936147 0-32.473023-14.536877-32.473023-32.473023v-191.658824l0.069985-0.049989z m0-48.209642V407.472457h726.823846v203.176349H102.927887v-0.179961z m726.823846-251.196033H102.927887V179.901349c0-16.026557 12.98721-29.013767 29.013766-29.013766H797.338697c17.896155 0 32.403038 14.56687 32.403038 32.473023v175.912206z m0 0" fill="#666666" p-id="2046"></path><path d="M1011.13656131 96.29838393L918.33453866 2.0237796 755.93836096 166.99697305 593.54218323 2.0237796l-92.80202411 94.27460433 162.39617771 164.97319344L500.74015912 426.24477082l92.80202411 94.2746043 162.39617773-164.97319492 162.3961777 164.97319492 92.7872981-94.2746043L848.74038357 261.27157737l162.39617774-164.97319344z m0 0" fill="#E93F41" p-id="2047"></path></svg>