<svg t="1700558119859" class="icon" viewBox="0 0 1024 1024" version="1.1" xmlns="http://www.w3.org/2000/svg" p-id="3807" width="64" height="64"><path d="M191.43 817.64c9.25 0.11 18.16-3.52 24.7-10.06a34.364 34.364 0 0 0 10.06-24.7c0.1-9.23-3.53-18.11-10.06-24.64a34.366 34.366 0 0 0-24.64-10.06 34.357 34.357 0 0 0-34.76 34.7c0 19.49 15.27 34.76 34.76 34.76h-0.06z m-10.07-34.76c0.24-5.48 4.64-9.86 10.12-10.06 5.46 0.24 9.83 4.6 10.07 10.06-0.21 5.48-4.59 9.88-10.07 10.12-5.49-0.2-9.9-4.61-10.12-10.12z m10.13-556.7a34.357 34.357 0 0 0-34.76 34.7c0 19.43 15.27 34.7 34.76 34.7 9.23 0.09 18.11-3.53 24.64-10.06a34.325 34.325 0 0 0 10.06-24.64c0.1-9.23-3.53-18.11-10.06-24.64a34.366 34.366 0 0 0-24.64-10.06z m10.06 34.7c-0.24 5.46-4.61 9.82-10.07 10.06-5.48-0.21-9.88-4.59-10.12-10.06 0.24-5.48 4.64-9.85 10.12-10.07 5.46 0.24 9.83 4.61 10.07 10.07z m-10.06 222.18c-9.24-0.11-18.14 3.5-24.68 10.04a34.332 34.332 0 0 0-10.08 24.66c0 19.43 15.27 34.7 34.76 34.7 9.23 0.1 18.11-3.53 24.64-10.06a34.325 34.325 0 0 0 10.06-24.64c0.1-9.23-3.53-18.11-10.06-24.64a34.325 34.325 0 0 0-24.64-10.06z m10.06 34.69c-0.24 5.46-4.61 9.83-10.07 10.07-5.48-0.21-9.88-4.59-10.12-10.07 0.21-5.5 4.62-9.91 10.12-10.12 5.49 0.24 9.86 4.65 10.07 10.12z m0 0" fill="#666666" p-id="3808"></path><path d="M811.56 107.75H121.09c-35.11 0-63.78 28.61-63.78 63.78v690.35c0 35.17 28.67 63.78 63.78 63.78h690.35c35.17 0 63.78-28.61 63.78-63.78V171.53c0.01-35.18-28.48-63.72-63.66-63.78zM102.84 658.6h726.98v191.75c0 17.91-14.5 32.44-32.41 32.48H135.25c-17.94 0-32.48-14.54-32.48-32.48v-191.7l0.07-0.05z m0-48.22V407.34h726.98v203.22H102.84v-0.18z m726.98-251.25H102.84V179.72c0-16.03 12.99-29.02 29.02-29.02H797.4c17.9 0 32.41 14.57 32.41 32.48v175.95z m0 0" fill="#666666" p-id="3809"></path><path d="M903.42206361 26.53612681l85.400263 98.08629108-416.67820628 455.62448004-218.51138718-233.77819247 84.47855685-99.07503038 133.11112421 142.41197702L903.42206361 26.53612681z m0 0" fill="#2B8823" p-id="3810"></path></svg>