<?xml version="1.0" encoding="UTF-8"?>
<svg id="_图层_1" data-name="图层 1" xmlns="http://www.w3.org/2000/svg" xmlns:xlink="http://www.w3.org/1999/xlink" viewBox="0 0 942.41 928.36">
  <defs>
    <style>
      .cls-1 {
        fill: url(#_未命名的渐变_4-2);
      }

      .cls-2 {
        fill: url(#_未命名的渐变_4);
      }

      .cls-3 {
        fill: url(#_未命名的渐变_4-4);
      }

      .cls-4 {
        fill: url(#_未命名的渐变_4-3);
      }

      .cls-5 {
        fill: #2b8823;
      }
    </style>
    <linearGradient id="_未命名的渐变_4" data-name="未命名的渐变 4" x1="-34.89" y1="493.18" x2="-34.89" y2="559.7" gradientTransform="translate(1460.82 -6017.2) scale(23.28 12.45)" gradientUnits="userSpaceOnUse">
      <stop offset="0" stop-color="#27a8e0"/>
      <stop offset="1" stop-color="#016699"/>
    </linearGradient>
    <linearGradient id="_未命名的渐变_4-2" data-name="未命名的渐变 4" x1="-52.19" y1="472.13" x2="-52.19" y2="501.86" gradientTransform="translate(2597.81 -12979.58) scale(41.12 27.7)" xlink:href="#_未命名的渐变_4"/>
    <linearGradient id="_未命名的渐变_4-3" data-name="未命名的渐变 4" x1="-52.21" y1="482.21" x2="-52.21" y2="532.72" gradientTransform="translate(2597.78 -7805.08) scale(41.12 16.4)" xlink:href="#_未命名的渐变_4"/>
    <linearGradient id="_未命名的渐变_4-4" data-name="未命名的渐变 4" x1="-52.21" y1="480.49" x2="-52.21" y2="531" gradientTransform="translate(2597.78 -7798.41) scale(41.12 16.4)" xlink:href="#_未命名的渐变_4"/>
  </defs>
  <g id="_图层_1-2" data-name=" 图层 1-2">
    <g>
      <path class="cls-2" d="m902.62,364.27l-285.15-146.97-153.54,83.15s-52.42,27.86-55.71,72.55c-6.8-4.16-12.06-10.6-14.92-17.88v-104.36c.44-8.94,6.14-17.05,14.92-20.79l210.57-115.79,285.15,145.52"/>
      <path class="cls-1" d="m.88,258.88c1.54-7.9,7.02-14.55,14.7-18.09L369.16,43.72c25.23-12.89,53.74-19.54,82.48-18.92v103.94c-28.73-.62-57.25,6.03-82.48,18.92L71.95,313.97l297.22,166.3c51.77,25.15,112.96,25.15,164.73,0l353.81-199.15c8.55-3.74,14.26-11.85,14.92-20.79v103.94c-.66,8.94-6.36,17.05-14.92,20.79l-353.81,196.45c-51.55,25.36-113.18,25.36-164.73,0L15.57,384.44c-8.55-3.74-14.26-11.85-14.92-20.79v-104.77s.22,0,.22,0Z"/>
      <path class="cls-4" d="m901.96,530.79c-.66,8.94-6.36,17.05-14.92,20.79l-353.59,196.65c-51.77,25.15-112.96,25.15-164.73,0L14.92,550.95c-8.55-3.74-14.26-11.85-14.92-20.79v-103.94c.66,8.94,6.36,17.05,14.92,20.79l353.81,197.9c51.55,25.36,113.18,25.36,164.73,0l353.15-197.07c8.55-3.74,14.26-11.85,14.92-20.79l.44,103.73Z"/>
      <path class="cls-3" d="m901.96,692.1c-.66,8.94-6.36,17.05-14.92,20.79l-353.59,196.45c-51.55,25.36-113.18,25.36-164.73,0L14.92,712.27c-8.55-3.74-14.26-11.85-14.92-20.79v-103.94c.66,8.94,6.36,17.05,14.92,20.79l353.81,197.28c51.77,25.15,112.96,25.15,164.73,0l353.15-196.65c8.55-3.74,14.48-11.85,14.92-20.79l.44,103.94Z"/>
    </g>
  </g>
  <path class="cls-5" d="m859.72,0l82.69,116.43-403.47,540.83-211.59-277.49,81.79-117.6,128.89,169.06L859.72,0Z"/>
</svg>