<?xml version="1.0" standalone="no"?><!DOCTYPE svg PUBLIC "-//W3C//DTD SVG 1.1//EN" "http://www.w3.org/Graphics/SVG/1.1/DTD/svg11.dtd"><svg t="1691564979595" class="icon" viewBox="0 0 1024 1024" version="1.1" xmlns="http://www.w3.org/2000/svg" p-id="3071" xmlns:xlink="http://www.w3.org/1999/xlink" width="64" height="64"><path d="M891.447806 257.171325H732.917593v-63.790104c0-36.755435-29.796087-66.550498-66.550498-66.550498H358.169421c-36.755435 0-66.550498 29.796087-66.550498 66.550498v63.790104H129.674053c-36.755435 0-66.550498 29.796087-66.550499 66.550498V827.477499c0 36.755435 29.796087 66.550498 66.550499 66.550498h761.773753c36.755435 0 66.550498-29.796087 66.550498-66.550498V323.722847c0.001024-36.755435-29.795063-66.551522-66.550498-66.551522z m-553.392612-63.790104c0-11.090726 9.022477-20.113203 20.113203-20.113203h308.197674c11.090726 0 20.113203 9.022477 20.113203 20.113203v63.790104H338.055194v-63.790104zM109.560849 323.722847c0-11.090726 9.022477-20.113203 20.113204-20.113203h761.773753c11.090726 0 20.113203 9.022477 20.113203 20.113203v163.12541H598.113875c-2.235142-34.709713-31.079015-62.174412-66.353912-62.174412h-38.984434c-35.273873 0-64.118771 27.4647-66.353912 62.174412H109.560849v-163.12541z m442.271362 167.459517V582.382901c0 11.0682-9.004048 20.072248-20.072248 20.072248h-38.984434c-11.0682 0-20.072248-9.004048-20.072248-20.072248V491.182364c0-1.489753 0.175084-2.937527 0.484298-4.335131 1.988385-8.988689 10.009503-15.737117 19.58795-15.737117h38.984434c9.578447 0 17.598541 6.748428 19.58795 15.737117 0.309213 1.398627 0.484298 2.845377 0.484298 4.335131z m339.615595 356.408338H129.674053c-11.090726 0-20.113203-9.022477-20.113204-20.113203v-294.192971h316.705137v49.098373c0 36.731886 29.777657 66.509543 66.509543 66.509543h38.984434c36.731886 0 66.509543-29.777657 66.509543-66.509543v-49.098373h313.291503v294.192971c0 11.089702-9.022477 20.113203-20.113203 20.113203z" fill="" p-id="3072"></path></svg>