<?xml version="1.0" standalone="no"?><!DOCTYPE svg PUBLIC "-//W3C//DTD SVG 1.1//EN" "http://www.w3.org/Graphics/SVG/1.1/DTD/svg11.dtd"><svg t="1664530938000" class="icon" viewBox="0 0 1024 1024" version="1.1" xmlns="http://www.w3.org/2000/svg" p-id="19379" xmlns:xlink="http://www.w3.org/1999/xlink" width="200" height="200"><path d="M730.621 896.211 293.38 896.211c-79.543 0-133.573-48.526-133.573-129.571 0-113.062 26.515-286.657 173.096-286.657 15.508 0 81.044 69.538 179.098 69.538 98.055 0 163.59-69.538 179.1-69.538 146.58 0 173.094 173.596 173.094 286.657C864.193 847.685 810.164 896.211 730.621 896.211zM512 512c-106.058 0-192.105-86.047-192.105-192.105S405.942 127.789 512 127.789c106.059 0 192.105 86.047 192.105 192.105S618.059 512 512 512z" p-id="19380"></path></svg>