<?xml version="1.0" standalone="no"?><!DOCTYPE svg PUBLIC "-//W3C//DTD SVG 1.1//EN" "http://www.w3.org/Graphics/SVG/1.1/DTD/svg11.dtd"><svg t="1664530914211" class="icon" viewBox="0 0 1024 1024" version="1.1" xmlns="http://www.w3.org/2000/svg" p-id="18417" xmlns:xlink="http://www.w3.org/1999/xlink" width="200" height="200"><path d="M698.2 669.4c-22.4-8-59-8.4-75.2-14.6-11.2-4.4-29-9.2-34.8-16.2-5.8-7-5.8-57-5.8-57s14-13.2 19.8-28c5.8-14.6 9.6-55 9.6-55s13.2 5.6 18.4-20.8c4.4-22.8 12.8-34.8 10.6-51.6-2.4-16.8-11.6-12.8-11.6-12.8s11.6-17 11.6-74.8c0-59.6-45-118.2-129.2-118.2-84 0-129.4 58.8-129.4 118.2 0 57.8 11.4 74.8 11.4 74.8s-9.4-4-11.6 12.8c-2.4 16.8 6 28.8 10.6 51.6 5.2 26.6 18.4 20.8 18.4 20.8s3.8 40.2 9.6 55c5.8 14.8 19.8 28 19.8 28s0 50-5.8 57-23.6 11.8-34.8 16c-16 6.2-52.6 7-75.2 15-22.4 8-91.6 44.4-91.6 134.4h556.6c0.2-90.2-69-126.6-91.4-134.6z" p-id="18418" fill="#868686"></path><path d="M280 572s47.8-1.6 66.8-18.6c-31-47-14.2-101.8-20.6-153-6.4-51-35.4-81.6-93.4-81.6h-0.8c-56 0-86.2 30.4-92.6 81.6-6.4 51 11.4 112-20.4 153C138 570.6 186 570 186 570s2 28.8-2 33.6c-4 4.8-15.8 9.4-24 11-17.6 3.8-36.2 9-51.8 14.4-15.6 5.4-45.2 34.4-45.2 74.4h160.6c4.4-16 34.6-44.6 64-59.6 18-9.2 35.8-8.6 49.4-10.4 0 0 7.6-12-17.4-16.6 0 0-34.4-8.6-38.4-13.4-3.8-4.4-1.2-31.4-1.2-31.4z m464 0s-47.8-1.6-66.8-18.6c31-47 14.2-101.8 20.6-153 6.4-51 35.4-81.6 93.4-81.6h0.8c56 0 86.2 30.4 92.6 81.6 6.4 51-11.4 112 20.4 153-19 17.2-67 16.6-67 16.6s-2 28.8 2 33.6c4 4.8 15.8 9.4 24 11 17.6 3.8 36.2 9 51.8 14.4 15.6 5.4 45.2 34.4 45.2 74.4h-160.6c-4.4-16-34.6-44.6-64-59.6-18-9.2-35.8-8.6-49.4-10.4 0 0-7.6-12 17.4-16.6 0 0 34.4-8.6 38.4-13.4 3.8-4.4 1.2-31.4 1.2-31.4z" p-id="18419" fill="#868686"></path></svg>