<?xml version="1.0" standalone="no"?><!DOCTYPE svg PUBLIC "-//W3C//DTD SVG 1.1//EN" "http://www.w3.org/Graphics/SVG/1.1/DTD/svg11.dtd"><svg t="1699425723767" class="icon" viewBox="0 0 1024 1024" version="1.1" xmlns="http://www.w3.org/2000/svg" p-id="4220" xmlns:xlink="http://www.w3.org/1999/xlink" width="64" height="64"><path d="M179.2 104.533c-42.342 0-76.8 34.458-76.8 76.8s34.458 76.8 76.8 76.8 76.8-34.457 76.8-76.8-34.458-76.8-76.8-76.8z m0 119.467c-23.518 0-42.667-19.132-42.667-42.667s19.15-42.666 42.667-42.666 42.667 19.131 42.667 42.666S202.717 224 179.2 224zM836.267 155.733a17.067 17.067 0 1 0 34.133 0 17.067 17.067 0 1 0-34.133 0zM768 155.733a17.067 17.067 0 1 0 34.133 0 17.067 17.067 0 1 0-34.133 0zM870.4 206.933a17.067 17.067 0 1 0 34.133 0 17.067 17.067 0 1 0-34.133 0zM802.133 206.933a17.067 17.067 0 1 0 34.134 0 17.067 17.067 0 1 0-34.134 0zM699.733 155.733a17.067 17.067 0 1 0 34.134 0 17.067 17.067 0 1 0-34.134 0zM733.867 206.933a17.067 17.067 0 1 0 34.133 0 17.067 17.067 0 1 0-34.133 0zM631.467 155.733a17.067 17.067 0 1 0 34.133 0 17.067 17.067 0 1 0-34.133 0zM665.6 206.933a17.067 17.067 0 1 0 34.133 0 17.067 17.067 0 1 0-34.133 0zM563.2 155.733a17.067 17.067 0 1 0 34.133 0 17.067 17.067 0 1 0-34.133 0zM597.333 206.933a17.067 17.067 0 1 0 34.134 0 17.067 17.067 0 1 0-34.134 0zM179.2 428.8c-42.342 0-76.8 34.458-76.8 76.8s34.458 76.8 76.8 76.8 76.8-34.458 76.8-76.8-34.458-76.8-76.8-76.8z m0 119.467c-23.518 0-42.667-19.132-42.667-42.667s19.15-42.667 42.667-42.667 42.667 19.132 42.667 42.667-19.15 42.667-42.667 42.667z m0 204.8c-42.342 0-76.8 34.457-76.8 76.8s34.458 76.8 76.8 76.8 76.8-34.458 76.8-76.8-34.458-76.8-76.8-76.8z m0 119.466c-23.518 0-42.667-19.131-42.667-42.666S155.683 787.2 179.2 787.2s42.667 19.132 42.667 42.667-19.15 42.666-42.667 42.666z" p-id="4221"></path><path d="M1024 281.89V80.777a78.729 78.729 0 0 0-78.643-78.644H78.643A78.729 78.729 0 0 0 0 80.777v201.096c0 25.071 11.998 47.172 30.327 61.577C11.997 357.87 0 379.99 0 405.043V606.14c0 25.07 11.998 47.172 30.327 61.576C11.997 682.138 0 704.256 0 729.31v201.096a78.729 78.729 0 0 0 78.643 78.644h475.734c45.772 8.43 95.948 12.8 145.356 12.8 148.002 0 304.06-38.383 322.475-111.838A16.896 16.896 0 0 0 1024 902.4V428.8a16.742 16.742 0 0 0-1.638-7.1c-5.923-24.985-28.126-46.029-60.792-62.89a78.746 78.746 0 0 0 62.43-76.92zM34.133 606.157V405.043a44.561 44.561 0 0 1 44.51-44.51h356.01c-30.873 16.572-51.83 37.018-57.548 61.167a16.81 16.81 0 0 0-1.638 7.1v221.867H78.643a44.561 44.561 0 0 1-44.51-44.51z m386.15-104.738l2.373 1.484a209.594 209.594 0 0 0 9.387 5.53c0.938 0.512 1.843 1.041 2.782 1.536a240.149 240.149 0 0 0 12.407 6.212c0.683 0.325 1.417 0.632 2.1 0.939a294.476 294.476 0 0 0 11.639 5l3.515 1.417a365.978 365.978 0 0 0 29.884 10.308l4.028 1.195a542.683 542.683 0 0 0 15.001 4.164l1.212 0.325c5.496 1.416 11.11 2.73 16.81 4.01l4.319 0.939a629.277 629.277 0 0 0 14.797 3.02l2.97 0.58a686.945 686.945 0 0 0 17.766 3.056l4.283 0.665c4.967 0.768 9.967 1.485 15.019 2.15l4.147 0.547a894.9 894.9 0 0 0 18.45 2.133c1.245 0.137 2.508 0.24 3.754 0.359a938.93 938.93 0 0 0 15.684 1.4l4.745 0.375c6.263 0.46 12.56 0.87 18.858 1.194l2.697 0.12c5.547 0.273 11.11 0.478 16.674 0.631l5.035 0.137c6.366 0.136 12.731 0.239 19.08 0.239s12.715-0.103 19.08-0.24l5.035-0.136c5.564-0.153 11.11-0.358 16.675-0.631l2.696-0.12a859.921 859.921 0 0 0 39.288-2.97l3.754-0.358a790.587 790.587 0 0 0 18.45-2.133l4.146-0.546a690.998 690.998 0 0 0 15.02-2.15c1.433-0.222 2.866-0.427 4.283-0.666a686.933 686.933 0 0 0 17.766-3.055l2.97-0.58c5-0.956 9.933-1.963 14.797-3.021l4.318-0.939c5.683-1.28 11.315-2.594 16.81-4.01l1.212-0.325A444.503 444.503 0 0 0 901 535.04l4.027-1.195a431.27 431.27 0 0 0 14.592-4.676l0.82-0.273a383.795 383.795 0 0 0 17.988-6.775 294.477 294.477 0 0 0 11.64-5.001c0.699-0.324 1.416-0.614 2.098-0.939a247.22 247.22 0 0 0 12.408-6.212l2.782-1.536a197 197 0 0 0 9.386-5.53c0.785-0.494 1.605-0.972 2.373-1.484a158.379 158.379 0 0 0 10.052-7.066l0.648-0.444v85.129a16.64 16.64 0 0 0-0.358 6.024c0.239 1.246 0.41 2.475 0.41 3.738 0 1.877-0.53 3.789-0.99 5.683a29.594 29.594 0 0 1-3.414 8.278 44.05 44.05 0 0 1-6.946 9.181c-0.631 0.683-1.263 1.366-1.945 2.048-36.13 34.953-142.746 66.526-276.822 66.526-133.99 0-240.554-31.539-276.753-66.474a63.727 63.727 0 0 1-2.116-2.236 42.615 42.615 0 0 1-6.912-9.182 29.167 29.167 0 0 1-3.38-8.277c-0.46-1.844-0.989-3.704-0.989-5.547 0-1.212 0.154-2.423 0.358-3.618a17.015 17.015 0 0 0-0.358-6.57v-84.72l0.649 0.444a160.127 160.127 0 0 0 10.035 7.083z m567.143 251.084a44.05 44.05 0 0 1-8.926 13.04c-0.631 0.682-1.263 1.365-1.945 2.047-36.13 34.953-142.746 66.526-276.822 66.526-133.99 0-240.554-31.539-276.753-66.474a63.727 63.727 0 0 1-2.116-2.236 42.615 42.615 0 0 1-6.912-9.182 29.167 29.167 0 0 1-3.38-8.277c-0.392-1.605-0.801-3.226-0.853-4.83v-2.048c0.069-0.768 0.103-1.536 0.222-2.304 0.24-1.468-0.085-2.902-0.239-4.352l-0.102-83.746v-3.175c0.683 0.53 1.485 1.024 2.202 1.536a172.203 172.203 0 0 0 12.51 8.431 213.265 213.265 0 0 0 9.489 5.581c35.6 19.405 84.548 33.417 138.666 41.899l1.229 0.187c17.46 2.714 35.38 4.83 53.606 6.383 3.875 0.325 7.732 0.666 11.64 0.939a937.25 937.25 0 0 0 26.897 1.468c3.004 0.12 6.007 0.256 9.028 0.341 8.312 0.239 16.606 0.41 24.883 0.41 8.26 0 16.555-0.154 24.832-0.393 3.038-0.085 6.06-0.222 9.097-0.341a911.94 911.94 0 0 0 26.863-1.468c3.84-0.273 7.629-0.597 11.452-0.922a784.162 784.162 0 0 0 54.1-6.434l0.786-0.12c59.136-9.25 112.026-25.138 148.156-47.427a144.862 144.862 0 0 0 12.458-8.38c0.768-0.563 1.639-1.092 2.39-1.673v85.129a16.64 16.64 0 0 0-0.359 6.024c0.171 1.246 0.342 2.475 0.342 3.738 0 1.877-0.53 3.789-0.99 5.683a29.696 29.696 0 0 1-1.45 4.42zM78.643 974.933a44.561 44.561 0 0 1-44.51-44.51V729.31a44.561 44.561 0 0 1 44.51-44.51h296.824v234.667h5.051c0.273 0.631 0.666 1.246 0.973 1.877a72.26 72.26 0 0 0 6.69 11.264 104.073 104.073 0 0 0 9.046 10.786 135.68 135.68 0 0 0 24.405 19.576c6.554 4.215 13.636 8.209 21.3 11.98H78.642z m911.224-76.902a17.92 17.92 0 0 0-0.342 1.604c-6.98 42.547-125.098 88.098-289.792 88.098-52.548 0-100.266-4.659-141.243-12.356l0.017-0.136c-84.873-16.06-131.84-43.18-144.982-66.048l-0.034-0.069c-0.597-1.058-1.024-2.099-1.485-3.123a29.116 29.116 0 0 1-2.065-6.366l-0.136-98.39c0.614 0.479 1.348 0.922 1.98 1.4a172.203 172.203 0 0 0 12.51 8.431 213.265 213.265 0 0 0 9.488 5.581c35.602 19.405 84.549 33.417 138.667 41.899l1.229 0.187c17.46 2.714 35.38 4.83 53.606 6.383 3.874 0.325 7.732 0.666 11.64 0.94a937.25 937.25 0 0 0 26.897 1.467c3.004 0.12 6.007 0.256 9.028 0.341 8.312 0.24 16.606 0.41 24.883 0.41 8.26 0 16.555-0.154 24.832-0.393 3.038-0.085 6.059-0.222 9.097-0.341a911.94 911.94 0 0 0 26.863-1.468c3.84-0.273 7.629-0.597 11.452-0.921a784.162 784.162 0 0 0 54.1-6.435l0.786-0.12c59.136-9.25 112.026-25.138 148.156-47.427a144.862 144.862 0 0 0 12.458-8.38c0.768-0.563 1.639-1.092 2.39-1.673v96.905z m0-462.831c0 43.298-124.092 91.733-290.134 91.733-166.058 0-290.133-48.435-290.133-91.733 0-2.185 0.53-4.403 1.16-6.622 0.683-2.201 1.605-4.454 2.97-6.775l0.154-0.308c5.683-9.489 17.135-19.694 34.765-29.542a278.118 278.118 0 0 1 11.86-6.093 268.92 268.92 0 0 1 14.798-6.45c19.831-7.903 43.724-14.917 70.622-20.652a612.181 612.181 0 0 1 25.787-4.915c2.338-0.392 4.625-0.802 6.998-1.177 76.407-11.776 165.546-11.776 241.954 0 2.406 0.375 4.727 0.802 7.1 1.194a573.61 573.61 0 0 1 25.617 4.881c83.2 17.716 136.482 48.145 136.482 76.459z m0-153.31a44.561 44.561 0 0 1-44.51 44.51h-79.019c-0.99-0.222-2.082-0.358-3.072-0.58a637.764 637.764 0 0 0-34.492-6.469l-3.43-0.529a827.938 827.938 0 0 0-125.61-9.489c-42.309 0-85.283 3.226-125.577 9.49l-3.516 0.528a650.923 650.923 0 0 0-34.39 6.452c-1.006 0.222-2.133 0.358-3.14 0.58H78.643a44.544 44.544 0 0 1-44.51-44.493V80.777a44.561 44.561 0 0 1 44.51-44.51H945.34a44.561 44.561 0 0 1 44.527 44.51V281.89z" p-id="4222"></path></svg>