<?xml version="1.0" standalone="no"?><!DOCTYPE svg PUBLIC "-//W3C//DTD SVG 1.1//EN" "http://www.w3.org/Graphics/SVG/1.1/DTD/svg11.dtd"><svg t="1664530727818" class="icon" viewBox="0 0 1024 1024" version="1.1" xmlns="http://www.w3.org/2000/svg" p-id="9731" xmlns:xlink="http://www.w3.org/1999/xlink" width="200" height="200"><path d="M921.6 51.2H102.4a102.4 102.4 0 0 0-102.4 102.4v716.8a102.4 102.4 0 0 0 102.4 102.4h819.2a102.4 102.4 0 0 0 102.4-102.4V153.6a102.4 102.4 0 0 0-102.4-102.4zM409.6 640v-153.6h204.8v153.6z m204.8 102.4V870.4H409.6v-128zM614.4 256v128H409.6V256zM307.2 384H102.4V256h204.8z m0 102.4v153.6H102.4v-153.6z m409.6 0h204.8v153.6h-204.8z m0-102.4V256h204.8v128z m-614.4 358.4h204.8V870.4H102.4zM716.8 870.4v-128h204.8V870.4z" p-id="9732"></path></svg>