<?xml version="1.0" standalone="no"?><!DOCTYPE svg PUBLIC "-//W3C//DTD SVG 1.1//EN" "http://www.w3.org/Graphics/SVG/1.1/DTD/svg11.dtd"><svg t="1669109906341" class="icon" viewBox="0 0 1024 1024" version="1.1" xmlns="http://www.w3.org/2000/svg" p-id="7662" xmlns:xlink="http://www.w3.org/1999/xlink" width="16" height="16"><path d="M966.656 484.352c-6.144-8.192-52.224-71.68-129.024-136.192C731.136 258.048 618.496 209.92 512 209.92S292.864 258.048 186.368 348.16C106.496 415.744 59.392 482.304 57.344 484.352c-11.264 14.336-13.312 38.912 0 55.296 6.144 8.192 52.224 71.68 129.024 136.192C292.864 765.952 405.504 814.08 512 814.08S731.136 765.952 837.632 675.84c79.872-67.584 126.976-134.144 129.024-136.192 11.264-14.336 13.312-38.912 0-55.296z m-32.768 30.72C931.84 518.144 747.52 773.12 512 773.12S92.16 518.144 90.112 515.072c0-1.024-1.024-1.024-1.024-1.024-1.024-1.024 0-4.096 1.024-6.144C92.16 505.856 276.48 250.88 512 250.88s419.84 254.976 421.888 258.048c0 1.024 1.024 1.024 1.024 1.024 0 1.024 0 4.096-1.024 5.12zM512 332.8c-101.376 0-184.32 80.896-184.32 179.2s82.944 179.2 184.32 179.2S696.32 610.304 696.32 512s-82.944-179.2-184.32-179.2z m0 317.44c-78.848 0-143.36-62.464-143.36-138.24s64.512-138.24 143.36-138.24S655.36 436.224 655.36 512s-64.512 138.24-143.36 138.24zM563.2 512c0 28.672-22.528 51.2-51.2 51.2s-51.2-22.528-51.2-51.2 22.528-51.2 51.2-51.2 51.2 22.528 51.2 51.2z" p-id="7663"></path></svg>