<svg width="18" height="18" viewBox="0 0 18 18" fill="none" xmlns="http://www.w3.org/2000/svg">
<path fill-rule="evenodd" clip-rule="evenodd" d="M3 9C3 5.68629 5.68629 3 9 3C12.3137 3 15 5.68629 15 9C15 12.3137 12.3137 15 9 15C5.68629 15 3 12.3137 3 9ZM9 1.5C4.85786 1.5 1.5 4.85786 1.5 9C1.5 13.1421 4.85786 16.5 9 16.5C13.1421 16.5 16.5 13.1421 16.5 9C16.5 4.85786 13.1421 1.5 9 1.5ZM7.72501 7.49198V7.31904C7.72591 7.11327 7.7995 6.88501 7.96369 6.71341C8.11533 6.55492 8.4109 6.375 8.9957 6.375C9.54485 6.375 9.92673 6.63719 10.1215 6.93486C10.3295 7.25274 10.2885 7.51947 10.1898 7.65273C10.0667 7.81892 9.91382 7.97242 9.72909 8.13871C9.6729 8.1893 9.60363 8.24958 9.52936 8.31421L9.52934 8.31422C9.39653 8.42979 9.24772 8.55928 9.12907 8.67218C8.70776 9.07306 8.25014 9.63256 8.25014 10.5L8.25258 10.8798L9.75255 10.8702L9.75016 10.4979C9.75071 10.2414 9.85587 10.0512 10.1631 9.75885C10.2663 9.6606 10.3591 9.58029 10.4654 9.48841L10.4654 9.48837C10.544 9.42041 10.6298 9.34611 10.7327 9.25353C10.9466 9.06099 11.1846 8.82979 11.3951 8.54555C11.9637 7.77795 11.8307 6.80761 11.3767 6.11364C10.9095 5.39945 10.0593 4.875 8.9957 4.875C8.07527 4.875 7.36167 5.17286 6.87987 5.67642C6.41089 6.16658 6.22671 6.78418 6.22501 7.31524V7.49198H7.72501ZM8.25256 11.625V13.1279H9.75256V11.625H8.25256Z" fill="#F53F3F"/>
</svg>
