<svg width="25" height="24" viewBox="0 0 25 24" xmlns="http://www.w3.org/2000/svg">
<path d="M23.2998 14.7202H17.9798C17.6198 14.7202 17.2998 14.9602 17.2198 15.2802L16.3398 18.1202H8.65981L7.77981 15.2802C7.65981 14.9602 7.37981 14.7202 7.01981 14.7202H1.6998C1.4598 14.7202 1.2998 14.8802 1.2998 15.1202V21.3202C1.2998 22.2002 2.0198 22.9202 2.8998 22.9202H22.0998C22.9798 22.9202 23.6998 22.2002 23.6998 21.3202V15.1202C23.6998 14.9202 23.5398 14.7202 23.2998 14.7202Z"/>
<path d="M23.7002 14.8801L21.0202 2.00008C20.9002 1.48008 20.4202 1.08008 19.9002 1.08008H5.14016C4.58016 1.08008 4.10016 1.48008 4.02016 2.00008L1.30016 14.8801C1.26016 15.0801 1.30016 15.2801 1.42016 15.4801C1.54016 15.6401 1.70016 15.7601 1.90016 15.8001H2.06016C2.22016 15.8001 2.34016 15.7601 2.50016 15.6801C2.66016 15.5601 2.78016 15.4001 2.82016 15.2001L5.42016 2.64008H19.5402L22.1802 15.2001C22.2602 15.6001 22.7002 15.8801 23.1002 15.8001C23.3002 15.7601 23.4602 15.6401 23.5802 15.4801C23.7002 15.2801 23.7402 15.0801 23.7002 14.8801Z"/>
<path d="M9.89918 10.0401L11.8592 8.08006L11.8592 12.8001C11.8592 13.2401 12.2192 13.5601 12.6192 13.5601C13.0592 13.5601 13.3792 13.2001 13.3792 12.8001L13.3792 8.08006L15.3392 10.0401C15.6592 10.3601 16.1392 10.3601 16.4192 10.0401C16.7392 9.72006 16.7392 9.24006 16.4192 8.96006L13.1392 5.68006C13.0592 5.60006 12.9792 5.56006 12.8992 5.52006C12.8592 5.52006 12.8192 5.48006 12.7792 5.48006L12.3792 5.48006C12.3392 5.48006 12.2992 5.52006 12.2592 5.52006C12.1792 5.56006 12.0992 5.60006 12.0192 5.68006L8.73918 8.96006C8.41918 9.28006 8.41918 9.76006 8.73918 10.0401C9.13918 10.3601 9.61918 10.3601 9.89918 10.0401Z"/>
</svg>
